<?xml version="1.0" standalone="no"?>
<!DOCTYPE svg PUBLIC "-//W3C//DTD SVG 1.1//EN"
"http://www.w3.org/Graphics/SVG/1.1/DTD/svg11.dtd">
<svg width="224" height="225" version="1.1" xmlns:xlink="http://www.w3.org/1999/xlink" xmlns="http://www.w3.org/2000/svg">

<polyline points="15.0803,0.0802892 14.1232,0.123214 13.1164,0.116361 12.0718,0.0717776 11.0015,0.00151513 9.91762,-0.0823771 8.83215,-0.167849 7.75715,-0.242851 6.70467,-0.295334 5.68675,-0.313247 4.71546,-0.28454 3.80284,-0.197165 2.96093,-0.0390709 2.20179,0.201792 1.53747,0.537473 0.980023,0.980022 0.537474,1.53747 0.201793,2.20179 -0.0390701,2.96093 -0.197164,3.80284 -0.284539,4.71546 -0.313246,5.68675 -0.295333,6.70467 -0.242851,7.75715 -0.167849,8.83215 -0.0823767,9.91762 0.00151534,11.0015 0.0717776,12.0718 0.116361,13.1164 0.123214,14.1232 0.0802889,15.0803 " style="fill-opacity:0; stroke-opacity:0.8; stroke:#00ff00; stroke-width:0.2"/>
<polyline points="4.65325,-0.346748 3.65108,-0.348922 2.78829,-0.211714 2.0551,0.0550962 1.44173,0.44173 0.938408,0.938408 0.535351,1.53535 0.222779,2.22278 -0.00908636,2.99091 -0.170024,3.82998 -0.269814,4.73019 -0.318235,5.68176 -0.325066,6.67493 -0.300086,7.69991 -0.253076,8.74692 -0.193813,9.80619 -0.130831,10.8692 -0.0676802,11.9323 -0.00666307,12.9933 0.0499165,14.0499 0.0997553,15.0998 0.14055,16.1405 0.169996,17.17 0.185792,18.1858 0.185632,19.1856 0.167215,20.1672 0.128236,21.1282 0.0663921,22.0664 -0.0206203,22.9794 -0.135104,23.8649 -0.279364,24.7206 " style="fill-opacity:0; stroke-opacity:0.8; stroke:#00ff00; stroke-width:0.2"/>
<polyline points="0,5 0,6 0,7 0,8 0,9 0,10 0,11 0,12 0,13 0,14 0,15 0,16 0,17 0,18 0,19 0,20 0,21 0,22 0,23 0,24 0,25 0,26 0,27 0,28 0,29 0,30 0,31 0,32 0,33 0,34 0,35 " style="fill-opacity:0; stroke-opacity:0.8; stroke:#00ff00; stroke-width:0.2"/>
<polyline points="0,15 0,16 0,17 0,18 0,19 0,20 0,21 0,22 0,23 0,24 0,25 0,26 0,27 0,28 0,29 0,30 0,31 0,32 0,33 0,34 0,35 0,36 0,37 0,38 0,39 0,40 0,41 0,42 0,43 0,44 0,45 " style="fill-opacity:0; stroke-opacity:0.8; stroke:#00ff00; stroke-width:0.2"/>
<polyline points="-0.220157,25.2202 -0.114149,26.1142 -0.0278002,27.0278 0.0401252,27.9599 0.0908617,28.9091 0.125645,29.8744 0.145708,30.8543 0.152289,31.8477 0.14662,32.8534 0.129937,33.8701 0.103475,34.8965 0.0684697,35.9315 0.026155,36.9738 -0.0222338,38.0222 -0.0754616,39.0755 -0.132294,40.1323 -0.190311,41.1903 -0.242364,42.2424 -0.280117,43.2801 -0.295235,44.2952 -0.279385,45.2794 -0.224231,46.2242 -0.121439,47.1214 0.0373242,47.9627 0.260395,48.7396 0.556106,49.4439 0.932794,50.0672 1.39879,50.6012 1.96243,51.0376 2.63206,51.3679 3.41599,51.584 " style="fill-opacity:0; stroke-opacity:0.8; stroke:#00ff00; stroke-width:0.2"/>
<polyline points="-0.0978169,35.0978 0.0625507,35.9375 0.14399,36.856 0.160744,37.8393 0.127052,38.873 0.0571572,39.9428 -0.0347,41.0347 -0.134278,42.1343 -0.227335,43.2273 -0.29963,44.2996 -0.336921,45.3369 -0.324967,46.325 -0.249527,47.2495 -0.0963593,48.0964 0.148778,48.8512 0.500126,49.4999 0.967769,50.0322 1.54516,50.4548 2.2216,50.7784 2.98639,51.0136 3.82882,51.1712 4.73819,51.2618 5.7038,51.2962 6.71495,51.285 7.76093,51.2391 8.83105,51.1689 9.91459,51.0854 11.0009,50.9991 12.0792,50.9208 13.1388,50.8612 14.169,50.831 " style="fill-opacity:0; stroke-opacity:0.8; stroke:#00ff00; stroke-width:0.2"/>
<polyline points="-0.0913852,45.0914 -0.27424,46.2743 -0.302258,47.3023 -0.185732,48.1857 0.0650496,48.935 0.439795,49.5602 0.928213,50.0718 1.52001,50.48 2.20491,50.7951 2.9726,51.0274 3.81281,51.1872 4.71523,51.2848 5.66959,51.3304 6.66558,51.3344 7.69292,51.3071 8.74132,51.2587 9.80158,51.1984 10.8688,51.1312 11.9393,51.0607 13.0093,50.9907 14.075,50.925 15.1327,50.8673 16.1785,50.8215 17.2088,50.7912 18.2197,50.7802 19.2076,50.7924 20.1686,50.8314 21.099,50.901 21.995,51.005 22.8528,51.1472 23.6688,51.3313 " style="fill-opacity:0; stroke-opacity:0.8; stroke:#00ff00; stroke-width:0.2"/>
<polyline points="4,51 5,51 6,51 7,51 8,51 9,51 10,51 11,51 12,51 13,51 14,51 15,51 16,51 17,51 18,51 19,51 20,51 21,51 22,51 23,51 24,51 25,51 26,51 27,51 28,51 29,51 30,51 31,51 32,51 33,51 34,51 " style="fill-opacity:0; stroke-opacity:0.8; stroke:#00ff00; stroke-width:0.2"/>
<polyline points="14,51 15,51 16,51 17,51 18,51 19,51 20,51 21,51 22,51 23,51 24,51 25,51 26,51 27,51 28,51 29,51 30,51 31,51 32,51 33,51 34,51 35,51 36,51 37,51 38,51 39,51 40,51 41,51 42,51 43,51 44,51 " style="fill-opacity:0; stroke-opacity:0.8; stroke:#00ff00; stroke-width:0.2"/>
<polyline points="24.2202,51.2202 25.1142,51.1142 26.0278,51.0278 26.9599,50.9599 27.9091,50.9091 28.8744,50.8744 29.8543,50.8543 30.8477,50.8477 31.8534,50.8534 32.8701,50.8701 33.8965,50.8965 34.9315,50.9315 35.9738,50.9738 37.0222,51.0222 38.0755,51.0755 39.1323,51.1323 40.1903,51.1903 41.2424,51.2424 42.2801,51.2801 43.2952,51.2952 44.2794,51.2794 45.2242,51.2242 46.1214,51.1214 46.9627,50.9627 47.7396,50.7396 48.4439,50.4439 49.0672,50.0672 49.6012,49.6012 50.0376,49.0376 50.3679,48.368 50.584,47.584 " style="fill-opacity:0; stroke-opacity:0.8; stroke:#00ff00; stroke-width:0.2"/>
<polyline points="34.0978,51.0978 34.9375,50.9375 35.856,50.856 36.8393,50.8393 37.873,50.873 38.9428,50.9428 40.0347,51.0347 41.1343,51.1343 42.2273,51.2273 43.2996,51.2996 44.3369,51.3369 45.325,51.325 46.2495,51.2495 47.0964,51.0964 47.8512,50.8512 48.4999,50.4999 49.0322,50.0322 49.4548,49.4548 49.7784,48.7784 50.0136,48.0136 50.1712,47.1712 50.2618,46.2618 50.2962,45.2962 50.2851,44.285 50.2391,43.2391 50.169,42.1689 50.0854,41.0854 49.9991,39.9991 49.9208,38.9208 49.8612,37.8612 49.831,36.831 " style="fill-opacity:0; stroke-opacity:0.8; stroke:#00ff00; stroke-width:0.2"/>
<polyline points="44.0914,51.0914 45.2743,51.2742 46.3023,51.3023 47.1857,51.1857 47.935,50.935 48.5602,50.5602 49.0718,50.0718 49.48,49.48 49.7951,48.7951 50.0274,48.0274 50.1872,47.1872 50.2848,46.2848 50.3304,45.3304 50.3344,44.3344 50.3071,43.3071 50.2587,42.2587 50.1984,41.1984 50.1311,40.1312 50.0606,39.0607 49.9907,37.9907 49.925,36.925 49.8673,35.8673 49.8215,34.8215 49.7912,33.7912 49.7802,32.7802 49.7924,31.7924 49.8314,30.8314 49.901,29.901 50.005,29.005 50.1472,28.1472 50.3312,27.3313 " style="fill-opacity:0; stroke-opacity:0.8; stroke:#00ff00; stroke-width:0.2"/>
<polyline points="50,47 50,46 50,45 50,44 50,43 50,42 50,41 50,40 50,39 50,38 50,37 50,36 50,35 50,34 50,33 50,32 50,31 50,30 50,29 50,28 50,27 50,26 50,25 50,24 50,23 50,22 50,21 50,20 50,19 50,18 50,17 " style="fill-opacity:0; stroke-opacity:0.8; stroke:#00ff00; stroke-width:0.2"/>
<polyline points="50,37 50,36 50,35 50,34 50,33 50,32 50,31 50,30 50,29 50,28 50,27 50,26 50,25 50,24 50,23 50,22 50,21 50,20 50,19 50,18 50,17 50,16 50,15 50,14 50,13 50,12 50,11 50,10 50,9 50,8 50,7 " style="fill-opacity:0; stroke-opacity:0.8; stroke:#00ff00; stroke-width:0.2"/>
<polyline points="50.2146,26.7855 50.1083,25.8917 50.023,24.977 49.9572,24.0428 49.9093,23.0907 49.8778,22.1222 49.861,21.139 49.8575,20.1425 49.8656,19.1344 49.8839,18.1161 49.9107,17.0893 49.9445,16.0555 49.9838,15.0162 50.027,13.973 50.0725,12.9275 50.1188,11.8812 50.1637,10.8363 50.2026,9.7974 50.2304,8.76962 50.2418,7.75818 50.2317,6.76828 50.1949,5.8051 50.1262,4.87383 50.0203,3.97966 49.8722,3.12778 49.6766,2.32337 49.4284,1.57163 49.1223,0.877749 48.7531,0.246905 48.3157,-0.315706 47.8049,-0.804897 " style="fill-opacity:0; stroke-opacity:0.8; stroke:#00ff00; stroke-width:0.2"/>
<polyline points="50.3504,16.6496 50.0451,15.9549 49.8505,15.1495 49.7502,14.2498 49.7277,13.2723 49.7667,12.2333 49.8508,11.1492 49.9636,10.0364 50.0887,8.91131 50.2097,7.79028 50.3103,6.68971 50.374,5.62599 50.3845,4.61551 50.3253,3.67466 50.1802,2.81983 49.9326,2.06742 49.5701,1.42994 49.0955,0.904502 48.5156,0.484353 47.8373,0.162735 47.0671,-0.0671063 46.2119,-0.211927 45.2785,-0.278482 44.2735,-0.273526 43.2075,-0.207455 42.1052,-0.105215 40.9954,0.0046066 39.9066,0.0934227 38.8674,0.132647 37.9063,0.0936927 37.052,-0.0520271 " style="fill-opacity:0; stroke-opacity:0.8; stroke:#00ff00; stroke-width:0.2"/>
<polyline points="49.8172,7.18284 50.1575,5.84249 50.3321,4.66792 50.3514,3.64863 50.2259,2.77413 49.9661,2.03393 49.5825,1.41753 49.0856,0.91444 48.4858,0.514169 47.7938,0.206223 47.0199,-0.0198899 46.1747,-0.174663 45.2686,-0.268589 44.3122,-0.31216 43.3159,-0.315869 42.2902,-0.29021 41.2447,-0.24473 40.1852,-0.185204 39.1165,-0.116462 38.0433,-0.0433345 36.9706,0.029348 35.9032,0.0967552 34.8459,0.154057 33.8036,0.196423 32.781,0.219023 31.783,0.217026 30.8144,0.185602 29.8801,0.119922 28.9848,0.0151538 28.1335,-0.133532 27.331,-0.330966 " style="fill-opacity:0; stroke-opacity:0.8; stroke:#00ff00; stroke-width:0.2"/>
<polyline points="47,0 46,0 45,0 44,0 43,0 42,0 41,0 40,0 39,0 38,0 37,0 36,0 35,0 34,0 33,0 32,0 31,0 30,0 29,0 28,0 27,0 26,0 25,0 24,0 23,0 22,0 21,0 20,0 19,0 18,0 17,0 " style="fill-opacity:0; stroke-opacity:0.8; stroke:#00ff00; stroke-width:0.2"/>
<polyline points="37,0 36,0 35,0 34,0 33,0 32,0 31,0 30,0 29,0 28,0 27,0 26,0 25,0 24,0 23,0 22,0 21,0 20,0 19,0 18,0 17,0 16,0 15,0 14,0 13,0 12,0 11,0 10,0 9,0 8,0 7,0 " style="fill-opacity:0; stroke-opacity:0.8; stroke:#00ff00; stroke-width:0.2"/>
<polyline points="26.7855,-0.214548 25.8917,-0.108271 24.977,-0.0230097 24.0428,0.042792 23.0907,0.0906912 22.1222,0.122244 21.139,0.139009 20.1425,0.14254 19.1344,0.134397 18.1161,0.116134 17.0893,0.0893086 16.0555,0.0554781 15.0162,0.0161987 13.973,-0.0269727 12.9275,-0.0724794 11.8812,-0.118765 10.8363,-0.163667 9.7974,-0.202602 8.76962,-0.230381 7.75818,-0.241816 6.76828,-0.231718 5.8051,-0.194898 4.87383,-0.126168 3.97966,-0.0203382 3.12778,0.12778 2.32337,0.323374 1.57163,0.571634 0.877749,0.877748 0.246905,1.24691 -0.315705,1.68429 -0.804897,2.1951 " style="fill-opacity:0; stroke-opacity:0.8; stroke:#00ff00; stroke-width:0.2"/>
<polyline points="16.6496,-0.350369 15.9549,-0.0451148 15.1495,0.149492 14.2498,0.24984 13.2723,0.272319 12.2333,0.233317 11.1492,0.149223 10.0364,0.0364261 8.91131,-0.0886849 7.79028,-0.209721 6.68971,-0.310293 5.62599,-0.374012 4.61551,-0.38449 3.67466,-0.325337 2.81984,-0.180164 2.06742,0.0674167 1.42994,0.429938 0.9045,0.904501 0.48435,1.48435 0.162733,2.16273 -0.0671093,2.93289 -0.211929,3.78807 -0.278484,4.72152 -0.273527,5.72647 -0.207453,6.79255 -0.105211,7.89479 0.00461171,9.00461 0.0934281,10.0934 0.132651,11.1327 0.093692,12.0937 -0.0520354,12.948 " style="fill-opacity:0; stroke-opacity:0.8; stroke:#00ff00; stroke-width:0.2"/>
<polyline points="19.0453,13.9712 18.9623,13.0362 18.7439,12.2338 18.4241,11.5423 18.0371,10.9398 17.6148,10.3999 17.181,9.87886 16.7575,9.32847 16.3658,8.70054 16.0187,7.96863 15.6925,7.19334 15.3542,6.45705 14.9711,5.84211 14.5215,5.4244 14.0279,5.25376 13.5239,5.37354 13.0375,5.79597 12.5743,6.40871 12.1364,7.08639 11.7338,7.77582 11.373,8.44834 11.0391,9.10094 10.7113,9.73706 10.3693,10.3601 9.99719,10.9729 9.59808,11.5761 9.17982,12.1695 8.75023,12.7531 8.33329,13.3438 8.01752,14.0261 7.90761,14.9012 " style="fill-opacity:0; stroke-opacity:0.8; stroke:#00ff00; stroke-width:0.2"/>
<polyline points="15.8394,7.21061 15.4136,6.59194 14.9578,5.90427 14.4831,5.33626 14.0009,5.07662 13.5214,5.25672 13.0511,5.77871 12.5956,6.48745 12.1604,7.22778 11.7499,7.87916 11.3638,8.45946 11.0008,9.02113 10.6594,9.61665 10.3342,10.2806 10.0041,10.9758 9.64405,11.6474 9.23787,12.2556 8.8053,12.8216 8.37505,13.3819 7.9758,13.973 7.62664,14.62 7.30825,15.3027 6.9917,15.9897 6.64808,16.6495 6.25698,17.2598 5.83213,17.8345 5.39574,18.3966 4.97007,18.9693 4.57735,19.5756 4.23982,20.2385 3.97972,20.9811 " style="fill-opacity:0; stroke-opacity:0.8; stroke:#00ff00; stroke-width:0.2"/>
<polyline points="11.0628,8.11412 10.9444,8.92138 10.7226,9.66929 10.4176,10.3674 10.0498,11.0251 9.6397,11.652 9.20762,12.2576 8.77397,12.8513 8.35913,13.4427 7.97831,14.0398 7.62585,14.6444 7.29093,15.2567 6.96271,15.8771 6.63034,16.506 6.28299,17.1435 5.90983,17.79 5.50411,18.4448 5.07558,19.1025 4.63804,19.7571 4.20535,20.402 3.79133,21.0312 3.40982,21.6382 3.07464,22.2169 2.79963,22.7609 2.61462,23.2586 2.61348,23.677 2.90608,23.978 3.60227,24.1233 4.73522,24.1006 6.03126,24.0026 7.14003,23.9479 " style="fill-opacity:0; stroke-opacity:0.8; stroke:#00ff00; stroke-width:0.2"/>
<polyline points="7.70961,14.8863 7.38412,15.3905 7.0402,15.9361 6.67772,16.5171 6.29658,17.1276 5.89666,17.7615 5.47783,18.4128 5.03999,19.0755 4.58301,19.7437 4.11292,20.4098 3.66027,21.0607 3.26173,21.6817 2.954,22.2582 2.77375,22.7756 2.75767,23.2192 2.94245,23.5744 3.35293,23.8314 3.96663,24.0003 4.74925,24.096 5.66648,24.1334 6.684,24.1273 7.76751,24.0927 8.88269,24.0446 9.99524,23.9978 11.0768,23.9646 12.1229,23.9467 13.135,23.9432 14.1145,23.9531 15.063,23.9754 15.9819,24.0092 16.8726,24.0536 " style="fill-opacity:0; stroke-opacity:0.8; stroke:#00ff00; stroke-width:0.2"/>
<polyline points="4.15064,21.0494 3.38135,21.7753 2.90023,22.381 2.68358,22.8767 2.70767,23.2727 2.94878,23.579 3.3832,23.8057 3.9872,23.9631 4.73706,24.0612 5.60907,24.1102 6.5795,24.1203 7.62464,24.1016 8.72076,24.0642 9.84414,24.0182 10.9711,23.9739 12.0778,23.9413 13.146,23.9282 14.1785,23.9326 15.1834,23.95 16.1689,23.9759 17.1432,24.0059 18.1145,24.0356 19.091,24.0606 20.0808,24.0763 21.0825,24.0766 22.0562,24.0487 22.9525,23.978 23.7221,23.8498 24.3154,23.6497 24.683,23.3631 24.7754,22.9753 " style="fill-opacity:0; stroke-opacity:0.8; stroke:#00ff00; stroke-width:0.2"/>
<polyline points="7.30806,24.1516 8.05515,24.0238 8.88872,23.941 9.7967,23.8966 10.7671,23.8843 11.7877,23.8976 12.8467,23.93 13.9319,23.9751 15.0312,24.0265 16.1326,24.0777 17.2242,24.1222 18.2937,24.1537 19.3292,24.1656 20.3186,24.1515 21.2499,24.105 22.111,24.0196 22.8854,23.888 23.5385,23.6989 24.0313,23.4405 24.325,23.1006 24.3929,22.6718 24.2594,22.1653 23.9611,21.5968 23.5347,20.9821 23.0199,20.3356 22.4676,19.6656 21.9318,18.9788 21.4661,18.2823 21.1245,17.5828 20.9608,16.8871 21.0288,16.2023 " style="fill-opacity:0; stroke-opacity:0.8; stroke:#00ff00; stroke-width:0.2"/>
<polyline points="16.8788,23.9186 17.9121,23.9828 19.0305,24.0542 20.1714,24.1109 21.272,24.131 22.2731,24.0942 23.1298,23.9883 23.8011,23.8026 24.2457,23.5266 24.4367,23.1539 24.4046,22.6952 24.1938,22.1651 23.8492,21.5782 23.4153,20.9494 22.9367,20.2934 22.4581,19.6249 22.0157,18.9561 21.612,18.2894 21.241,17.6245 20.8967,16.9613 20.5733,16.2995 20.2646,15.6391 19.9649,14.9798 19.668,14.3215 19.368,13.664 19.0591,13.007 18.7351,12.3504 18.3902,11.6941 18.0184,11.0378 17.6137,10.3814 17.1702,9.72463 " style="fill-opacity:0; stroke-opacity:0.8; stroke:#00ff00; stroke-width:0.2"/>
<polyline points="24.1715,22.8497 23.9079,22.0823 23.5922,21.3855 23.2364,20.7428 22.8526,20.1374 22.4527,19.5529 22.0487,18.9726 21.6526,18.3801 21.2765,17.7587 20.9289,17.0968 20.6052,16.4023 20.2971,15.6879 19.9967,14.9665 19.6958,14.2508 19.3864,13.5536 19.0603,12.8878 18.7118,12.2616 18.344,11.6658 17.9625,11.0864 17.573,10.5097 17.1809,9.92193 16.7917,9.3092 16.4111,8.65772 16.0446,7.95369 15.6931,7.19896 15.3394,6.45802 14.9617,5.81102 14.5381,5.33811 14.0468,5.11946 13.4659,5.2352 12.7737,5.7655 " style="fill-opacity:0; stroke-opacity:0.8; stroke:#00ff00; stroke-width:0.2"/>
<polyline points="20.8756,16.1254 20.3333,15.6643 19.9178,15.0812 19.5884,14.4139 19.3039,13.7 19.0275,12.9743 18.7374,12.2602 18.4158,11.5781 18.0449,10.9485 17.6165,10.3812 17.1613,9.8438 16.7195,9.29315 16.3317,8.68623 16.0199,7.9964 15.7344,7.26271 15.4074,6.5406 14.9891,5.89127 14.5022,5.39883 13.9876,5.15315 13.4861,5.24408 13.0285,5.71752 12.6055,6.4435 12.1976,7.24811 11.7854,7.95743 11.3596,8.4644 10.9508,8.92929 10.5965,9.53515 10.3219,10.2886 10.1075,11.1154 9.76845,11.7946 9.07817,12.0686 " style="fill-opacity:0; stroke-opacity:0.8; stroke:#00ff00; stroke-width:0.2"/>
<polyline points="44.0803,5.08029 43.1232,5.12322 42.1164,5.11636 41.0718,5.07178 40.0015,5.00152 38.9176,4.91762 37.8322,4.83215 36.7572,4.75715 35.7047,4.70467 34.6868,4.68675 33.7155,4.71546 32.8028,4.80284 31.9609,4.96093 31.2018,5.20179 30.5375,5.53747 29.98,5.98002 29.5375,6.53747 29.2018,7.20179 28.9609,7.96093 28.8028,8.80283 28.7155,9.71546 28.6868,10.6868 28.7047,11.7047 28.7571,12.7571 28.8321,13.8322 28.9176,14.9176 29.0015,16.0015 29.0718,17.0718 29.1164,18.1164 29.1232,19.1232 29.0803,20.0803 " style="fill-opacity:0; stroke-opacity:0.8; stroke:#00ff00; stroke-width:0.2"/>
<polyline points="33.981,5.04851 32.7671,4.81277 31.7523,4.7737 30.9195,4.91586 30.2518,5.22382 29.7323,5.68213 29.3441,6.27535 29.0702,6.98804 28.8937,7.80475 28.7976,8.71005 28.7652,9.68848 28.7793,10.7246 28.823,11.803 28.8795,12.9082 28.9318,14.0248 28.963,15.1373 28.9626,16.2308 28.946,17.2917 28.935,18.307 28.9516,19.2639 29.0176,20.1492 29.1548,20.95 29.3851,21.6532 29.7304,22.2459 30.2102,22.7164 30.8353,23.0587 31.614,23.268 32.5545,23.3398 33.6654,23.2693 34.9549,23.0519 36.4314,22.6828 " style="fill-opacity:0; stroke-opacity:0.8; stroke:#00ff00; stroke-width:0.2"/>
<polyline points="29.0356,9.96438 29.1074,10.8926 29.1043,11.8957 29.0477,12.9523 28.9592,14.0408 28.8601,15.1399 28.7719,16.2281 28.716,17.284 28.7138,18.2862 28.7842,19.2158 28.9354,20.0646 29.173,20.827 29.5026,21.4974 29.9299,22.0701 30.4605,22.5395 31.1,22.9 31.8505,23.1495 32.7,23.3 33.633,23.367 34.6341,23.3659 35.6877,23.3123 36.7783,23.2217 37.8904,23.1096 39.0085,22.9915 40.1171,22.8829 41.2008,22.7992 42.2439,22.7561 43.231,22.769 44.1466,22.8534 44.9753,23.0247 45.7014,23.2986 " style="fill-opacity:0; stroke-opacity:0.8; stroke:#00ff00; stroke-width:0.2"/>
<polyline points="28.6667,20.5163 28.852,21.2009 29.193,21.7663 29.6754,22.223 30.2849,22.5814 31.0072,22.8517 31.8279,23.0445 32.7327,23.1701 33.7075,23.2389 34.7378,23.2612 35.8093,23.2475 36.9077,23.2082 38.0188,23.1537 39.1283,23.0943 40.2217,23.0404 41.2848,23.0025 42.3035,22.9844 43.2637,22.9639 44.152,22.9125 44.9544,22.8015 45.6574,22.6023 46.247,22.2862 46.7097,21.8246 47.0317,21.1889 47.207,20.363 47.2607,19.382 47.2257,18.2933 47.135,17.1444 47.0214,15.9829 46.9178,14.8564 46.8571,13.8125 " style="fill-opacity:0; stroke-opacity:0.8; stroke:#00ff00; stroke-width:0.2"/>
<polyline points="35.9573,22.9712 36.864,22.8801 37.8854,22.8947 38.9827,22.9795 40.1174,23.0993 41.2509,23.2185 42.3446,23.3018 43.3599,23.3138 44.2582,23.2191 45.0099,22.99 45.6215,22.6291 46.1084,22.147 46.4861,21.5541 46.7699,20.8608 46.9754,20.0775 47.1181,19.2148 47.2116,18.2832 47.2634,17.2947 47.279,16.2613 47.2641,15.1954 47.2244,14.1089 47.1656,13.014 47.0933,11.923 47.0131,10.8478 46.9307,9.8008 46.8519,8.79397 46.7821,7.83952 46.7271,6.94958 46.6925,6.13629 46.6841,5.41182 46.7074,4.7883 " style="fill-opacity:0; stroke-opacity:0.8; stroke:#00ff00; stroke-width:0.2"/>
<polyline points="46.665,23.2351 46.6732,22.5933 46.7036,21.8563 46.7516,21.0355 46.8129,20.1423 46.8828,19.1882 46.957,18.1846 47.031,17.1429 47.1003,16.0746 47.1604,14.991 47.207,13.9036 47.2354,12.8239 47.2413,11.7632 47.2201,10.733 47.1674,9.74462 47.0787,8.80962 46.9475,7.93935 46.7587,7.1452 46.495,6.43852 46.1395,5.83069 45.6748,5.33305 45.0838,4.95697 44.3494,4.71382 43.4543,4.61496 42.3957,4.65997 41.2278,4.80131 40.019,4.97963 38.8379,5.13561 37.7527,5.20991 36.8321,5.14321 36.1444,4.87618 " style="fill-opacity:0; stroke-opacity:0.8; stroke:#00ff00; stroke-width:0.2"/>
<polyline points="46.8178,14.241 46.9345,13.1101 47.058,11.9555 47.166,10.8072 47.2361,9.69523 47.2462,8.64957 47.1741,7.70018 46.9974,6.87704 46.6939,6.21015 46.2477,5.7194 45.6676,5.38445 44.9686,5.17486 44.166,5.0602 43.2748,5.01005 42.3101,4.99398 41.2871,4.98156 40.2207,4.94915 39.1252,4.9003 38.0146,4.84533 36.9033,4.79458 35.8052,4.75838 34.7345,4.74706 33.7054,4.77096 32.732,4.84041 31.8284,4.96574 31.0087,5.15729 30.2871,5.42538 29.6778,5.78035 29.1947,6.23253 28.8522,6.79226 28.6643,7.46986 " style="fill-opacity:0; stroke-opacity:0.8; stroke:#00ff00; stroke-width:0.2"/>
<polyline points="45.6497,4.64963 44.9549,4.95489 44.1495,5.14949 43.2499,5.24984 42.2723,5.27232 41.2333,5.23332 40.1492,5.14922 39.0364,5.03643 37.9113,4.91131 36.7903,4.79028 35.6897,4.68971 34.626,4.62599 33.6155,4.61551 32.6747,4.67466 31.8198,4.81984 31.0674,5.06742 30.4299,5.42994 29.9045,5.9045 29.4843,6.48435 29.1627,7.16273 28.9329,7.93289 28.7881,8.78807 28.7215,9.72152 28.7265,10.7265 28.7925,11.7925 28.8948,12.8948 29.0046,14.0046 29.0934,15.0934 29.1327,16.1327 29.0937,17.0937 28.948,17.948 " style="fill-opacity:0; stroke-opacity:0.8; stroke:#00ff00; stroke-width:0.2"/>
<polyline points="22.1354,35.8041 21.6436,35.3808 21.2021,34.861 20.7966,34.2691 20.4125,33.6294 20.0355,32.9664 19.651,32.3044 19.2446,31.6678 18.8018,31.0811 18.311,30.5652 17.772,30.1282 17.1873,29.7747 16.5597,29.5094 15.8917,29.337 15.186,29.2622 14.4451,29.2896 13.6725,29.4179 12.8751,29.6222 12.0605,29.8716 11.2364,30.135 10.4105,30.3875 9.59047,30.6277 8.78391,30.8598 7.9985,31.0883 7.24536,31.3235 6.54945,31.5984 5.9392,31.9522 5.44302,32.4237 5.08934,33.0519 4.90659,33.8758 4.92319,34.9343 " style="fill-opacity:0; stroke-opacity:0.8; stroke:#00ff00; stroke-width:0.2"/>
<polyline points="17.926,30.0441 17.2842,29.5358 16.6156,29.2549 15.9201,29.1603 15.198,29.2108 14.4494,29.3655 13.6744,29.5832 12.8731,29.8229 12.0456,30.0434 11.1952,30.215 10.3375,30.3536 9.49122,30.4864 8.67512,30.6406 7.90792,30.8434 7.20837,31.122 6.59519,31.5036 6.0827,32.0085 5.66747,32.6288 5.34164,33.3497 5.09738,34.1564 4.92681,35.0341 4.8221,35.9679 4.77539,36.9432 4.77881,37.9449 4.82454,38.9584 4.9047,39.9687 5.01144,40.9612 5.13692,41.9209 5.27328,42.8331 5.41266,43.683 5.54722,44.4557 " style="fill-opacity:0; stroke-opacity:0.8; stroke:#00ff00; stroke-width:0.2"/>
<polyline points="10.4157,30.3394 9.54776,30.6017 8.72963,30.8301 7.96882,31.0536 7.2728,31.3011 6.64902,31.6016 6.10494,31.9842 5.64804,32.4777 5.28577,33.1113 5.02227,33.9029 4.84842,34.8274 4.75179,35.8489 4.71993,36.9314 4.74041,38.0388 4.80077,39.1352 4.8886,40.1846 4.99626,41.1564 5.13551,42.0418 5.32291,42.8374 5.57502,43.5398 5.90841,44.1457 6.33966,44.6516 6.88532,45.0542 7.56197,45.3501 8.37407,45.5435 9.27774,45.6694 10.217,45.77 11.1358,45.888 11.9781,46.0658 12.688,46.3458 13.2096,46.7705 " style="fill-opacity:0; stroke-opacity:0.8; stroke:#00ff00; stroke-width:0.2"/>
<polyline points="5.01781,34.986 5.06454,35.916 5.0415,36.9364 4.97844,38.0113 4.90516,39.1048 4.85142,40.1808 4.84701,41.2035 4.9217,42.1369 5.10526,42.945 5.41979,43.6022 5.85665,44.1239 6.39951,44.5357 7.03203,44.8632 7.73789,45.1323 8.50076,45.3684 9.30432,45.5974 10.133,45.839 10.9743,46.09 11.8165,46.3415 12.6478,46.5845 13.4566,46.8101 14.231,47.0091 14.9595,47.1727 15.6302,47.2919 16.2343,47.3531 16.7747,47.3248 17.2573,47.1709 17.6878,46.8553 18.0721,46.3419 18.416,45.5945 18.7253,44.5771 " style="fill-opacity:0; stroke-opacity:0.8; stroke:#00ff00; stroke-width:0.2"/>
<polyline points="5.78923,44.1733 6.39664,44.6262 7.06823,44.9741 7.793,45.2394 8.55994,45.445 9.35804,45.6135 10.1763,45.7675 11.0037,45.9298 11.8293,46.1229 12.6426,46.3627 13.4358,46.6373 14.2015,46.9277 14.9325,47.2152 15.6199,47.4698 16.2492,47.6166 16.8042,47.5694 17.2759,47.2692 17.6833,46.7656 18.0522,46.1352 18.4085,45.4548 18.774,44.7881 19.1538,44.1472 19.5487,43.5314 19.9596,42.94 20.3869,42.3713 20.8283,41.8206 21.2811,41.2824 21.7428,40.7512 22.2104,40.2214 22.6814,39.6874 23.1529,39.1438 " style="fill-opacity:0; stroke-opacity:0.8; stroke:#00ff00; stroke-width:0.2"/>
<polyline points="12.9666,46.9806 14.0923,46.8511 15.0025,47.1129 15.7361,47.4991 16.3318,47.7431 16.8266,47.6415 17.2503,47.2436 17.6311,46.6617 17.9971,46.0084 18.3717,45.3758 18.7594,44.7751 19.1603,44.1968 19.5742,43.6318 20.0011,43.0709 20.4408,42.5047 20.8934,41.924 21.3541,41.3218 21.8002,40.6998 22.2046,40.062 22.5399,39.4122 22.7788,38.7543 22.8941,38.0924 22.8586,37.4304 22.6449,36.7721 22.2438,36.1205 21.7175,35.4737 21.1463,34.8289 20.6103,34.1834 20.1899,33.5343 19.9652,32.8788 20.0166,32.214 " style="fill-opacity:0; stroke-opacity:0.8; stroke:#00ff00; stroke-width:0.2"/>
<polyline points="19.0643,44.9668 19.2205,44.2518 19.4749,43.5856 19.8319,42.9639 20.2955,42.3823 20.8566,41.8333 21.4525,41.297 22.0074,40.7507 22.4452,40.1713 22.7069,39.542 22.8014,38.8704 22.7546,38.1703 22.5923,37.4552 22.3404,36.7389 22.0248,36.035 21.6712,35.3573 21.301,34.716 20.9172,34.1072 20.5182,33.5239 20.1026,32.9588 19.6687,32.4047 19.215,31.8543 18.74,31.3005 18.2422,30.736 17.7189,30.1652 17.1639,29.6389 16.5699,29.2194 15.9295,28.9692 15.2354,28.9506 14.4803,29.226 13.657,29.8577 " style="fill-opacity:0; stroke-opacity:0.8; stroke:#00ff00; stroke-width:0.2"/>
<polyline points="23.1462,38.8501 22.9253,38.056 22.6561,37.327 22.3459,36.6502 22.0024,36.0126 21.6328,35.4012 21.2447,34.8031 20.8455,34.2052 20.4427,33.5947 20.041,32.9638 19.6343,32.327 19.2136,31.7038 18.77,31.114 18.2946,30.5773 17.7785,30.1133 17.2129,29.7418 16.5913,29.4781 15.9177,29.3207 15.1987,29.2634 14.4408,29.3005 13.6511,29.4234 12.8395,29.6131 12.0167,29.8482 11.1933,30.1072 10.3791,30.3719 9.5816,30.6383 8.80757,30.9056 8.06376,31.173 7.35697,31.44 6.69395,31.7058 6.08148,31.9696 " style="fill-opacity:0; stroke-opacity:0.8; stroke:#00ff00; stroke-width:0.2"/>
<polyline points="44.6419,33.374 44.3304,32.7465 43.9338,32.1554 43.4596,31.6044 42.9156,31.0977 42.3094,30.6391 41.6486,30.2327 40.9409,29.8824 40.194,29.5922 39.4156,29.3655 38.6144,29.203 37.7993,29.1049 36.9791,29.0714 36.1626,29.1025 35.3586,29.1985 34.5759,29.3595 33.8225,29.5852 33.102,29.8727 32.4172,30.219 31.771,30.6207 31.166,31.0747 30.605,31.5777 30.0908,32.1265 29.6262,32.7178 29.2139,33.3484 28.8568,34.0151 28.5575,34.7146 28.3188,35.4438 28.1436,36.1993 28.0345,36.978 27.9943,37.7766 " style="fill-opacity:0; stroke-opacity:0.8; stroke:#00ff00; stroke-width:0.2"/>
<polyline points="38.8519,29.1547 37.9004,29.0173 36.9841,28.9627 36.1043,28.9872 35.2625,29.0873 34.4599,29.2594 33.698,29.5001 32.9781,29.8057 32.3016,30.1727 31.6699,30.5975 31.0844,31.0766 30.5463,31.6063 30.0572,32.1833 29.6183,32.8038 29.2311,33.4643 28.8969,34.1613 28.6171,34.8908 28.3934,35.6467 28.2274,36.4228 28.121,37.2127 28.0756,38.0098 28.0931,38.8079 28.1751,39.6004 28.3233,40.3812 28.5394,41.1436 28.8251,41.8814 29.1821,42.5881 29.612,43.2574 30.1166,43.8828 30.6975,44.4579 31.3565,44.9764 " style="fill-opacity:0; stroke-opacity:0.8; stroke:#00ff00; stroke-width:0.2"/>
<polyline points="31.3565,31.0236 30.6975,31.5421 30.1166,32.1172 29.612,32.7426 29.1821,33.4119 28.8251,34.1186 28.5394,34.8564 28.3233,35.6188 28.1751,36.3995 28.0931,37.1921 28.0756,37.9902 28.1209,38.7873 28.2274,39.5772 28.3934,40.3533 28.6171,41.1092 28.8969,41.8387 29.2311,42.5357 29.6183,43.1962 30.0572,43.8167 30.5463,44.3937 31.0844,44.9234 31.6699,45.4025 32.3016,45.8273 32.9781,46.1943 33.698,46.4999 34.4599,46.7405 35.2625,46.9127 36.1043,47.0128 36.9841,47.0373 37.9004,46.9827 38.8519,46.8453 " style="fill-opacity:0; stroke-opacity:0.8; stroke:#00ff00; stroke-width:0.2"/>
<polyline points="27.9845,38.2272 28.0307,39.0229 28.1443,39.7996 28.3226,40.5539 28.5631,41.2826 28.8631,41.9822 29.2201,42.6495 29.6315,43.2809 30.0947,43.8733 30.607,44.4232 31.166,44.9273 31.7689,45.3822 32.4133,45.7846 33.0965,46.1311 33.816,46.4183 34.5691,46.6429 35.3522,46.8023 36.1574,46.8962 36.9756,46.9254 37.7979,46.8902 38.6152,46.7913 39.4186,46.6292 40.1991,46.4046 40.9477,46.1178 41.6555,45.7702 42.3152,45.3651 42.9194,44.9067 43.4608,44.3991 43.9322,43.8463 44.3262,43.2524 44.6356,42.6216 " style="fill-opacity:0; stroke-opacity:0.8; stroke:#00ff00; stroke-width:0.2"/>
<polyline points="30.9665,44.7363 31.6057,45.3043 32.2912,45.7846 33.0163,46.18 33.7739,46.4935 34.5571,46.7279 35.359,46.886 36.1727,46.9707 36.9913,46.9848 37.8077,46.9312 38.6152,46.8128 39.4067,46.6323 40.1754,46.3927 40.9143,46.0968 41.6166,45.7474 42.2751,45.3475 42.8842,44.8995 43.442,44.4049 43.9478,43.8648 44.4008,43.2803 44.8004,42.6526 45.1458,41.9827 45.4363,41.2718 45.6711,40.521 45.8486,39.7321 45.9635,38.9101 46.0096,38.0605 45.9807,37.1889 45.8704,36.301 45.6727,35.4024 45.3813,34.4986 " style="fill-opacity:0; stroke-opacity:0.8; stroke:#00ff00; stroke-width:0.2"/>
<polyline points="39.0104,46.8102 39.6933,46.6649 40.3631,46.4465 41.0155,46.1591 41.6463,45.8069 42.2511,45.3939 42.8256,44.9243 43.3656,44.4024 43.8667,43.8322 44.3246,43.2178 44.7351,42.5635 45.0938,41.8734 45.3965,41.1517 45.6389,40.4024 45.8166,39.6297 45.9254,38.8379 45.962,38.0317 45.9278,37.2191 45.8252,36.4086 45.6567,35.6089 45.4246,34.8286 45.1314,34.0763 44.7795,33.3605 44.3714,32.69 43.9093,32.0732 43.3959,31.5189 42.8335,31.0356 42.2244,30.632 41.5713,30.3166 40.8764,30.098 40.1422,29.985 " style="fill-opacity:0; stroke-opacity:0.8; stroke:#00ff00; stroke-width:0.2"/>
<polyline points="44.7374,43.1011 45.1529,42.2115 45.4838,41.3275 45.7331,40.4518 45.9035,39.5872 45.9979,38.7366 46.019,37.9028 45.9698,37.0886 45.853,36.2968 45.6715,35.5303 45.4281,34.7918 45.1255,34.0842 44.7667,33.4104 44.3543,32.7731 43.8914,32.1751 43.3806,31.6194 42.8249,31.1086 42.2269,30.6457 41.5896,30.2334 40.9158,29.8745 40.2082,29.5719 39.4698,29.3285 38.7032,29.147 37.9115,29.0302 37.0972,28.981 36.2634,29.0021 35.4128,29.0965 34.5482,29.2669 33.6725,29.5162 32.7885,29.8471 31.8989,30.2626 " style="fill-opacity:0; stroke-opacity:0.8; stroke:#00ff00; stroke-width:0.2"/>
<polyline points="45.0151,34.8578 44.902,34.1236 44.6834,33.4287 44.368,32.7756 43.9644,32.1665 43.4811,31.6041 42.9268,31.0907 42.31,30.6286 41.6395,30.2205 40.9237,29.8686 40.1714,29.5754 39.3911,29.3433 38.5914,29.1747 37.7809,29.0722 36.9683,29.038 36.1621,29.0746 35.3702,29.1834 34.5976,29.3611 33.8483,29.6035 33.1266,29.9062 32.4364,30.2649 31.7822,30.6754 31.1678,31.1333 30.5976,31.6345 30.0757,32.1744 29.6061,32.7489 29.1931,33.3537 28.8409,33.9845 28.5535,34.6369 28.3351,35.3067 28.1899,35.9896 " style="fill-opacity:0; stroke-opacity:0.8; stroke:#00ff00; stroke-width:0.2"/>
<polyline points="35.9044,40.776 37.1244,41.2501 38.1394,41.3217 38.9541,41.0589 39.5735,40.5297 40.0022,39.802 40.2451,38.9439 40.307,38.0233 40.1926,37.1082 39.9109,36.2593 39.4875,35.5082 38.952,34.879 38.3342,34.3961 37.6639,34.0837 36.9706,33.966 36.2841,34.0673 35.633,34.4 35.0412,34.9301 34.5313,35.6115 34.1262,36.3982 33.8485,37.2444 33.7211,38.104 33.7665,38.9312 34.0077,39.6801 34.4586,40.3099 35.0992,40.8019 35.9004,41.1424 36.8336,41.318 37.8699,41.3151 38.9805,41.1201 40.1365,40.7195 " style="fill-opacity:0; stroke-opacity:0.8; stroke:#00ff00; stroke-width:0.2"/>
<polyline points="39.861,35.2206 39.1189,34.8194 38.3698,34.5099 37.628,34.3069 36.9078,34.2253 36.2233,34.2799 35.5889,34.4857 35.0188,34.8575 34.5273,35.4102 34.1304,36.1455 33.8508,37.0123 33.713,37.9463 33.7417,38.8835 33.9612,39.7594 34.3961,40.5098 35.0709,41.0705 35.9835,41.3904 37.0251,41.4703 38.0602,41.3242 38.9535,40.9661 39.598,40.4153 40.0015,39.7115 40.1999,38.8996 40.2294,38.0248 40.1212,37.1327 39.8858,36.2715 39.5287,35.4902 39.0555,34.8379 38.4718,34.3634 37.7831,34.1157 36.995,34.1439 " style="fill-opacity:0; stroke-opacity:0.8; stroke:#00ff00; stroke-width:0.2"/>
<polyline points="34.2386,36.9171 33.6983,38.0723 33.6179,39.0815 33.9117,39.9308 34.4942,40.6064 35.2799,41.0942 36.1832,41.3805 37.1186,41.4512 38.0006,41.2924 38.7567,40.901 39.3673,40.3169 39.8259,39.5906 40.1259,38.7727 40.2608,37.9138 40.2242,37.0645 40.0094,36.2754 39.6176,35.5904 39.08,35.0267 38.4353,34.5945 37.7225,34.3045 36.9804,34.1669 36.2477,34.1923 35.5633,34.3909 34.966,34.7733 34.4879,35.343 34.1345,36.0755 33.9047,36.9398 33.797,37.9044 33.8105,38.9383 33.9438,40.01 34.1957,41.0885 " style="fill-opacity:0; stroke-opacity:0.8; stroke:#00ff00; stroke-width:0.2"/>
</svg>
