<?xml version="1.0" standalone="no"?>
<!DOCTYPE svg PUBLIC "-//W3C//DTD SVG 1.1//EN"
"http://www.w3.org/Graphics/SVG/1.1/DTD/svg11.dtd">
<svg width="30" height="30" version="1.1" xmlns:xlink="http://www.w3.org/1999/xlink" xmlns="http://www.w3.org/2000/svg">
<polyline points="9.85093,-0.149069 9.1118,0.111801 8.1713,0.171298 7.10494,0.104936 5.97935,-0.0206525 4.85228,-0.147722 3.77259,-0.22741 2.78026,-0.219737 1.90639,-0.0936098 1.17318,0.173182 0.593966,0.593966 0.173182,1.17318 -0.0936101,1.90639 -0.219737,2.78026 -0.22741,3.77259 -0.147722,4.85228 -0.0206527,5.97935 0.104936,7.10494 0.171298,8.1713 0.111801,9.1118 -0.149068,9.85093 " style="fill-opacity:0; stroke-opacity:0.8; stroke:#00FF00; stroke-width:0.2"/>
<polyline points="5.1588,0.158798 3.89124,-0.108761 2.77173,-0.228266 1.83018,-0.169825 1.07985,0.0798517 0.519942,0.519941 0.137989,1.13799 -0.0876091,1.91239 -0.185113,2.81489 -0.186961,3.81304 -0.127281,4.87272 -0.0394068,5.96059 0.0466075,7.04661 0.106472,8.10647 0.124147,9.12415 0.0943273,10.0943 0.0249272,11.0249 -0.0604338,11.9396 -0.119946,12.8801 -0.0911262,13.9089 0.111671,15.1117 " style="fill-opacity:0; stroke-opacity:0.8; stroke:#00FF00; stroke-width:0.2"/>
<polyline points="0,8.57273e-007 0,1 0,2 0,3 0,4 0,5 0,6 0,7 0,8 0,9 0,10 0,11 0,12 0,13 0,14 0,15 0,16 0,17 0,18 0,19 0,20 " style="fill-opacity:0; stroke-opacity:0.8; stroke:#00FF00; stroke-width:0.2"/>
<polyline points="0,5 0,6 0,7 0,8 0,9 0,10 0,11 0,12 0,13 0,14 0,15 0,16 0,17 0,18 0,19 0,20 0,21 0,22 0,23 0,24 0,25 " style="fill-opacity:0; stroke-opacity:0.8; stroke:#00FF00; stroke-width:0.2"/>
<polyline points="0,10 0,11 0,12 0,13 0,14 0,15 0,16 0,17 0,18 0,19 0,20 0,21 0,22 0,23 0,24 0,25 0,26 0,27 0,28 0,29 0,30 " style="fill-opacity:0; stroke-opacity:0.8; stroke:#00FF00; stroke-width:0.2"/>
<polyline points="0,15 0,16 0,17 0,18 0,19 0,20 0,21 0,22 0,23 0,24 0,25 0,26 0,27 0,28 0,29 0,30 0,31 0,32 0,33 0,34 0,35 " style="fill-opacity:0; stroke-opacity:0.8; stroke:#00FF00; stroke-width:0.2"/>
<polyline points="0,20 0,21 0,22 0,23 0,24 0,25 0,26 0,27 0,28 0,29 0,30 0,31 0,32 0,33 0,34 0,35 0,36 0,37 0,38 0,39 0,40 " style="fill-opacity:0; stroke-opacity:0.8; stroke:#00FF00; stroke-width:0.2"/>
<polyline points="0,25 0,26 0,27 0,28 0,29 0,30 0,31 0,32 0,33 0,34 0,35 0,36 0,37 0,38 0,39 0,40 0,41 0,42 0,43 0,44 0,45 " style="fill-opacity:0; stroke-opacity:0.8; stroke:#00FF00; stroke-width:0.2"/>
<polyline points="0,30 0,31 0,32 0,33 0,34 0,35 0,36 0,37 0,38 0,39 0,40 0,41 0,42 0,43 0,44 0,45 0,46 0,47 0,48 0,49 0,50 " style="fill-opacity:0; stroke-opacity:0.8; stroke:#00FF00; stroke-width:0.2"/>
<polyline points="0.0555966,34.9444 -0.0360422,36.036 -0.0589095,37.0589 -0.0404268,38.0404 -0.00325351,39.0033 0.0347839,39.9652 0.0607621,40.9392 0.0667309,41.9333 0.0497844,42.9502 0.012131,43.9879 -0.0388364,45.0388 -0.0904694,46.0905 -0.124794,47.1248 -0.118441,48.1184 -0.0425744,49.0426 0.13718,49.8628 0.460801,50.5392 0.973947,51.0261 1.72802,51.272 2.78025,51.2197 4.19375,50.8062 " style="fill-opacity:0; stroke-opacity:0.8; stroke:#00FF00; stroke-width:0.2"/>
<polyline points="-0.0745338,40.0745 0.0298136,40.9702 0.0847334,41.9153 0.0847333,42.9153 0.0374861,43.9625 -0.0388363,45.0388 -0.118228,46.1182 -0.169513,47.1695 -0.159014,48.159 -0.0532121,49.0532 0.178582,49.8214 0.561568,50.4384 1.11279,50.8872 1.83845,51.1615 2.73131,51.2687 3.76792,51.2321 4.90606,51.0939 6.08199,50.918 7.20785,50.7922 8.16894,50.8311 8.82112,51.1789 " style="fill-opacity:0; stroke-opacity:0.8; stroke:#00FF00; stroke-width:0.2"/>
<polyline points="0.0565508,44.9434 0.0235026,45.9765 -0.0885849,47.0886 -0.163036,48.163 -0.118855,49.1189 0.0937604,49.9062 0.497911,50.5021 1.09449,50.9055 1.86666,51.1333 2.78437,51.2156 3.8088,51.1912 4.89692,51.1031 6.0059,50.9941 7.09767,50.9023 8.14336,50.8566 9.12782,50.8722 10.0541,50.9459 10.9479,51.0521 11.8622,51.1378 12.8816,51.1184 14.1268,50.8732 " style="fill-opacity:0; stroke-opacity:0.8; stroke:#00FF00; stroke-width:0.2"/>
<polyline points="-0.168355,50.1684 0.303037,50.697 1.02393,50.9761 1.91021,51.0898 2.89623,51.1038 3.93271,51.0673 4.98482,51.0152 6.03013,50.9699 7.05658,50.9434 8.06053,50.9395 9.04472,50.9553 10.0163,50.9837 10.9846,51.0154 11.9597,51.0403 12.9497,51.0503 13.9591,51.0409 14.9869,51.0131 16.0243,50.9757 17.0529,50.9471 18.0425,50.9575 18.9495,51.0505 " style="fill-opacity:0; stroke-opacity:0.8; stroke:#00FF00; stroke-width:0.2"/>
<polyline points="4,51 5,51 6,51 7,51 8,51 9,51 10,51 11,51 12,51 13,51 14,51 15,51 16,51 17,51 18,51 19,51 20,51 21,51 22,51 23,51 24,51 " style="fill-opacity:0; stroke-opacity:0.8; stroke:#00FF00; stroke-width:0.2"/>
<polyline points="9,51 10,51 11,51 12,51 13,51 14,51 15,51 16,51 17,51 18,51 19,51 20,51 21,51 22,51 23,51 24,51 25,51 26,51 27,51 28,51 29,51 " style="fill-opacity:0; stroke-opacity:0.8; stroke:#00FF00; stroke-width:0.2"/>
<polyline points="14,51 15,51 16,51 17,51 18,51 19,51 20,51 21,51 22,51 23,51 24,51 25,51 26,51 27,51 28,51 29,51 30,51 31,51 32,51 33,51 34,51 " style="fill-opacity:0; stroke-opacity:0.8; stroke:#00FF00; stroke-width:0.2"/>
<polyline points="19,51 20,51 21,51 22,51 23,51 24,51 25,51 26,51 27,51 28,51 29,51 30,51 31,51 32,51 33,51 34,51 35,51 36,51 37,51 38,51 39,51 " style="fill-opacity:0; stroke-opacity:0.8; stroke:#00FF00; stroke-width:0.2"/>
<polyline points="24,51 25,51 26,51 27,51 28,51 29,51 30,51 31,51 32,51 33,51 34,51 35,51 36,51 37,51 38,51 39,51 40,51 41,51 42,51 43,51 44,51 " style="fill-opacity:0; stroke-opacity:0.8; stroke:#00FF00; stroke-width:0.2"/>
<polyline points="29,51 30,51 31,51 32,51 33,51 34,51 35,51 36,51 37,51 38,51 39,51 40,51 41,51 42,51 43,51 44,51 45,51 46,51 47,51 48,51 49,51 " style="fill-opacity:0; stroke-opacity:0.8; stroke:#00FF00; stroke-width:0.2"/>
<polyline points="33.9444,50.9444 35.036,51.0361 36.0589,51.0589 37.0404,51.0404 38.0033,51.0033 38.9652,50.9652 39.9392,50.9392 40.9333,50.9333 41.9502,50.9502 42.9879,50.9879 44.0388,51.0388 45.0905,51.0905 46.1248,51.1248 47.1184,51.1184 48.0426,51.0426 48.8628,50.8628 49.5392,50.5392 50.0261,50.0261 50.272,49.272 50.2197,48.2197 49.8062,46.8062 " style="fill-opacity:0; stroke-opacity:0.8; stroke:#00FF00; stroke-width:0.2"/>
<polyline points="39.0745,51.0745 39.9702,50.9702 40.9153,50.9153 41.9153,50.9153 42.9625,50.9625 44.0388,51.0388 45.1182,51.1182 46.1695,51.1695 47.159,51.159 48.0532,51.0532 48.8214,50.8214 49.4384,50.4384 49.8872,49.8872 50.1615,49.1615 50.2687,48.2687 50.2321,47.2321 50.0939,46.0939 49.918,44.918 49.7922,43.7922 49.8311,42.8311 50.1789,42.1789 " style="fill-opacity:0; stroke-opacity:0.8; stroke:#00FF00; stroke-width:0.2"/>
<polyline points="43.9435,50.9435 44.9765,50.9765 46.0886,51.0886 47.163,51.163 48.1189,51.1189 48.9062,50.9062 49.5021,50.5021 49.9055,49.9055 50.1333,49.1333 50.2156,48.2156 50.1912,47.1912 50.1031,46.1031 49.9941,44.9941 49.9023,43.9023 49.8566,42.8566 49.8722,41.8722 49.9459,40.9459 50.0521,40.0521 50.1377,39.1377 50.1184,38.1184 49.8732,36.8732 " style="fill-opacity:0; stroke-opacity:0.8; stroke:#00FF00; stroke-width:0.2"/>
<polyline points="49.1684,51.1684 49.697,50.697 49.9761,49.9761 50.0898,49.0898 50.1038,48.1038 50.0673,47.0673 50.0152,46.0152 49.9699,44.9699 49.9434,43.9434 49.9395,42.9395 49.9553,41.9553 49.9837,40.9837 50.0154,40.0154 50.0403,39.0403 50.0503,38.0503 50.0409,37.0409 50.0131,36.0131 49.9757,34.9757 49.9471,33.9471 49.9575,32.9575 50.0505,32.0505 " style="fill-opacity:0; stroke-opacity:0.8; stroke:#00FF00; stroke-width:0.2"/>
<polyline points="50,47 50,46 50,45 50,44 50,43 50,42 50,41 50,40 50,39 50,38 50,37 50,36 50,35 50,34 50,33 50,32 50,31 50,30 50,29 50,28 50,27 " style="fill-opacity:0; stroke-opacity:0.8; stroke:#00FF00; stroke-width:0.2"/>
<polyline points="50,42 50,41 50,40 50,39 50,38 50,37 50,36 50,35 50,34 50,33 50,32 50,31 50,30 50,29 50,28 50,27 50,26 50,25 50,24 50,23 50,22 " style="fill-opacity:0; stroke-opacity:0.8; stroke:#00FF00; stroke-width:0.2"/>
<polyline points="50,37 50,36 50,35 50,34 50,33 50,32 50,31 50,30 50,29 50,28 50,27 50,26 50,25 50,24 50,23 50,22 50,21 50,20 50,19 50,18 50,17 " style="fill-opacity:0; stroke-opacity:0.8; stroke:#00FF00; stroke-width:0.2"/>
<polyline points="50,32 50,31 50,30 50,29 50,28 50,27 50,26 50,25 50,24 50,23 50,22 50,21 50,20 50,19 50,18 50,17 50,16 50,15 50,14 50,13 50,12 " style="fill-opacity:0; stroke-opacity:0.8; stroke:#00FF00; stroke-width:0.2"/>
<polyline points="50,27 50,26 50,25 50,24 50,23 50,22 50,21 50,20 50,19 50,18 50,17 50,16 50,15 50,14 50,13 50,12 50,11 50,10 50,9 50,8 50,7 " style="fill-opacity:0; stroke-opacity:0.8; stroke:#00FF00; stroke-width:0.2"/>
<polyline points="50,22 50,21 50,20 50,19 50,18 50,17 50,16 50,15 50,14 50,13 50,12 50,11 50,10 50,9 50,8 50,7 50,6 50,5 50,4 50,3 50,2 " style="fill-opacity:0; stroke-opacity:0.8; stroke:#00FF00; stroke-width:0.2"/>
<polyline points="50.0136,16.9864 49.9781,16.0219 49.9852,15.0148 50.0053,13.9947 50.0208,12.9792 50.0238,11.9762 50.0135,10.9865 49.9947,10.0053 49.9751,9.02493 49.963,8.03699 49.9655,7.03446 49.9861,6.01394 50.022,4.97795 50.0629,3.93707 50.0878,2.91217 50.0633,1.93666 49.9413,1.05868 49.6567,0.343329 49.1251,-0.125122 48.241,-0.241011 46.8751,0.124936 " style="fill-opacity:0; stroke-opacity:0.8; stroke:#00FF00; stroke-width:0.2"/>
<polyline points="49.9837,12.0163 50.0501,10.9499 50.0177,9.98231 49.9628,9.03723 49.9311,8.06895 49.9421,7.05792 49.9939,6.00609 50.0677,4.93233 50.1322,3.86783 50.1485,2.85146 50.0748,1.92519 49.8705,1.12949 49.5013,0.498734 48.9434,0.0565612 48.1887,-0.188694 47.2486,-0.248617 46.1593,-0.159315 44.986,0.0139737 43.8277,0.172284 42.8217,0.178317 42.1482,-0.148165 " style="fill-opacity:0; stroke-opacity:0.8; stroke:#00FF00; stroke-width:0.2"/>
<polyline points="50.0609,6.93913 49.8719,6.12806 49.9358,5.0642 50.0812,3.91879 50.1823,2.81774 50.1531,1.84694 49.9425,1.05746 49.5291,0.470887 48.9154,0.0845879 48.123,-0.123026 47.1872,-0.187212 46.1516,-0.151622 45.063,-0.0630256 43.966,0.0339652 42.8978,0.102175 41.8829,0.117138 40.9276,0.0723798 40.0153,-0.015311 39.1006,-0.100603 38.1043,-0.104348 36.9083,0.0916996 " style="fill-opacity:0; stroke-opacity:0.8; stroke:#00FF00; stroke-width:0.2"/>
<polyline points="50.0337,1.96633 50.0926,0.907406 49.7049,0.295061 49.0099,-0.00989468 48.1178,-0.11783 47.1133,-0.1133 46.0581,-0.0580552 44.994,0.00594602 43.9465,0.0535289 42.9267,0.0732918 41.9354,0.0645961 40.9654,0.0345568 40.005,-0.00496909 39.0404,-0.0403902 38.0594,-0.0593929 37.054,-0.0539505 36.0233,-0.0233332 34.9771,0.0228814 33.9382,0.061799 32.9458,0.054198 32.0585,-0.0584807 " style="fill-opacity:0; stroke-opacity:0.8; stroke:#00FF00; stroke-width:0.2"/>
<polyline points="47,0 46,0 45,0 44,0 43,0 42,0 41,0 40,0 39,0 38,0 37,0 36,0 35,0 34,0 33,0 32,0 31,0 30,0 29,0 28,0 27,0 " style="fill-opacity:0; stroke-opacity:0.8; stroke:#00FF00; stroke-width:0.2"/>
<polyline points="42,0 41,0 40,0 39,0 38,0 37,0 36,0 35,0 34,0 33,0 32,0 31,0 30,0 29,0 28,0 27,0 26,0 25,0 24,0 23,0 22,0 " style="fill-opacity:0; stroke-opacity:0.8; stroke:#00FF00; stroke-width:0.2"/>
<polyline points="37,0 36,0 35,0 34,0 33,0 32,0 31,0 30,0 29,0 28,0 27,0 26,0 25,0 24,0 23,0 22,0 21,0 20,0 19,0 18,0 17,0 " style="fill-opacity:0; stroke-opacity:0.8; stroke:#00FF00; stroke-width:0.2"/>
<polyline points="32,0 31,0 30,0 29,0 28,0 27,0 26,0 25,0 24,0 23,0 22,0 21,0 20,0 19,0 18,0 17,0 16,0 15,0 14,0 13,0 12,0 " style="fill-opacity:0; stroke-opacity:0.8; stroke:#00FF00; stroke-width:0.2"/>
<polyline points="27,0 26,0 25,0 24,0 23,0 22,0 21,0 20,0 19,0 18,0 17,0 16,0 15,0 14,0 13,0 12,0 11,0 10,0 9,0 8,0 7,0 " style="fill-opacity:0; stroke-opacity:0.8; stroke:#00FF00; stroke-width:0.2"/>
<polyline points="22,0 21,0 20,0 19,0 18,0 17,0 16,0 15,0 14,0 13,0 12,0 11,0 10,0 9,0 8,0 7,0 6,0 5,0 4,0 3,0 2,0 " style="fill-opacity:0; stroke-opacity:0.8; stroke:#00FF00; stroke-width:0.2"/>
<polyline points="16.9864,-0.0135867 16.0219,0.0219259 15.0148,0.014837 13.9947,-0.00530984 12.9792,-0.0208481 11.9762,-0.0237701 10.9865,-0.0135095 10.0053,0.0052771 9.02493,0.0249279 8.03699,0.0369936 7.03446,0.0344556 6.01394,0.0139438 4.97795,-0.0220452 3.93707,-0.062931 2.91217,-0.0878307 1.93666,-0.0633406 1.05868,0.0586803 0.343329,0.343329 -0.125122,0.874878 -0.241011,1.75899 0.124936,3.12494 " style="fill-opacity:0; stroke-opacity:0.8; stroke:#00FF00; stroke-width:0.2"/>
<polyline points="12.0163,0.0162627 10.9499,-0.0501411 9.98231,-0.0176888 9.03723,0.037231 8.06895,0.0689495 7.05792,0.0579142 6.00609,0.00608545 4.93233,-0.0676671 3.86783,-0.132169 2.85146,-0.148542 1.92519,-0.0748109 1.12949,0.129494 0.498734,0.498735 0.0565612,1.05656 -0.188694,1.81131 -0.248617,2.75138 -0.159315,3.84069 0.0139737,5.01397 0.172284,6.17228 0.178317,7.17832 -0.148165,7.85184 " style="fill-opacity:0; stroke-opacity:0.8; stroke:#00FF00; stroke-width:0.2"/>
<polyline points="17.9627,10.0427 17.1947,9.81167 16.6388,9.31609 16.2671,8.72266 15.9987,8.06948 15.738,7.34535 15.4128,6.56797 14.9992,5.83252 14.515,5.285 13.9997,5.06604 13.4956,5.25344 13.0272,5.80646 12.5917,6.55255 12.173,7.28194 11.7642,7.88213 11.3764,8.40418 11.0098,8.95418 10.6366,9.57163 10.2516,10.249 9.94858,11.0078 9.99856,11.9773 " style="fill-opacity:0; stroke-opacity:0.8; stroke:#00FF00; stroke-width:0.2"/>
<polyline points="15.8939,7.14654 15.3247,6.73777 14.9193,5.86397 14.5172,5.23215 14.0623,5.07603 13.5633,5.33853 13.0545,5.85273 12.5658,6.47986 12.1148,7.13877 11.7083,7.79248 11.344,8.43315 11.0119,9.06709 10.6965,9.70249 10.379,10.3437 10.0396,10.9881 9.66019,11.6235 9.22708,12.2254 8.74258,12.7697 8.25844,13.2841 7.918,13.9142 7.99872,14.9898 " style="fill-opacity:0; stroke-opacity:0.8; stroke:#00FF00; stroke-width:0.2"/>
<polyline points="13.1017,5.1017 12.9582,5.95822 12.652,6.65196 12.2616,7.26159 11.8408,7.84083 11.4226,8.42258 11.0229,9.02292 10.6452,9.6452 10.2841,10.2841 9.92975,10.9297 9.57166,11.5717 9.20287,12.2029 8.82252,12.8225 8.435,13.435 8.04769,14.0477 7.66875,14.6687 7.30473,15.3047 6.95836,15.9584 6.62625,16.6262 6.29656,17.2966 5.94676,17.9468 " style="fill-opacity:0; stroke-opacity:0.8; stroke:#00FF00; stroke-width:0.2"/>
<polyline points="11.0307,8.03064 10.9815,8.98151 10.756,9.75598 10.4197,10.4197 10.0226,11.0226 9.6013,11.6013 9.18005,12.18 8.77318,12.7732 8.38666,13.3867 8.01989,14.0199 7.66755,14.6675 7.32135,15.3214 6.97189,15.9719 6.61038,16.6104 6.23049,17.2305 5.83016,17.8302 5.41334,18.4133 4.99183,18.9918 4.58706,19.5871 4.23192,20.2319 3.97251,20.9725 " style="fill-opacity:0; stroke-opacity:0.8; stroke:#00FF00; stroke-width:0.2"/>
<polyline points="9.92112,11.9211 9.21176,12.2118 8.70423,12.7042 8.31432,13.3143 7.98083,13.9808 7.66231,14.6623 7.33388,15.3339 6.98398,15.984 6.61119,16.6112 6.22098,17.221 5.82252,17.8225 5.42547,18.4255 5.03733,19.0373 4.66237,19.6624 4.30099,20.301 3.9492,20.9492 3.59807,21.5981 3.2332,22.2332 2.83415,22.8341 2.37387,23.3739 1.81823,23.8182 " style="fill-opacity:0; stroke-opacity:0.8; stroke:#00FF00; stroke-width:0.2"/>
<polyline points="7.80214,14.8617 7.45332,15.3483 7.01672,15.9587 6.54821,16.5924 6.10044,17.2092 5.70989,17.8074 5.38432,18.4027 5.09739,19.0107 4.80186,19.6412 4.45003,20.2963 4.01453,20.969 3.50863,21.6418 2.99675,22.2866 2.57978,22.8698 2.37056,23.3578 2.4689,23.7233 2.93667,23.9519 3.77288,24.0478 4.88874,24.0402 6.08269,23.9895 7.01554,23.9935 " style="fill-opacity:0; stroke-opacity:0.8; stroke:#00FF00; stroke-width:0.2"/>
<polyline points="5.7097,17.8905 5.42004,18.3191 5.12678,18.9054 4.77148,19.5882 4.34169,20.3146 3.86073,21.0398 3.37744,21.7273 2.95586,22.3483 2.66501,22.8822 2.56859,23.3164 2.71477,23.6459 3.12598,23.8738 3.79292,24.0101 4.67856,24.071 5.72626,24.0761 6.86801,24.0471 8.03268,24.0056 9.15425,23.971 10.1801,23.9587 11.0791,23.9782 11.8501,24.0309 " style="fill-opacity:0; stroke-opacity:0.8; stroke:#00FF00; stroke-width:0.2"/>
<polyline points="4.3623,21.0447 3.51687,21.7344 2.89602,22.3526 2.54069,22.8803 2.46792,23.3082 2.67445,23.6346 3.14037,23.8644 3.8327,24.0079 4.70909,24.0793 5.72139,24.0953 6.8193,24.0739 7.95403,24.0328 9.08185,23.9886 10.1678,23.9549 11.1894,23.9411 12.1398,23.9512 13.0323,23.9824 13.903,24.0239 14.8152,24.0551 15.8626,24.0448 17.1729,23.9495 " style="fill-opacity:0; stroke-opacity:0.8; stroke:#00FF00; stroke-width:0.2"/>
<polyline points="2,24 3,24 4,24 5,24 6,24 7,24 8,24 9,24 10,24 11,24 12,24 13,24 14,24 15,24 16,24 17,24 18,24 19,24 20,24 21,24 22,24 " style="fill-opacity:0; stroke-opacity:0.8; stroke:#00FF00; stroke-width:0.2"/>
<polyline points="7.10899,24.008 7.90327,23.9883 8.88533,23.9911 9.95283,24.0014 11.0364,24.0102 12.0948,24.0131 13.1097,24.0091 14.0807,24.0001 15.0203,23.9896 15.9492,23.9817 16.8907,23.9801 17.8662,23.9872 18.8899,24.003 19.9639,24.0242 21.0732,24.0429 22.1806,24.046 23.2216,24.0141 24.0997,23.9201 24.681,23.7289 24.7896,23.3956 24.202,22.8653 " style="fill-opacity:0; stroke-opacity:0.8; stroke:#00FF00; stroke-width:0.2"/>
<polyline points="11.8987,23.9179 13.1213,24.0874 14.1125,24.0887 15.0108,24.0198 15.9091,23.9462 16.8601,23.9056 17.8831,23.9126 18.9695,23.9626 20.0892,24.0369 21.1966,24.1066 22.2365,24.1379 23.1505,24.0955 23.8826,23.9482 24.3858,23.6725 24.6276,23.2575 24.5966,22.7096 24.3082,22.0563 23.811,21.3514 23.1924,20.6792 22.5851,20.1588 22.1729,19.9489 " style="fill-opacity:0; stroke-opacity:0.8; stroke:#00FF00; stroke-width:0.2"/>
<polyline points="17.1934,24.103 17.7698,23.8735 18.773,23.8824 19.9763,23.9958 21.2044,24.1142 22.3285,24.1687 23.261,24.1164 23.95,23.9369 24.3748,23.6277 24.5403,23.2007 24.4718,22.6778 24.2104,22.0866 23.8072,21.4571 23.3186,20.8168 22.8007,20.1871 22.305,19.5792 21.8722,18.9899 21.5278,18.3978 21.2767,17.7587 21.098,17.0023 20.9401,16.0273 " style="fill-opacity:0; stroke-opacity:0.8; stroke:#00FF00; stroke-width:0.2"/>
<polyline points="21.8626,23.9196 23.2716,24.1646 24.1605,24.0652 24.5995,23.7251 24.6785,23.232 24.4946,22.6554 24.14,22.0444 23.6926,21.4273 23.2135,20.8153 22.7467,20.2079 22.3195,19.5981 21.9426,18.978 21.6113,18.3425 21.3101,17.6901 21.0179,17.0229 20.7135,16.3454 20.3809,15.6646 20.0154,14.9889 19.6281,14.3281 19.2523,13.6924 18.9483,13.0923 " style="fill-opacity:0; stroke-opacity:0.8; stroke:#00FF00; stroke-width:0.2"/>
<polyline points="24.1085,22.8915 23.9519,22.048 23.6482,21.3518 23.2628,20.7372 22.8429,20.1571 22.4204,19.5796 22.0142,18.9858 21.6328,18.3672 21.2771,17.7229 20.9425,17.0575 20.6221,16.3779 20.3088,15.6912 19.997,15.003 19.6834,14.3166 19.3654,13.6346 19.0411,12.9589 18.708,12.292 18.363,11.637 18.0011,10.9989 17.6148,10.3852 17.1938,9.80617 " style="fill-opacity:0; stroke-opacity:0.8; stroke:#00FF00; stroke-width:0.2"/>
<polyline points="22.0591,19.9409 21.9617,19.0383 21.7156,18.2844 21.3883,17.6117 21.0273,16.9727 20.6626,16.3374 20.3103,15.6897 19.9752,15.0248 19.6543,14.3457 19.3398,13.6602 19.0223,12.9777 18.6934,12.3066 18.3487,11.6513 17.987,11.013 17.6098,10.3902 17.2201,9.77994 16.8215,9.1785 16.4174,8.58263 16.0096,7.99041 15.5978,7.40221 15.1783,6.82171 " style="fill-opacity:0; stroke-opacity:0.8; stroke:#00FF00; stroke-width:0.2"/>
<polyline points="20.9218,16.1075 20.2614,15.698 19.8774,15.0865 19.6105,14.3927 19.3627,13.6791 19.0833,12.9713 18.7544,12.2787 18.3789,11.609 17.9719,10.9701 17.5547,10.3662 17.1476,9.7932 16.7639,9.23521 16.4054,8.66434 16.0637,8.05056 15.7235,7.37552 15.3656,6.64651 14.9708,5.91038 14.5226,5.2675 14.0113,4.88571 13.4367,5.01427 12.8118,5.99778 " style="fill-opacity:0; stroke-opacity:0.8; stroke:#00FF00; stroke-width:0.2"/>
<polyline points="19.0711,12.9363 18.6769,12.2809 18.4051,11.6346 18.0753,10.9767 17.6363,10.3489 17.1508,9.77159 16.7095,9.22726 16.3485,8.67364 16.0451,8.0642 15.7459,7.37154 15.396,6.61068 14.9674,5.86176 14.4755,5.27239 13.9654,5.00899 13.4856,5.18782 13.0614,5.80533 12.6696,6.67191 12.2398,7.43562 11.7249,7.83412 11.1983,8.03661 10.9518,8.98914 " style="fill-opacity:0; stroke-opacity:0.8; stroke:#00FF00; stroke-width:0.2"/>
<polyline points="38.8509,4.85093 38.1118,5.1118 37.1713,5.1713 36.1049,5.10494 34.9794,4.97935 33.8523,4.85228 32.7726,4.77259 31.7803,4.78026 30.9064,4.90639 30.1732,5.17318 29.594,5.59397 29.1732,6.17318 28.9064,6.90639 28.7803,7.78026 28.7726,8.77259 28.8523,9.85228 28.9794,10.9793 29.1049,12.1049 29.1713,13.1713 29.1118,14.1118 28.8509,14.8509 " style="fill-opacity:0; stroke-opacity:0.8; stroke:#00FF00; stroke-width:0.2"/>
<polyline points="34.1588,5.1588 32.8912,4.89124 31.7717,4.77174 30.8302,4.83018 30.0799,5.07985 29.5199,5.51994 29.138,6.13799 28.9124,6.91239 28.8149,7.81489 28.813,8.81304 28.8727,9.87272 28.9606,10.9606 29.0466,12.0466 29.1065,13.1065 29.1241,14.1241 29.0943,15.0943 29.0249,16.0249 28.9396,16.9396 28.8801,17.8801 28.9089,18.9089 29.1117,20.1117 " style="fill-opacity:0; stroke-opacity:0.8; stroke:#00FF00; stroke-width:0.2"/>
<polyline points="28.9415,5.05848 29.0542,5.94581 29.0618,6.9382 29.0229,7.97712 28.9767,9.02333 28.9461,10.054 28.9406,11.0594 28.9596,12.0404 28.995,13.005 29.0346,13.9654 29.0646,14.9354 29.0733,15.9267 29.0535,16.9465 29.0059,17.9941 28.9419,19.0581 28.8867,20.1133 28.8822,21.1178 28.9901,22.0099 29.2951,22.7049 29.9074,23.0926 30.9663,23.0337 " style="fill-opacity:0; stroke-opacity:0.8; stroke:#00FF00; stroke-width:0.2"/>
<polyline points="29.0917,9.9083 28.8957,11.1044 28.8994,12.1006 28.9847,13.0153 29.0724,13.9276 29.1171,14.8829 29.1022,15.8978 29.034,16.966 28.937,18.063 28.8484,19.1516 28.8128,20.1872 28.877,21.123 29.0846,21.9154 29.4709,22.5291 30.0575,22.9425 30.8469,23.1531 31.8177,23.1823 32.9188,23.0812 34.0642,22.9358 35.1281,22.8719 35.9391,23.0609 " style="fill-opacity:0; stroke-opacity:0.8; stroke:#00FF00; stroke-width:0.2"/>
<polyline points="28.8518,15.1482 29.1783,15.8217 29.1723,16.8277 29.014,17.986 28.8407,19.1593 28.7514,20.2486 28.8113,21.1887 29.0566,21.9434 29.4987,22.5013 30.1295,22.8705 30.9252,23.0748 31.8515,23.1485 32.8678,23.1322 33.9323,23.0677 35.0061,22.9939 36.0579,22.9421 37.069,22.9311 38.0372,22.9628 38.9823,23.0177 39.9499,23.0501 41.0163,22.9837 " style="fill-opacity:0; stroke-opacity:0.8; stroke:#00FF00; stroke-width:0.2"/>
<polyline points="29.125,19.8751 28.759,21.241 28.8749,22.1251 29.3433,22.6567 30.0587,22.9413 30.9367,23.0633 31.9122,23.0878 32.9371,23.0629 33.978,23.022 35.0139,22.9861 36.0345,22.9655 37.037,22.963 38.0249,22.9751 39.0053,22.9947 39.9865,23.0135 40.9762,23.0238 41.9792,23.0208 42.9947,23.0053 44.0148,22.9852 45.0219,22.9781 45.9864,23.0136 " style="fill-opacity:0; stroke-opacity:0.8; stroke:#00FF00; stroke-width:0.2"/>
<polyline points="30.9444,22.9444 32.036,23.036 33.0589,23.0589 34.0404,23.0404 35.0033,23.0033 35.9652,22.9652 36.9392,22.9392 37.9333,22.9333 38.9502,22.9502 39.9879,22.9879 41.0388,23.0388 42.0905,23.0905 43.1248,23.1248 44.1184,23.1184 45.0426,23.0426 45.8628,22.8628 46.5392,22.5392 47.0261,22.0261 47.272,21.272 47.2197,20.2197 46.8062,18.8062 " style="fill-opacity:0; stroke-opacity:0.8; stroke:#00FF00; stroke-width:0.2"/>
<polyline points="36.0745,23.0745 36.9702,22.9702 37.9153,22.9153 38.9153,22.9153 39.9625,22.9625 41.0388,23.0388 42.1182,23.1182 43.1695,23.1695 44.159,23.159 45.0532,23.0532 45.8214,22.8214 46.4384,22.4384 46.8872,21.8872 47.1615,21.1615 47.2687,20.2687 47.2321,19.2321 47.0939,18.0939 46.918,16.918 46.7922,15.7922 46.8311,14.8311 47.1789,14.1789 " style="fill-opacity:0; stroke-opacity:0.8; stroke:#00FF00; stroke-width:0.2"/>
<polyline points="40.9434,22.9435 41.9765,22.9765 43.0886,23.0886 44.163,23.163 45.1189,23.1189 45.9062,22.9062 46.5021,22.5021 46.9055,21.9055 47.1333,21.1333 47.2156,20.2156 47.1912,19.1912 47.1031,18.1031 46.9941,16.9941 46.9023,15.9023 46.8566,14.8566 46.8722,13.8722 46.9459,12.9459 47.0521,12.0521 47.1377,11.1378 47.1184,10.1184 46.8732,8.87315 " style="fill-opacity:0; stroke-opacity:0.8; stroke:#00FF00; stroke-width:0.2"/>
<polyline points="46.2189,23.1178 46.6544,22.7395 46.9232,22.029 47.0655,21.1141 47.1169,20.0907 47.1082,19.0264 47.0655,17.9649 47.0102,16.9296 46.9588,15.9281 46.9232,14.9557 46.9106,14 46.9232,13.0443 46.9588,12.0719 47.0102,11.0704 47.0655,10.0351 47.1082,8.97361 47.1169,7.90933 47.0655,6.88592 46.9232,5.97106 46.6544,5.2605 46.2189,4.88215 " style="fill-opacity:0; stroke-opacity:0.8; stroke:#00FF00; stroke-width:0.2"/>
<polyline points="46.8732,19.1268 47.1184,17.8816 47.1378,16.8623 47.0521,15.9479 46.9459,15.0541 46.8722,14.1278 46.8566,13.1434 46.9023,12.0977 46.9941,11.0059 47.1031,9.89692 47.1912,8.8088 47.2156,7.78437 47.1333,6.86666 46.9055,6.09449 46.5021,5.49791 45.9062,5.09376 45.1189,4.88115 44.163,4.83696 43.0886,4.91141 41.9765,5.0235 40.9435,5.05655 " style="fill-opacity:0; stroke-opacity:0.8; stroke:#00FF00; stroke-width:0.2"/>
<polyline points="47.1789,13.8211 46.8311,13.1689 46.7922,12.2078 46.918,11.082 47.0939,9.90606 47.2321,8.76792 47.2687,7.73131 47.1615,6.83846 46.8872,6.11279 46.4384,5.56157 45.8214,5.17858 45.0532,4.94679 44.159,4.84099 43.1695,4.83049 42.1182,4.88177 41.0388,4.96116 39.9625,5.03749 38.9153,5.08473 37.9153,5.08473 36.9702,5.02981 36.0745,4.92547 " style="fill-opacity:0; stroke-opacity:0.8; stroke:#00FF00; stroke-width:0.2"/>
<polyline points="46.8063,9.19376 47.2198,7.78026 47.272,6.72802 47.0261,5.97395 46.5392,5.4608 45.8628,5.13718 45.0426,4.95743 44.1184,4.88156 43.1248,4.87521 42.0905,4.90953 41.0388,4.96116 39.9879,5.01213 38.9502,5.04979 37.9333,5.06673 36.9392,5.06076 35.9652,5.03478 35.0033,4.99675 34.0404,4.95957 33.0589,4.94109 32.036,4.96396 30.9444,5.0556 " style="fill-opacity:0; stroke-opacity:0.8; stroke:#00FF00; stroke-width:0.2"/>
<polyline points="45.9864,4.98641 45.0219,5.02192 44.0148,5.01484 42.9947,4.99469 41.9792,4.97915 40.9762,4.97623 39.9865,4.98649 39.0053,5.00528 38.0249,5.02493 37.037,5.03699 36.0345,5.03446 35.0139,5.01394 33.978,4.97795 32.9371,4.93707 31.9122,4.91217 30.9367,4.93666 30.0587,5.05868 29.3433,5.34333 28.8749,5.87488 28.759,6.75899 29.1249,8.12494 " style="fill-opacity:0; stroke-opacity:0.8; stroke:#00FF00; stroke-width:0.2"/>
<polyline points="41.0163,5.01626 39.9499,4.94986 38.9823,4.98231 38.0372,5.03723 37.0689,5.06895 36.0579,5.05791 35.0061,5.00609 33.9323,4.93233 32.8678,4.86783 31.8515,4.85146 30.9252,4.92519 30.1295,5.12949 29.4987,5.49873 29.0566,6.05656 28.8113,6.81131 28.7514,7.75138 28.8407,8.84068 29.014,10.014 29.1723,11.1723 29.1783,12.1783 28.8518,12.8518 " style="fill-opacity:0; stroke-opacity:0.8; stroke:#00FF00; stroke-width:0.2"/>
<polyline points="20.0907,32.887 19.7272,32.2837 19.2667,31.7798 18.7867,31.2481 18.3033,30.6771 17.7975,30.121 17.2421,29.6508 16.6219,29.3164 15.9364,29.1399 15.1953,29.1195 14.4144,29.2347 13.6115,29.4516 12.8022,29.7277 11.9975,30.0192 11.2026,30.2872 10.4144,30.5047 9.62072,30.6641 8.80843,30.7864 7.99713,30.9369 7.28263,31.2445 6.88074,31.9196 " style="fill-opacity:0; stroke-opacity:0.8; stroke:#00FF00; stroke-width:0.2"/>
<polyline points="17.898,30.1666 17.3365,29.546 16.6693,29.2123 15.9358,29.0958 15.1649,29.1364 14.3764,29.2837 13.5825,29.4961 12.7897,29.741 12,29.9941 11.2129,30.239 10.4265,30.467 9.63955,30.6767 8.85278,30.8737 8.07123,31.0707 7.30625,31.2875 6.57774,31.5509 5.91629,31.8954 5.36534,32.3627 4.98339,33.002 4.84615,33.8702 5.04868,35.032 " style="fill-opacity:0; stroke-opacity:0.8; stroke:#00FF00; stroke-width:0.2"/>
<polyline points="14.2571,29.257 13.5717,29.5717 12.8553,29.8553 12.0973,30.0973 11.2981,30.2981 10.467,30.467 9.62006,30.6201 8.7783,30.7783 7.96588,30.9659 7.20799,31.208 6.529,31.529 5.95051,31.9505 5.48939,32.4894 5.15588,33.1559 4.9516,33.9516 4.86768,34.8677 4.88276,35.8828 4.96112,36.9611 5.05066,38.0507 5.08104,39.081 4.9617,39.9617 " style="fill-opacity:0; stroke-opacity:0.8; stroke:#00FF00; stroke-width:0.2"/>
<polyline points="10.0919,30.1929 9.75658,30.6715 9.04943,30.9437 8.17664,31.1281 7.28936,31.3156 6.49057,31.5724 5.84175,31.9424 5.36964,32.4502 5.07297,33.1037 4.9292,33.8967 4.90123,34.8118 4.94418,35.8231 5.01209,36.8989 5.06464,38.0044 5.07394,39.1043 5.0312,40.1658 4.95353,41.1611 4.89062,42.0702 4.93149,42.8836 5.21124,43.6052 5.91778,44.2545 " style="fill-opacity:0; stroke-opacity:0.8; stroke:#00FF00; stroke-width:0.2"/>
<polyline points="7.08761,31.845 5.8016,32.0132 5.16548,32.4247 4.93376,33.0465 4.9212,33.8432 4.99587,34.7775 5.07224,35.8117 5.10417,36.9077 5.07797,38.0291 5.00549,39.1411 4.91712,40.2121 4.85488,41.2142 4.86543,42.1246 4.99314,42.9261 5.27313,43.6081 5.72434,44.1678 6.34254,44.6108 7.09341,44.9524 7.90558,45.218 8.66368,45.4447 9.20138,45.6817 " style="fill-opacity:0; stroke-opacity:0.8; stroke:#00FF00; stroke-width:0.2"/>
<polyline points="4.93098,35.069 5.07166,35.9283 5.08622,36.9138 5.02913,37.9709 4.94813,39.0519 4.88421,40.1158 4.8716,41.1284 4.93777,42.0622 5.10344,42.8966 5.38258,43.6174 5.78239,44.2176 6.30331,44.6967 6.93903,45.061 7.67646,45.3235 8.49574,45.5043 9.37028,45.6297 10.2667,45.7333 11.1448,45.8552 11.9577,46.0423 12.6517,46.3483 13.1663,46.8338 " style="fill-opacity:0; stroke-opacity:0.8; stroke:#00FF00; stroke-width:0.2"/>
<polyline points="5.11412,39.8859 4.87095,41.1291 4.84003,42.16 4.99673,43.0033 5.31644,43.6836 5.77491,44.2251 6.34849,44.6515 7.01436,44.9856 7.7509,45.2491 8.53785,45.4621 9.35667,45.6433 10.1908,45.8092 11.0258,45.9742 11.8498,46.1502 12.6537,46.3463 13.4316,46.5684 14.1805,46.8195 14.9015,47.0985 15.599,47.401 16.2821,47.7179 16.9638,48.0362 " style="fill-opacity:0; stroke-opacity:0.8; stroke:#00FF00; stroke-width:0.2"/>
<polyline points="5.91209,44.1255 6.2356,44.7248 6.96752,44.9705 7.81918,45.1655 8.65805,45.3995 9.45344,45.6439 10.2226,45.8459 10.9883,45.9957 11.766,46.1272 12.5619,46.292 13.372,46.5326 14.1809,46.8557 14.9629,47.2169 15.6871,47.534 16.325,47.7106 16.8574,47.6613 17.2827,47.3359 17.6232,46.7444 17.9334,45.9811 18.3069,45.2496 18.8838,44.8874 " style="fill-opacity:0; stroke-opacity:0.8; stroke:#00FF00; stroke-width:0.2"/>
<polyline points="8.94819,45.9924 10.1188,46.0074 11.0514,45.9827 11.8692,46.0395 12.6461,46.2253 13.4162,46.5306 14.1837,46.9051 14.9327,47.2738 15.6368,47.5536 16.2692,47.6695 16.8122,47.5708 17.2668,47.2473 17.6571,46.7362 18.0207,46.1068 18.3936,45.4366 18.7954,44.7862 19.2147,44.176 19.6114,43.5801 19.9614,42.9657 20.3185,42.351 20.8759,41.8633 " style="fill-opacity:0; stroke-opacity:0.8; stroke:#00FF00; stroke-width:0.2"/>
<polyline points="12.9553,47.0157 14.1071,46.8477 15.0198,47.1146 15.7374,47.4457 16.3119,47.6322 16.7942,47.5858 17.2263,47.2988 17.6347,46.8088 18.0329,46.1774 18.4251,45.4758 18.8115,44.769 19.192,44.1013 19.5703,43.4873 19.9536,42.9182 20.3517,42.3736 20.776,41.834 21.2382,41.2925 21.7443,40.7585 22.2757,40.2395 22.7658,39.7148 23.0762,39.1088 " style="fill-opacity:0; stroke-opacity:0.8; stroke:#00FF00; stroke-width:0.2"/>
<polyline points="16.9661,47.9345 17.2077,47.27 17.6016,46.633 18.0378,46.0089 18.4563,45.3905 18.8358,44.7759 19.1834,44.1666 19.5237,43.5663 19.8881,42.9789 20.3043,42.4066 20.7855,41.8484 21.3199,41.2985 21.8658,40.7457 22.3612,40.1748 22.7387,39.5706 22.9405,38.9202 22.9342,38.2165 22.7273,37.4612 22.383,36.668 22.0353,35.8653 21.9038,35.0997 " style="fill-opacity:0; stroke-opacity:0.8; stroke:#00FF00; stroke-width:0.2"/>
<polyline points="18.9931,45.0346 19.2538,44.1974 19.5527,43.5123 19.9165,42.9273 20.3484,42.3974 20.8335,41.8851 21.3429,41.3608 21.8393,40.8031 22.2814,40.199 22.629,39.5446 22.8476,38.8449 22.9137,38.1147 22.8179,37.3769 22.5663,36.6578 22.1799,35.9807 21.6942,35.3591 21.1594,34.7908 20.6393,34.2507 20.2117,33.6847 19.9678,33.0033 20.0117,32.0749 " style="fill-opacity:0; stroke-opacity:0.8; stroke:#00FF00; stroke-width:0.2"/>
<polyline points="20.8423,41.8059 21.2981,41.3929 21.8348,40.8596 22.3282,40.2382 22.6985,39.5576 22.9025,38.8432 22.9279,38.1168 22.7856,37.396 22.5037,36.6937 22.1206,36.0184 21.6778,35.373 21.2139,34.755 20.7586,34.1568 20.3309,33.5685 19.938,32.981 19.5743,32.3894 19.2208,31.7967 18.8437,31.2169 18.394,30.6785 17.8067,30.2282 16.9991,29.9337 " style="fill-opacity:0; stroke-opacity:0.8; stroke:#00FF00; stroke-width:0.2"/>
<polyline points="22.9978,38.9012 23.0037,38.0813 22.7877,37.3181 22.4388,36.6098 22.0233,35.9505 21.5872,35.3311 21.159,34.7404 20.7525,34.1669 20.3696,33.5996 20.0028,33.0297 19.638,32.4514 19.2574,31.8637 18.8419,31.2713 18.3742,30.686 17.8414,30.1283 17.2374,29.6281 16.5661,29.2263 15.8441,28.9764 15.1028,28.945 14.3921,29.214 13.7823,29.881 " style="fill-opacity:0; stroke-opacity:0.8; stroke:#00FF00; stroke-width:0.2"/>
<polyline points="21.9594,35.1291 21.1753,34.6996 20.6723,34.2322 20.3114,33.704 19.9955,33.1125 19.6628,32.4718 19.2798,31.8077 18.8347,31.1537 18.3303,30.5465 17.778,30.0221 17.19,29.611 16.5736,29.3343 15.9264,29.2 15.2388,29.202 14.4986,29.3195 13.6959,29.5167 12.8283,29.7433 11.9116,29.946 11.006,30.1119 10.2481,30.3232 9.88313,30.8126 " style="fill-opacity:0; stroke-opacity:0.8; stroke:#00FF00; stroke-width:0.2"/>
<polyline points="42.0403,30.8412 41.7269,30.3755 41.1915,29.9457 40.4922,29.5739 39.6794,29.2761 38.796,29.0625 37.8785,28.9387 36.9566,28.9058 36.054,28.9617 35.1889,29.1011 34.3741,29.3169 33.6175,29.6003 32.9227,29.9417 32.2891,30.3315 31.7125,30.7604 31.1853,31.2206 30.6972,31.7062 30.2353,32.2136 29.7846,32.7428 29.3285,33.2976 28.849,33.8864 " style="fill-opacity:0; stroke-opacity:0.8; stroke:#00FF00; stroke-width:0.2"/>
<polyline points="39.0407,29.0407 37.9529,28.9529 36.9302,28.9302 35.981,28.981 35.1083,29.1083 34.3108,29.3108 33.5839,29.5839 32.9204,29.9204 32.3115,30.3115 31.7479,30.7479 31.2204,31.2204 30.7213,31.7213 30.2447,32.2447 29.7881,32.7881 29.3529,33.3529 28.9453,33.9453 28.5776,34.5776 28.2686,35.2686 28.0452,36.0452 27.9426,36.9426 28.0059,38.0059 " style="fill-opacity:0; stroke-opacity:0.8; stroke:#00FF00; stroke-width:0.2"/>
<polyline points="34.193,29.209 33.5938,29.5705 32.9895,29.9717 32.3903,30.3931 31.8047,30.8252 31.2401,31.2662 30.7027,31.7208 30.1978,32.198 29.7303,32.7095 29.3046,33.268 28.9251,33.8854 28.5967,34.5711 28.3242,35.3303 28.1137,36.162 27.9718,37.0576 27.9067,37.9987 27.9278,38.956 28.0465,39.8867 28.2761,40.7338 28.632,41.4233 29.1325,41.8631 " style="fill-opacity:0; stroke-opacity:0.8; stroke:#00FF00; stroke-width:0.2"/>
<polyline points="31.1122,31.06 30.6979,31.7625 30.2494,32.3047 29.7926,32.7921 29.3503,33.299 28.9425,33.8729 28.5859,34.5379 28.2944,35.2991 28.0784,36.1458 27.9458,37.0561 27.9011,38 27.9459,38.9439 28.0785,39.8542 28.2944,40.7009 28.5859,41.4621 28.9425,42.1271 29.3503,42.701 29.7926,43.2079 30.2494,43.6953 30.6979,44.2375 31.1121,44.94 " style="fill-opacity:0; stroke-opacity:0.8; stroke:#00FF00; stroke-width:0.2"/>
<polyline points="29.1325,34.1369 28.632,34.5767 28.2761,35.2662 28.0465,36.1133 27.9278,37.0441 27.9067,38.0013 27.9718,38.9424 28.1137,39.838 28.3242,40.6697 28.5967,41.4289 28.9251,42.1146 29.3046,42.732 29.7303,43.2905 30.1978,43.802 30.7027,44.2792 31.2401,44.7338 31.8047,45.1748 32.3903,45.6069 32.9895,46.0283 33.5938,46.4295 34.193,46.791 " style="fill-opacity:0; stroke-opacity:0.8; stroke:#00FF00; stroke-width:0.2"/>
<polyline points="28.0059,37.9941 27.9426,39.0574 28.0452,39.9548 28.2686,40.7314 28.5776,41.4224 28.9453,42.0547 29.3529,42.6471 29.7881,43.2119 30.2447,43.7553 30.7213,44.2787 31.2204,44.7796 31.7479,45.2521 32.3115,45.6885 32.9204,46.0796 33.5839,46.4161 34.3108,46.6892 35.1083,46.8917 35.981,47.019 36.9302,47.0698 37.9529,47.0471 39.0407,46.9593 " style="fill-opacity:0; stroke-opacity:0.8; stroke:#00FF00; stroke-width:0.2"/>
<polyline points="28.849,42.1136 29.3285,42.7024 29.7846,43.2572 30.2353,43.7864 30.6972,44.2938 31.1853,44.7794 31.7125,45.2396 32.2891,45.6685 32.9227,46.0583 33.6175,46.3997 34.3741,46.6831 35.1889,46.8989 36.054,47.0383 36.9566,47.0942 37.8785,47.0613 38.796,46.9375 39.6794,46.724 40.4922,46.4261 41.1915,46.0543 41.7269,45.6245 42.0403,45.1588 " style="fill-opacity:0; stroke-opacity:0.8; stroke:#00FF00; stroke-width:0.2"/>
<polyline points="31.1141,44.9147 31.7089,45.2782 32.295,45.6654 32.9168,46.0445 33.5999,46.3899 34.3545,46.681 35.1776,46.9022 36.0559,47.0426 36.9689,47.0957 37.8912,47.0586 38.7954,46.9325 39.655,46.7215 40.4472,46.4328 41.1553,46.0761 41.772,45.6634 42.3016,45.2086 42.7632,44.7273 43.1933,44.2361 43.6484,43.7526 44.2081,43.2949 44.9776,42.8814 " style="fill-opacity:0; stroke-opacity:0.8; stroke:#00FF00; stroke-width:0.2"/>
<polyline points="33.9716,46.9716 35.0123,47.0123 36.0496,47.0497 37.0527,47.0528 38.0006,47.0006 38.8808,46.8808 39.6881,46.6881 40.4229,46.4229 41.0906,46.0906 41.6993,45.6993 42.2591,45.2591 42.7808,44.7808 43.274,44.274 43.7465,43.7465 44.2023,43.2023 44.6407,42.6407 45.0548,42.0548 45.4302,41.4302 45.7434,40.7434 45.9612,39.9612 46.0383,39.0383 " style="fill-opacity:0; stroke-opacity:0.8; stroke:#00FF00; stroke-width:0.2"/>
<polyline points="39.0757,46.9747 39.7104,46.7955 40.3619,46.4677 41.0093,46.0579 41.6373,45.6111 42.2359,45.1541 42.7989,44.6982 43.3233,44.2428 43.8084,43.7777 44.2546,43.2871 44.6625,42.752 45.0324,42.1534 45.3626,41.4758 45.6494,40.7096 45.8853,39.8549 46.0585,38.9239 46.1521,37.9446 46.1429,36.9633 46.0003,36.0482 45.686,35.292 45.1523,34.8156 " style="fill-opacity:0; stroke-opacity:0.8; stroke:#00FF00; stroke-width:0.2"/>
<polyline points="42.1224,45.1416 42.7011,44.6672 43.2564,44.2326 43.7807,43.7896 44.2667,43.3038 44.7074,42.7529 45.0958,42.1253 45.4257,41.4188 45.6913,40.639 45.8878,39.7978 46.0108,38.9121 46.0572,38.0023 46.025,37.0906 45.9132,36.1999 45.7222,35.3521 45.4539,34.5669 45.1119,33.8599 44.7011,33.2416 44.2288,32.7156 43.7037,32.2775 43.137,31.913 " style="fill-opacity:0; stroke-opacity:0.8; stroke:#00FF00; stroke-width:0.2"/>
<polyline points="44.9208,42.762 45.0681,42.2288 45.3305,41.5099 45.6211,40.6725 45.8768,39.7702 46.0555,38.8446 46.1331,37.9265 46.1,37.0377 45.9591,36.192 45.7219,35.3968 45.4057,34.6545 45.0312,33.9639 44.6188,33.3214 44.1859,32.7228 43.744,32.1643 43.2955,31.6442 42.8309,31.1642 42.3257,30.7307 41.7376,30.3564 41.0031,30.0615 40.035,29.8752 " style="fill-opacity:0; stroke-opacity:0.8; stroke:#00FF00; stroke-width:0.2"/>
<polyline points="45.9627,39.0373 46.0734,37.9266 46.0524,36.9476 45.9222,36.0779 45.7026,35.2975 45.4107,34.5893 45.0612,33.9388 44.6659,33.3341 44.2341,32.7659 43.7724,32.2276 43.2847,31.7153 42.7724,31.2276 42.2341,30.7659 41.6659,30.3341 41.0612,29.9388 40.4107,29.5893 39.7026,29.2975 38.9222,29.0778 38.0524,28.9476 37.0734,28.9266 35.9627,29.0373 " style="fill-opacity:0; stroke-opacity:0.8; stroke:#00FF00; stroke-width:0.2"/>
<polyline points="45.1248,34.965 44.9385,33.9969 44.6436,33.2625 44.2693,32.6743 43.8358,32.1692 43.3558,31.7046 42.8357,31.256 42.2772,30.8141 41.6786,30.3812 41.0361,29.9688 40.3455,29.5943 39.6032,29.2781 38.808,29.0409 37.9623,28.8999 37.0735,28.8669 36.1554,28.9445 35.2298,29.1232 34.3275,29.379 33.4901,29.6695 32.7712,29.9319 32.238,30.0792 " style="fill-opacity:0; stroke-opacity:0.8; stroke:#00FF00; stroke-width:0.2"/>
<polyline points="43.087,31.863 42.7225,31.2963 42.2844,30.7712 41.7584,30.2989 41.1401,29.8882 40.4331,29.5461 39.6479,29.2778 38.8001,29.0868 37.9094,28.975 36.9977,28.9427 36.0879,28.9892 35.2022,29.1122 34.361,29.3087 33.5812,29.5743 32.8747,29.9042 32.2471,30.2927 31.6962,30.7333 31.2104,31.2193 30.7674,31.7436 30.3328,32.2989 29.8584,32.8776 " style="fill-opacity:0; stroke-opacity:0.8; stroke:#00FF00; stroke-width:0.2"/>
<polyline points="39.8952,40.1392 40.0787,38.8766 40.159,37.8129 40.1038,36.906 39.8983,36.1301 39.543,35.4735 39.0508,34.9352 38.4454,34.5221 37.758,34.2468 37.0255,34.1241 36.2878,34.1686 35.5854,34.3917 34.9573,34.7991 34.438,35.3874 34.0555,36.142 33.8289,37.0337 33.7658,38.0163 33.8598,39.0236 34.0886,39.9667 34.4109,40.731 34.7644,41.1735 " style="fill-opacity:0; stroke-opacity:0.8; stroke:#00FF00; stroke-width:0.2"/>
<polyline points="39.9223,34.9858 39.0761,35.016 38.315,34.7502 37.6019,34.4125 36.917,34.1618 36.2554,34.0997 35.6245,34.2783 35.041,34.7079 34.5284,35.3655 34.1144,36.2019 33.828,37.1502 33.6971,38.1332 33.7453,39.0718 33.99,39.8923 34.4389,40.5349 35.088,40.9608 35.9184,41.1611 36.894,41.1637 37.9585,41.0417 39.0329,40.9213 40.0127,40.9894 " style="fill-opacity:0; stroke-opacity:0.8; stroke:#00FF00; stroke-width:0.2"/>
<polyline points="36.1135,34.3211 35.6003,34.4193 35.0644,34.8037 34.5504,35.4205 34.1081,36.2085 33.7873,37.1027 33.6336,38.0367 33.6833,38.9462 33.9593,39.772 34.4655,40.4628 35.1832,40.9784 36.0656,41.2925 37.0381,41.3945 38.0081,41.2869 38.8797,40.9818 39.5681,40.497 40.0144,39.852 40.1999,39.0644 40.1606,38.1462 40.0022,37.0995 39.9143,35.9133 " style="fill-opacity:0; stroke-opacity:0.8; stroke:#00FF00; stroke-width:0.2"/>
<polyline points="34.2057,36.9478 33.793,38.1345 33.7005,39.1062 33.9247,39.8982 34.4317,40.5254 35.1642,40.9879 36.0493,41.2763 37.005,41.3765 37.9482,41.276 38.8015,40.9681 39.5005,40.4583 40.0011,39.7685 40.2839,38.9402 40.3513,38.0303 40.2221,37.1034 39.9265,36.2257 39.4997,35.4574 38.9772,34.8456 38.3888,34.4179 37.7531,34.1744 37.0721,34.0815 " style="fill-opacity:0; stroke-opacity:0.8; stroke:#00FF00; stroke-width:0.2"/>
<polyline points="34.9066,40.8451 36.0698,41.0834 37.1522,41.2295 38.1093,41.2014 38.9097,40.9582 39.5332,40.494 39.9696,39.8309 40.2175,39.0128 40.2828,38.0982 40.1771,37.1539 39.9166,36.2483 39.5207,35.4447 39.0105,34.7958 38.409,34.3401 37.7408,34.0997 37.0315,34.0781 36.3083,34.2572 35.5994,34.5959 34.9343,35.0266 34.3433,35.4541 33.8576,35.752 " style="fill-opacity:0; stroke-opacity:0.8; stroke:#00FF00; stroke-width:0.2"/>
<polyline points="40.0102,41.0619 39.9475,39.9757 40.0177,38.9116 40.0905,37.9004 40.0761,36.9691 39.9208,36.1414 39.6011,35.437 39.1194,34.8722 38.4983,34.4598 37.7758,34.2087 37,34.1244 36.2242,34.2087 35.5017,34.4598 34.8806,34.8722 34.3989,35.437 34.0792,36.1414 33.9239,36.9692 33.9095,37.9004 33.9823,38.9116 34.0525,39.9757 33.9898,41.0619 " style="fill-opacity:0; stroke-opacity:0.8; stroke:#00FF00; stroke-width:0.2"/>
</svg>
