<?xml version="1.0" standalone="no"?>
<!DOCTYPE svg PUBLIC "-//W3C//DTD SVG 1.1//EN"
"http://www.w3.org/Graphics/SVG/1.1/DTD/svg11.dtd">
<svg width="224" height="225" version="1.1" xmlns:xlink="http://www.w3.org/1999/xlink" xmlns="http://www.w3.org/2000/svg">

<polyline points="15.994,0.994024 14.7886,0.788607 13.5759,0.575894 12.3642,0.364177 11.1617,0.161747 9.9769,-0.0231035 8.81792,-0.182083 7.6931,-0.306901 6.61074,-0.389263 5.57912,-0.42088 4.60654,-0.393459 3.70129,-0.298708 2.87167,-0.128335 2.12595,0.125951 1.47244,0.472441 0.91943,0.919429 0.472441,1.47244 0.125951,2.12595 -0.128336,2.87167 -0.298708,3.70129 -0.393459,4.60654 -0.420881,5.57912 -0.389264,6.61074 -0.306901,7.6931 -0.182084,8.81792 -0.0231041,9.9769 0.161747,11.1617 0.364177,12.3642 0.575895,13.5759 0.788608,14.7886 0.994026,15.994 " style="fill-opacity:0; stroke-opacity:0.8; stroke:#00ff00; stroke-width:0.2"/>
<polyline points="3.44156,-1.55844 2.78462,-1.21539 2.20866,-0.791345 1.7088,-0.2912 1.28017,0.280169 0.917885,0.917885 0.617068,1.61707 0.372841,2.37284 0.180324,3.18032 0.0346392,4.03464 -0.0690924,4.93091 -0.135749,5.86425 -0.170209,6.82979 -0.177352,7.82265 -0.162056,8.83794 -0.129199,9.8708 -0.0836598,10.9163 -0.0303174,11.9697 0.0259496,13.0259 0.0802628,14.0803 0.127744,15.1277 0.163513,16.1635 0.182694,17.1827 0.180406,18.1804 0.151771,19.1518 0.0919116,20.0919 -0.00405228,20.9959 -0.140998,21.859 -0.323806,22.6762 -0.557352,23.4426 -0.846518,24.1535 " style="fill-opacity:0; stroke-opacity:0.8; stroke:#00ff00; stroke-width:0.2"/>
<polyline points="0,5 0,6 0,7 0,8 0,9 0,10 0,11 0,12 0,13 0,14 0,15 0,16 0,17 0,18 0,19 0,20 0,21 0,22 0,23 0,24 0,25 0,26 0,27 0,28 0,29 0,30 0,31 0,32 0,33 0,34 0,35 " style="fill-opacity:0; stroke-opacity:0.8; stroke:#00ff00; stroke-width:0.2"/>
<polyline points="0,15 0,16 0,17 0,18 0,19 0,20 0,21 0,22 0,23 0,24 0,25 0,26 0,27 0,28 0,29 0,30 0,31 0,32 0,33 0,34 0,35 0,36 0,37 0,38 0,39 0,40 0,41 0,42 0,43 0,44 0,45 " style="fill-opacity:0; stroke-opacity:0.8; stroke:#00ff00; stroke-width:0.2"/>
<polyline points="-0.610274,25.6103 -0.405324,26.4053 -0.239144,27.2391 -0.108393,28.1084 -0.00972883,29.0097 0.0601887,29.9398 0.104701,30.8953 0.12715,31.8728 0.130876,32.8691 0.11922,33.8808 0.0955248,34.9045 0.0631303,35.9369 0.0253782,36.9746 -0.0143903,38.0144 -0.0528341,39.0528 -0.086612,40.0866 -0.112382,41.1124 -0.126805,42.1268 -0.126537,43.1265 -0.108238,44.1082 -0.0685674,45.0686 -0.00418311,46.0042 0.0882557,46.9117 0.21209,47.7879 0.370662,48.6293 0.567312,49.4327 0.805382,50.1946 1.08821,50.9118 1.41915,51.5808 1.80152,52.1985 2.23868,52.7613 " style="fill-opacity:0; stroke-opacity:0.8; stroke:#00ff00; stroke-width:0.2"/>
<polyline points="0.496007,34.504 0.487786,35.5122 0.433662,36.5663 0.344465,37.6555 0.231029,38.769 0.104186,39.8958 -0.0252333,41.0252 -0.146396,42.1464 -0.24847,43.2485 -0.320623,44.3206 -0.352024,45.352 -0.331839,46.3318 -0.249239,47.2492 -0.0933892,48.0934 0.146541,48.8535 0.481384,49.5186 0.919361,50.0806 1.45824,50.5418 2.09318,50.9068 2.81935,51.1807 3.6319,51.3681 4.52599,51.474 5.49678,51.5032 6.53943,51.4606 7.6491,51.3509 8.82095,51.179 10.0501,50.9499 11.3318,50.6682 12.6612,50.3388 14.0333,49.9667 15.4435,49.5565 " style="fill-opacity:0; stroke-opacity:0.8; stroke:#00ff00; stroke-width:0.2"/>
<polyline points="-1.12406,46.124 -1.02996,47.0299 -0.826403,47.8264 -0.519882,48.5199 -0.116893,49.1169 0.376069,49.6239 0.952509,50.0475 1.60593,50.3941 2.32985,50.6702 3.11775,50.8823 3.96316,51.0368 4.85957,51.1404 5.80049,51.1995 6.77943,51.2206 7.78989,51.2101 8.82537,51.1746 9.87939,51.1206 10.9454,51.0546 12.017,50.983 13.0877,50.9123 14.1509,50.8491 15.2001,50.7999 16.229,50.771 17.2308,50.7692 18.1993,50.8007 19.1278,50.8722 20.01,50.99 20.8392,51.1608 21.609,51.391 22.3129,51.6871 22.9444,52.0556 " style="fill-opacity:0; stroke-opacity:0.8; stroke:#00ff00; stroke-width:0.2"/>
<polyline points="4,51 5,51 6,51 7,51 8,51 9,51 10,51 11,51 12,51 13,51 14,51 15,51 16,51 17,51 18,51 19,51 20,51 21,51 22,51 23,51 24,51 25,51 26,51 27,51 28,51 29,51 30,51 31,51 32,51 33,51 34,51 " style="fill-opacity:0; stroke-opacity:0.8; stroke:#00ff00; stroke-width:0.2"/>
<polyline points="14,51 15,51 16,51 17,51 18,51 19,51 20,51 21,51 22,51 23,51 24,51 25,51 26,51 27,51 28,51 29,51 30,51 31,51 32,51 33,51 34,51 35,51 36,51 37,51 38,51 39,51 40,51 41,51 42,51 43,51 44,51 " style="fill-opacity:0; stroke-opacity:0.8; stroke:#00ff00; stroke-width:0.2"/>
<polyline points="24.6103,51.6103 25.4053,51.4053 26.2391,51.2391 27.1084,51.1084 28.0097,51.0097 28.9398,50.9398 29.8953,50.8953 30.8729,50.8729 31.8691,50.8691 32.8808,50.8808 33.9045,50.9045 34.9369,50.9369 35.9746,50.9746 37.0144,51.0144 38.0528,51.0528 39.0866,51.0866 40.1124,51.1124 41.1268,51.1268 42.1265,51.1265 43.1082,51.1082 44.0686,51.0686 45.0042,51.0042 45.9117,50.9117 46.7879,50.7879 47.6293,50.6293 48.4327,50.4327 49.1946,50.1946 49.9118,49.9118 50.5809,49.5808 51.1985,49.1985 51.7613,48.7613 " style="fill-opacity:0; stroke-opacity:0.8; stroke:#00ff00; stroke-width:0.2"/>
<polyline points="33.504,50.504 34.5122,50.5122 35.5664,50.5664 36.6555,50.6555 37.769,50.769 38.8958,50.8958 40.0252,51.0252 41.1464,51.1464 42.2485,51.2485 43.3206,51.3206 44.352,51.352 45.3318,51.3318 46.2492,51.2492 47.0934,51.0934 47.8535,50.8535 48.5186,50.5186 49.0806,50.0806 49.5418,49.5418 49.9068,48.9068 50.1807,48.1807 50.3681,47.3681 50.474,46.474 50.5032,45.5032 50.4606,44.4606 50.3509,43.3509 50.1791,42.1791 49.9499,40.9499 49.6682,39.6682 49.3388,38.3388 48.9667,36.9667 48.5565,35.5565 " style="fill-opacity:0; stroke-opacity:0.8; stroke:#00ff00; stroke-width:0.2"/>
<polyline points="45.124,52.124 46.0299,52.0299 46.8264,51.8264 47.5199,51.5199 48.1169,51.1169 48.6239,50.6239 49.0475,50.0475 49.3941,49.3941 49.6702,48.6701 49.8823,47.8822 50.0368,47.0368 50.1404,46.1404 50.1995,45.1995 50.2206,44.2206 50.2101,43.2101 50.1746,42.1746 50.1206,41.1206 50.0546,40.0546 49.983,38.983 49.9123,37.9123 49.8491,36.8491 49.7999,35.7999 49.771,34.771 49.7692,33.7692 49.8007,32.8007 49.8721,31.8722 49.99,30.99 50.1608,30.1608 50.391,29.391 50.6871,28.6871 51.0556,28.0556 " style="fill-opacity:0; stroke-opacity:0.8; stroke:#00ff00; stroke-width:0.2"/>
<polyline points="50,47 50,46 50,45 50,44 50,43 50,42 50,41 50,40 50,39 50,38 50,37 50,36 50,35 50,34 50,33 50,32 50,31 50,30 50,29 50,28 50,27 50,26 50,25 50,24 50,23 50,22 50,21 50,20 50,19 50,18 50,17 " style="fill-opacity:0; stroke-opacity:0.8; stroke:#00ff00; stroke-width:0.2"/>
<polyline points="50,37 50,36 50,35 50,34 50,33 50,32 50,31 50,30 50,29 50,28 50,27 50,26 50,25 50,24 50,23 50,22 50,21 50,20 50,19 50,18 50,17 50,16 50,15 50,14 50,13 50,12 50,11 50,10 50,9 50,8 50,7 " style="fill-opacity:0; stroke-opacity:0.8; stroke:#00ff00; stroke-width:0.2"/>
<polyline points="50.3841,26.6159 50.2569,25.7432 50.1534,24.8466 50.0716,23.9284 50.0096,22.9904 49.9652,22.0348 49.9366,21.0634 49.9216,20.0784 49.9182,19.0818 49.9245,18.0756 49.9383,17.0617 49.9578,16.0422 49.9808,15.0192 50.0053,13.9947 50.0294,12.9706 50.0511,11.9489 50.0682,10.9318 50.0788,9.92124 50.0808,8.9192 50.0723,7.92772 50.0512,6.94881 50.0155,5.9845 49.9632,5.0368 49.8923,4.10774 49.8007,3.19933 49.6864,2.31359 49.5475,1.45254 49.3818,0.618193 49.1874,-0.187429 48.9623,-0.962308 48.7044,-1.70443 " style="fill-opacity:0; stroke-opacity:0.8; stroke:#00ff00; stroke-width:0.2"/>
<polyline points="49.9509,17.0492 49.8037,16.1963 49.7284,15.2717 49.7128,14.2872 49.7451,13.2549 49.8132,12.1868 49.9052,11.0948 50.0091,9.99088 50.113,8.88705 50.2047,7.79527 50.2725,6.72753 50.3042,5.69579 50.288,4.71205 50.2117,3.78828 50.0636,2.93645 49.8315,2.16855 49.5056,1.49445 49.0843,0.915686 48.5683,0.431685 47.9581,0.041881 47.2543,-0.254297 46.4574,-0.457417 45.5681,-0.568047 44.5868,-0.586756 43.5141,-0.514113 42.3507,-0.350685 41.097,-0.0970417 39.7537,0.246248 38.3214,0.678618 36.8005,1.1995 35.1917,1.80832 " style="fill-opacity:0; stroke-opacity:0.8; stroke:#00ff00; stroke-width:0.2"/>
<polyline points="50.5095,6.49052 50.6771,5.32293 50.707,4.29299 50.6073,3.39269 50.386,2.61402 50.051,1.94895 49.6105,1.38949 49.0724,0.927602 48.4447,0.555286 47.7355,0.264525 46.9527,0.0473042 46.1044,-0.104389 45.1986,-0.19857 44.2433,-0.243252 43.2464,-0.246449 42.2162,-0.216176 41.1604,-0.160446 40.0873,-0.0872726 39.0047,-0.00467097 37.9207,0.0793453 36.8432,0.156763 35.7804,0.219567 34.7402,0.259743 33.7307,0.269279 32.7598,0.240159 31.8356,0.16437 30.9661,0.0338971 30.1593,-0.159272 29.4232,-0.423154 28.7658,-0.76576 28.1951,-1.19511 " style="fill-opacity:0; stroke-opacity:0.8; stroke:#00ff00; stroke-width:0.2"/>
<polyline points="47,0 46,0 45,0 44,0 43,0 42,0 41,0 40,0 39,0 38,0 37,0 36,0 35,0 34,0 33,0 32,0 31,0 30,0 29,0 28,0 27,0 26,0 25,0 24,0 23,0 22,0 21,0 20,0 19,0 18,0 17,0 " style="fill-opacity:0; stroke-opacity:0.8; stroke:#00ff00; stroke-width:0.2"/>
<polyline points="37,0 36,0 35,0 34,0 33,0 32,0 31,0 30,0 29,0 28,0 27,0 26,0 25,0 24,0 23,0 22,0 21,0 20,0 19,0 18,0 17,0 16,0 15,0 14,0 13,0 12,0 11,0 10,0 9,0 8,0 7,0 " style="fill-opacity:0; stroke-opacity:0.8; stroke:#00ff00; stroke-width:0.2"/>
<polyline points="26.6159,-0.384092 25.7432,-0.256853 24.8466,-0.153365 23.9284,-0.0716101 22.9904,-0.00956983 22.0348,0.034774 21.0634,0.0634397 20.0784,0.0784456 19.0818,0.0818101 18.0756,0.0755513 17.0617,0.0616877 16.0422,0.0422374 15.0192,0.0192189 13.9947,-0.0053495 12.9706,-0.0294497 11.9489,-0.0510632 10.9318,-0.0681718 9.92124,-0.0787572 8.9192,-0.0808011 7.92772,-0.0722851 6.94881,-0.0511911 5.9845,-0.0155005 5.0368,0.0368047 4.10774,0.107743 3.19933,0.199333 2.31359,0.313592 1.45254,0.452539 0.618193,0.618192 -0.187429,0.81257 -0.962308,1.03769 -1.70443,1.29557 " style="fill-opacity:0; stroke-opacity:0.8; stroke:#00ff00; stroke-width:0.2"/>
<polyline points="17.0492,0.0491738 16.1963,0.196319 15.2717,0.271676 14.2872,0.287224 13.2549,0.25494 12.1868,0.186803 11.0948,0.0947884 9.99088,-0.00912446 8.88704,-0.112958 7.79527,-0.204735 6.72752,-0.272478 5.69579,-0.304209 4.71205,-0.28795 3.78828,-0.211723 2.93645,-0.063551 2.16855,0.168544 1.49445,0.494449 0.915686,0.915685 0.431685,1.43169 0.0418809,2.04188 -0.254297,2.7457 -0.457417,3.54258 -0.568047,4.43195 -0.586757,5.41324 -0.514113,6.48589 -0.350685,7.64931 -0.0970417,8.90296 0.246249,10.2462 0.678618,11.6786 1.1995,13.1995 1.80832,14.8083 " style="fill-opacity:0; stroke-opacity:0.8; stroke:#00ff00; stroke-width:0.2"/>
<polyline points="19.1329,13.9103 18.8806,13.3459 18.6024,12.7024 18.3003,11.9988 17.9763,11.2538 17.6324,10.4861 17.2705,9.71469 16.8926,8.95826 16.5008,8.23565 16.097,7.56566 15.6832,6.9671 15.2613,6.45877 14.8334,6.05947 14.4014,5.78802 13.9673,5.66321 13.5332,5.70385 13.1007,5.92133 12.6715,6.29737 12.2466,6.80625 11.8274,7.42228 11.4151,8.11974 11.0109,8.87295 10.6162,9.65618 10.2321,10.4437 9.85994,11.2099 9.50098,11.929 9.15646,12.5753 8.82763,13.1231 8.51575,13.5468 8.22208,13.8205 7.94788,13.9186 " style="fill-opacity:0; stroke-opacity:0.8; stroke:#00ff00; stroke-width:0.2"/>
<polyline points="15.8574,5.05844 15.3561,5.12136 14.8703,5.25494 14.3991,5.45486 13.9415,5.71677 13.4966,6.03638 13.0635,6.40933 12.6412,6.83132 12.2288,7.29801 11.8253,7.80509 11.4298,8.34822 11.0414,8.92308 10.6592,9.52535 10.2821,10.1507 9.90932,10.7948 9.53984,11.4533 9.17275,12.122 8.80711,12.7964 8.44198,13.4723 8.07642,14.1453 7.7095,14.8111 7.34027,15.4654 6.96781,16.1038 6.59117,16.7221 6.20941,17.3159 5.82161,17.8809 5.42681,18.4127 5.02409,18.9071 4.61251,19.3596 4.19112,19.766 3.759,20.122 " style="fill-opacity:0; stroke-opacity:0.8; stroke:#00ff00; stroke-width:0.2"/>
<polyline points="10.2503,8.94332 10.2747,9.38936 10.2229,9.87051 10.1016,10.3836 9.91753,10.9256 9.6772,11.4934 9.38727,12.0837 9.05439,12.6936 8.68518,13.3198 8.28628,13.9593 7.86433,14.6088 7.42596,15.2654 6.9778,15.9259 6.52649,16.5871 6.07866,17.246 5.64095,17.8993 5.21998,18.5441 4.82241,19.1771 4.45485,19.7953 4.12394,20.3954 3.83633,20.9745 3.59863,21.5293 3.41749,22.0568 3.29954,22.5539 3.25141,23.0173 3.27974,23.444 3.39117,23.8308 3.59231,24.1747 3.88983,24.4725 4.29033,24.7211 4.80047,24.9174 " style="fill-opacity:0; stroke-opacity:0.8; stroke:#00ff00; stroke-width:0.2"/>
<polyline points="8.01685,14.5146 7.76922,15.1096 7.42114,15.7422 6.99314,16.4039 6.50575,17.0862 5.97952,17.7805 5.43497,18.4782 4.89263,19.1709 4.37305,19.8499 3.89676,20.5067 3.48429,21.1329 3.15617,21.7197 2.93294,22.2587 2.83514,22.7414 2.88329,23.1592 3.09794,23.5035 3.49282,23.7687 4.05457,23.9608 4.76303,24.0888 5.59802,24.1616 6.53938,24.188 7.56697,24.1769 8.6606,24.1374 9.80012,24.0784 10.9654,24.0086 12.1362,23.9372 13.2924,23.8729 14.4139,23.8247 15.4804,23.8015 16.4719,23.8122 17.3681,23.8658 " style="fill-opacity:0; stroke-opacity:0.8; stroke:#00ff00; stroke-width:0.2"/>
<polyline points="2.0701,22.0558 2.06312,22.4053 2.18582,22.7147 2.42999,22.9862 2.78744,23.2221 3.24997,23.4245 3.80938,23.5956 4.45747,23.7377 5.18604,23.853 5.98689,23.9436 6.85183,24.0118 7.77266,24.0598 8.74118,24.0897 9.74918,24.1039 10.7885,24.1045 11.8509,24.0937 12.9282,24.0737 14.0121,24.0467 15.0946,24.015 16.1674,23.9807 17.2223,23.946 18.2511,23.9132 19.2455,23.8845 20.1975,23.8621 21.0988,23.8481 21.9412,23.8449 22.7166,23.8545 23.4166,23.8792 24.0331,23.9213 24.558,23.9828 24.9829,24.0661 " style="fill-opacity:0; stroke-opacity:0.8; stroke:#00ff00; stroke-width:0.2"/>
<polyline points="8.32005,24.5739 8.63954,24.2712 9.14572,24.0533 9.8155,23.9093 10.6258,23.8287 11.5535,23.8007 12.5754,23.8146 13.6686,23.8599 14.8099,23.9258 15.9762,24.0015 17.1445,24.0766 18.2915,24.1402 19.3942,24.1816 20.4296,24.1903 21.3745,24.1555 22.2058,24.0665 22.9042,23.9145 23.4649,23.6984 23.8872,23.4188 24.1701,23.0763 24.3128,22.6717 24.3142,22.2055 24.1736,21.6786 23.8899,21.0914 23.4661,20.446 22.9198,19.7486 22.2722,19.007 21.5449,18.2286 20.7592,17.4211 19.9363,16.5921 19.0978,15.7491 " style="fill-opacity:0; stroke-opacity:0.8; stroke:#00ff00; stroke-width:0.2"/>
<polyline points="16.4523,23.8442 18.14,24.1054 19.5814,24.2648 20.7915,24.3283 21.7853,24.3015 22.5779,24.1903 23.1842,24.0003 23.6194,23.7374 23.8984,23.4074 24.0363,23.016 24.0481,22.569 23.9489,22.0721 23.7536,21.5311 23.4773,20.9519 23.1351,20.34 22.7419,19.7015 22.3122,19.0417 21.8581,18.3655 21.3912,17.6777 20.9229,16.9827 20.4647,16.2853 20.0283,15.59 19.625,14.9016 19.2664,14.2246 18.964,13.5637 18.7294,12.9235 18.574,12.3087 18.5094,11.7239 18.5471,11.1737 18.6986,10.6628 18.9754,10.1958 " style="fill-opacity:0; stroke-opacity:0.8; stroke:#00ff00; stroke-width:0.2"/>
<polyline points="24.2994,22.5694 23.8983,22.0131 23.5085,21.4377 23.1288,20.845 22.7583,20.2367 22.3959,19.6143 22.0407,18.9797 21.6915,18.3344 21.3474,17.6802 21.0073,17.0186 20.6703,16.3515 20.3352,15.6804 20.0011,15.007 19.6669,14.3331 19.3316,13.6602 18.9943,12.9901 18.6537,12.3244 18.309,11.6649 17.9592,11.0131 17.6031,10.3707 17.2397,9.73951 16.8681,9.1211 16.4872,8.51716 16.096,7.92937 15.6934,7.35941 15.2785,6.80894 14.8502,6.27965 14.4074,5.7732 13.9493,5.29128 13.4746,4.83554 12.9825,4.40768 " style="fill-opacity:0; stroke-opacity:0.8; stroke:#00ff00; stroke-width:0.2"/>
<polyline points="20.754,15.1464 20.396,15.0311 20.0423,14.7744 19.6916,14.3937 19.3428,13.9064 18.9947,13.33 18.6461,12.6819 18.2957,11.9796 17.9423,11.2404 17.5848,10.4818 17.222,9.72119 16.8525,8.97606 16.4754,8.26381 16.0892,7.60187 15.6929,7.00767 15.2853,6.49864 14.8656,6.09258 14.4354,5.80876 13.9969,5.66684 13.5521,5.68646 13.1036,5.8807 12.6557,6.23635 12.2132,6.73362 11.7808,7.35273 11.3634,8.07182 10.9651,8.86073 10.5905,9.68721 10.2437,10.519 9.92916,11.324 9.65114,12.0698 9.41398,12.7242 " style="fill-opacity:0; stroke-opacity:0.8; stroke:#00ff00; stroke-width:0.2"/>
<polyline points="44.994,5.99402 43.7886,5.7886 42.5759,5.57589 41.3642,5.36418 40.1618,5.16175 38.9769,4.9769 37.8179,4.81792 36.6931,4.6931 35.6107,4.61074 34.5791,4.57912 33.6065,4.60654 32.7013,4.70129 31.8717,4.87167 31.126,5.12595 30.4724,5.47244 29.9194,5.91943 29.4724,6.47244 29.126,7.12595 28.8717,7.87167 28.7013,8.70129 28.6065,9.60654 28.5791,10.5791 28.6107,11.6107 28.6931,12.6931 28.8179,13.8179 28.9769,14.9769 29.1617,16.1617 29.3642,17.3642 29.5759,18.5759 29.7886,19.7886 29.994,20.994 " style="fill-opacity:0; stroke-opacity:0.8; stroke:#00ff00; stroke-width:0.2"/>
<polyline points="31.2465,4.63667 31.0189,4.55038 30.7855,4.63181 30.5495,4.86807 30.3141,5.24627 30.0823,5.75352 29.8572,6.37691 29.6421,7.10356 29.4401,7.92058 29.2542,8.81507 29.0877,9.77414 28.9436,10.7849 28.8251,11.8345 28.7354,12.9099 28.6775,13.9984 28.6546,15.087 28.6699,16.1628 28.7264,17.2129 28.8274,18.2245 28.9759,19.1847 29.175,20.0804 29.428,20.899 29.738,21.6274 30.108,22.2528 30.5413,22.7623 31.0409,23.143 31.61,23.3819 32.2517,23.4663 32.9692,23.3832 33.7656,23.1197 34.644,22.663 " style="fill-opacity:0; stroke-opacity:0.8; stroke:#00ff00; stroke-width:0.2"/>
<polyline points="30.8083,8.19169 30.1995,9.80051 29.6786,11.3214 29.2463,12.7538 28.903,14.097 28.6493,15.3507 28.4859,16.5141 28.4132,17.5868 28.432,18.568 28.5426,19.4574 28.7457,20.2543 29.0419,20.9581 29.4317,21.5683 29.9157,22.0843 30.4944,22.5056 31.1685,22.8315 31.9365,23.0636 32.7883,23.2117 33.7121,23.288 34.6958,23.3042 35.7275,23.2725 36.7953,23.2047 37.887,23.113 38.9909,23.0091 40.0948,22.9052 41.1868,22.8132 42.2549,22.7451 43.2872,22.7128 44.2717,22.7283 45.1963,22.8037 46.0492,22.9508 " style="fill-opacity:0; stroke-opacity:0.8; stroke:#00ff00; stroke-width:0.2"/>
<polyline points="28.4038,22.8126 28.7047,22.6293 29.1364,22.5112 29.6868,22.4504 30.3441,22.4391 31.0963,22.4691 31.9313,22.5326 32.8371,22.6216 33.8018,22.7282 34.8134,22.8444 35.8599,22.9623 36.9293,23.0738 38.0096,23.1712 39.0888,23.2463 40.155,23.2913 41.1961,23.2983 42.2003,23.2592 43.1553,23.166 44.0494,23.011 44.8705,22.786 45.6066,22.4832 46.2457,22.0946 46.7759,21.6123 47.1852,21.0283 47.4614,20.3346 47.5928,19.5233 47.5673,18.5864 47.3729,17.5161 46.9975,16.3043 46.4294,14.9431 45.6563,13.4245 " style="fill-opacity:0; stroke-opacity:0.8; stroke:#00ff00; stroke-width:0.2"/>
<polyline points="33.8977,20.7664 35.7997,21.711 37.5168,22.463 39.0582,23.032 40.4327,23.4277 41.6495,23.6598 42.7175,23.7379 43.6459,23.6718 44.4435,23.4711 45.1195,23.1455 45.6829,22.7046 46.1426,22.1582 46.5078,21.516 46.7875,20.7875 46.9907,19.9825 47.1263,19.1107 47.2035,18.1817 47.2313,17.2052 47.2187,16.191 47.1747,15.1485 47.1084,14.0877 47.0288,13.018 46.9449,11.9492 46.8657,10.8911 46.8003,9.85314 46.7577,8.84514 46.7469,7.87676 46.777,6.95765 46.857,6.09751 46.9958,5.30601 47.2027,4.59283 " style="fill-opacity:0; stroke-opacity:0.8; stroke:#00ff00; stroke-width:0.2"/>
<polyline points="47.2026,23.4072 46.9958,22.694 46.8569,21.9025 46.777,21.0423 46.7469,20.1232 46.7577,19.1549 46.8003,18.1469 46.8657,17.1089 46.9449,16.0508 47.0288,14.982 47.1084,13.9123 47.1748,12.8515 47.2187,11.809 47.2313,10.7948 47.2035,9.81828 47.1263,8.88929 46.9907,8.01747 46.7875,7.21248 46.5078,6.48402 46.1426,5.84176 45.6829,5.29537 45.1195,4.85453 44.4435,4.52892 43.6458,4.32822 42.7175,4.2621 41.6495,4.34024 40.4327,4.57232 39.0582,4.96801 37.5168,5.537 35.7997,6.28896 33.8977,7.23357 " style="fill-opacity:0; stroke-opacity:0.8; stroke:#00ff00; stroke-width:0.2"/>
<polyline points="45.6563,14.5755 46.4294,13.0569 46.9976,11.6957 47.3729,10.4839 47.5673,9.41357 47.5928,8.47672 47.4615,7.66543 47.1852,6.97174 46.7759,6.38769 46.2458,5.90535 45.6066,5.51676 44.8705,5.21396 44.0494,4.98901 43.1553,4.83396 42.2002,4.74085 41.1961,4.70173 40.155,4.70865 39.0888,4.75367 38.0096,4.82882 36.9293,4.92616 35.8599,5.03774 34.8134,5.15561 33.8018,5.27181 32.8371,5.3784 31.9312,5.46741 31.0963,5.53091 30.3441,5.56094 29.6868,5.54955 29.1363,5.48879 28.7047,5.37071 28.4038,5.18735 " style="fill-opacity:0; stroke-opacity:0.8; stroke:#00ff00; stroke-width:0.2"/>
<polyline points="46.0492,5.04917 45.1963,5.19632 44.2717,5.27168 43.2872,5.28722 42.2549,5.25494 41.1868,5.1868 40.0948,5.09479 38.9909,4.99087 37.8871,4.88704 36.7953,4.79527 35.7275,4.72752 34.6958,4.69579 33.7121,4.71205 32.7883,4.78828 31.9365,4.93645 31.1685,5.16855 30.4944,5.49445 29.9157,5.91569 29.4317,6.43169 29.0419,7.04188 28.7457,7.7457 28.5426,8.54258 28.4319,9.43195 28.4132,10.4132 28.4859,11.4859 28.6493,12.6493 28.903,13.903 29.2462,15.2462 29.6786,16.6786 30.1995,18.1995 30.8083,19.8083 " style="fill-opacity:0; stroke-opacity:0.8; stroke:#00ff00; stroke-width:0.2"/>
<polyline points="21.0077,37.4642 21.0209,36.289 20.9469,35.221 20.7907,34.2563 20.5574,33.3916 20.2519,32.623 19.8793,31.9471 19.4448,31.3602 18.9531,30.8587 18.4096,30.439 17.819,30.0974 17.1866,29.8305 16.5173,29.6345 15.8161,29.5058 15.0882,29.4409 14.3384,29.4361 13.572,29.4878 12.7938,29.5924 12.009,29.7463 11.2225,29.9459 10.4395,30.1876 9.66483,30.4677 8.90368,30.7826 8.16104,31.1288 7.44193,31.5027 6.75141,31.9005 6.09449,32.3187 5.47622,32.7538 4.90164,33.202 4.37576,33.6598 3.90364,34.1235 " style="fill-opacity:0; stroke-opacity:0.8; stroke:#00ff00; stroke-width:0.2"/>
<polyline points="18.6696,29.6568 17.8333,29.6042 16.9809,29.5658 16.1175,29.5446 15.2483,29.5439 14.3786,29.5668 13.5135,29.6163 12.6583,29.6956 11.8181,29.8079 10.9982,29.9562 10.2038,30.1438 9.43998,30.3737 8.71208,30.649 8.02526,30.973 7.38472,31.3486 6.79567,31.7792 6.26313,32.2675 5.79134,32.816 5.38437,33.4267 5.04628,34.1019 4.78114,34.8436 4.59301,35.654 4.48595,36.5352 4.46402,37.4895 4.53129,38.5189 4.69181,39.6255 4.94966,40.8116 5.30889,42.0792 5.77358,43.4306 6.34777,44.8677 7.03553,46.3929 " style="fill-opacity:0; stroke-opacity:0.8; stroke:#00ff00; stroke-width:0.2"/>
<polyline points="9.69256,30.4926 9.00057,30.369 8.35505,30.4114 7.75719,30.6064 7.20818,30.9405 6.70919,31.4001 6.26142,31.9719 5.86606,32.6423 5.52429,33.3978 5.23729,34.2249 5.00626,35.1102 4.83238,36.0401 4.71685,37.0011 4.66084,37.9798 4.66554,38.9627 4.73214,39.9363 4.86183,40.8871 5.05579,41.8015 5.31522,42.6662 5.64129,43.4675 6.0352,44.1921 6.49813,44.8264 7.03127,45.357 7.6358,45.7703 8.31292,46.0529 9.06381,46.1912 9.88966,46.1718 10.7916,45.9812 11.771,45.6059 12.8288,45.0324 13.9663,44.2471 " style="fill-opacity:0; stroke-opacity:0.8; stroke:#00ff00; stroke-width:0.2"/>
<polyline points="6.35448,34.755 5.66194,36.0672 5.14147,37.2808 4.78273,38.3995 4.57537,39.4274 4.50905,40.3682 4.57343,41.2259 4.75815,42.0044 5.05288,42.7075 5.44727,43.339 5.93097,43.903 6.49364,44.4032 7.12494,44.8436 7.81452,45.228 8.55203,45.5604 9.32713,45.8445 10.1295,46.0844 10.9487,46.2838 11.7745,46.4466 12.5966,46.5768 13.4044,46.6782 14.1878,46.7547 14.9364,46.8102 15.6398,46.8485 16.2877,46.8736 16.8698,46.8893 17.3756,46.8995 17.7949,46.9082 18.1173,46.919 18.3325,46.9361 18.4301,46.9632 " style="fill-opacity:0; stroke-opacity:0.8; stroke:#00ff00; stroke-width:0.2"/>
<polyline points="4.91992,43.646 5.88185,44.0187 6.82467,44.4031 7.74684,44.7918 8.64685,45.1773 9.52315,45.5522 10.3742,45.9089 11.1986,46.2401 11.9946,46.5382 12.7608,46.7958 13.4957,47.0055 14.1977,47.1596 14.8653,47.2509 15.497,47.2718 16.0912,47.2149 16.6464,47.0726 17.1622,46.8402 17.6425,46.5227 18.0921,46.1281 18.5162,45.6642 18.9196,45.1387 19.3073,44.5596 19.6844,43.9344 20.0557,43.2712 20.4262,42.5777 20.8009,41.8617 21.1848,41.131 21.5828,40.3935 22,39.6568 22.4412,38.929 22.9114,38.2176 " style="fill-opacity:0; stroke-opacity:0.8; stroke:#00ff00; stroke-width:0.2"/>
<polyline points="14.9319,48.1407 15.1095,48.0278 15.352,47.8596 15.6521,47.639 16.0024,47.3689 16.3958,47.0523 16.8248,46.692 17.2823,46.291 17.7609,45.8522 18.2535,45.3786 18.7526,44.873 19.251,44.3385 19.7414,43.7778 20.2166,43.194 20.6693,42.59 21.0921,41.9687 21.4778,41.3331 21.8192,40.6859 22.1089,40.0303 22.3397,39.3691 22.5042,38.7052 22.5952,38.0416 22.6055,37.3812 22.5276,36.7269 22.3545,36.0816 22.0787,35.4483 21.6929,34.8299 21.19,34.2294 20.5626,33.6496 19.8035,33.0934 18.9053,32.5639 " style="fill-opacity:0; stroke-opacity:0.8; stroke:#00ff00; stroke-width:0.2"/>
<polyline points="17.4033,44.4919 18.4556,44.0637 19.3737,43.5942 20.1635,43.0872 20.8309,42.5463 21.3817,41.9753 21.8218,41.3779 22.1571,40.7577 22.3935,40.1184 22.5368,39.4637 22.593,38.7973 22.568,38.123 22.4675,37.4443 22.2975,36.765 22.0639,36.0889 21.7725,35.4195 21.4292,34.7605 21.0399,34.1158 20.6106,33.4888 20.147,32.8835 19.655,32.3034 19.1406,31.7522 18.6095,31.2336 18.0678,30.7514 17.5212,30.3091 16.9757,29.9106 16.4371,29.5595 15.9113,29.2594 15.4042,29.0142 14.9217,28.8274 14.4696,28.7028 " style="fill-opacity:0; stroke-opacity:0.8; stroke:#00ff00; stroke-width:0.2"/>
<polyline points="22.7042,39.4831 22.5648,38.6176 22.3893,37.7739 22.178,36.9548 21.9317,36.1626 21.6509,35.4002 21.3362,34.67 20.9883,33.9747 20.6078,33.3168 20.1952,32.699 19.7512,32.1238 19.2764,31.5939 18.7714,31.1117 18.2367,30.68 17.6731,30.3013 17.081,29.9783 16.4612,29.7134 15.8141,29.5093 15.1405,29.3686 14.441,29.2939 13.716,29.2878 12.9663,29.3529 12.1925,29.4917 11.3951,29.7069 10.5748,30.001 9.73211,30.3767 8.86773,30.8366 7.98222,31.3832 7.07621,32.0191 6.15029,32.7469 5.20507,33.5693 " style="fill-opacity:0; stroke-opacity:0.8; stroke:#00ff00; stroke-width:0.2"/>
<polyline points="44.9844,34.0781 44.5792,33.1978 44.1052,32.4087 43.5689,31.7083 42.9766,31.0945 42.3346,30.5647 41.6493,30.1168 40.927,29.7482 40.1741,29.4568 39.397,29.2401 38.6019,29.0958 37.7952,29.0216 36.9833,29.015 36.1725,29.0739 35.3691,29.1958 34.5796,29.3783 33.8102,29.6192 33.0672,29.9161 32.3571,30.2667 31.6862,30.6686 31.0608,31.1194 30.4873,31.6169 29.972,32.1587 29.5213,32.7424 29.1415,33.3657 28.8389,34.0262 28.6199,34.7217 28.4909,35.4497 28.4581,36.208 28.528,36.9941 28.7069,37.8058 " style="fill-opacity:0; stroke-opacity:0.8; stroke:#00ff00; stroke-width:0.2"/>
<polyline points="38.4667,29.4598 37.6311,29.2609 36.8121,29.1533 36.0123,29.1327 35.2346,29.1947 34.4815,29.3349 33.7559,29.5492 33.0604,29.8332 32.3977,30.1825 31.7706,30.5928 31.1818,31.0598 30.6339,31.5792 30.1297,32.1467 29.6719,32.7579 29.2633,33.4085 28.9064,34.0942 28.6041,34.8107 28.359,35.5537 28.1738,36.3188 28.0514,37.1017 27.9943,37.8981 28.0052,38.7036 28.087,39.514 28.2423,40.3249 28.4738,41.132 28.7842,41.931 29.1763,42.7176 29.6527,43.4874 30.2162,44.2361 30.8694,44.9594 31.6152,45.653 " style="fill-opacity:0; stroke-opacity:0.8; stroke:#00ff00; stroke-width:0.2"/>
<polyline points="31.6152,30.347 30.8694,31.0406 30.2162,31.7639 29.6527,32.5126 29.1763,33.2824 28.7842,34.069 28.4738,34.868 28.2423,35.6751 28.087,36.486 28.0052,37.2964 27.9943,38.1019 28.0514,38.8983 28.1738,39.6812 28.359,40.4463 28.6041,41.1893 28.9064,41.9058 29.2633,42.5915 29.6719,43.2421 30.1297,43.8533 30.6339,44.4208 31.1818,44.9402 31.7706,45.4072 32.3977,45.8175 33.0604,46.1668 33.7559,46.4508 34.4815,46.6651 35.2345,46.8053 36.0123,46.8673 36.812,46.8467 37.6311,46.7391 38.4667,46.5402 " style="fill-opacity:0; stroke-opacity:0.8; stroke:#00ff00; stroke-width:0.2"/>
<polyline points="28.7069,38.1942 28.528,39.0059 28.4581,39.792 28.4909,40.5503 28.6199,41.2783 28.8389,41.9738 29.1415,42.6343 29.5213,43.2576 29.972,43.8413 30.4873,44.3831 31.0608,44.8806 31.6862,45.3314 32.3571,45.7333 33.0672,46.0838 33.8101,46.3808 34.5796,46.6217 35.3691,46.8042 36.1725,46.9261 36.9833,46.985 37.7952,46.9784 38.6019,46.9042 39.397,46.7599 40.1741,46.5432 40.927,46.2518 41.6493,45.8832 42.3346,45.4353 42.9766,44.9055 43.5689,44.2917 44.1052,43.5913 44.5792,42.8022 44.9844,41.9219 " style="fill-opacity:0; stroke-opacity:0.8; stroke:#00ff00; stroke-width:0.2"/>
<polyline points="30.2232,44.8395 31.113,45.3816 32.0018,45.8408 32.8869,46.2194 33.7655,46.5198 34.6351,46.7443 35.4929,46.8953 36.3361,46.9752 37.1621,46.9863 37.9681,46.931 38.7515,46.8117 39.5095,46.6307 40.2395,46.3904 40.9388,46.0931 41.6045,45.7413 42.2341,45.3373 42.8248,44.8835 43.374,44.3822 43.8788,43.8357 44.3366,43.2466 44.7447,42.617 45.1005,41.9495 45.4011,41.2463 45.6438,40.5098 45.8261,39.7424 45.9451,38.9464 45.9982,38.1243 45.9826,37.2784 45.8957,36.411 45.7347,35.5245 45.497,34.6213 " style="fill-opacity:0; stroke-opacity:0.8; stroke:#00ff00; stroke-width:0.2"/>
<polyline points="38.5056,46.0521 39.3538,46.1503 40.1559,46.1313 40.9108,46.0032 41.6175,45.7738 42.2749,45.451 42.8818,45.0426 43.4374,44.5566 43.9404,44.0008 44.3898,43.383 44.7846,42.7113 45.1236,41.9933 45.4059,41.2371 45.6303,40.4504 45.7958,39.6413 45.9013,38.8174 45.9458,37.9868 45.9281,37.1573 45.8472,36.3367 45.7021,35.533 45.4916,34.754 45.2147,34.0075 44.8704,33.3016 44.4576,32.644 43.9751,32.0426 43.422,31.5053 42.7972,31.04 42.0995,30.6546 41.328,30.3568 40.4815,30.1547 39.5591,30.056 " style="fill-opacity:0; stroke-opacity:0.8; stroke:#00ff00; stroke-width:0.2"/>
<polyline points="44.9701,43.3004 45.3161,42.3457 45.5886,41.4074 45.7899,40.4874 45.9218,39.5877 45.9864,38.7105 45.9857,37.8577 45.9219,37.0314 45.7969,36.2336 45.6127,35.4665 45.3715,34.7319 45.0752,34.032 44.7259,33.3687 44.3257,32.7442 43.8765,32.1605 43.3804,31.6196 42.8395,31.1235 42.2558,30.6743 41.6313,30.2741 40.968,29.9248 40.2681,29.6285 39.5336,29.3873 38.7664,29.2031 37.9686,29.0781 37.1423,29.0143 36.2895,29.0136 35.4123,29.0782 34.5127,29.2101 33.5926,29.4113 32.6543,29.6839 31.6996,30.0299 " style="fill-opacity:0; stroke-opacity:0.8; stroke:#00ff00; stroke-width:0.2"/>
<polyline points="44.9439,35.4409 44.8453,34.5185 44.6431,33.672 44.3454,32.9005 43.96,32.2028 43.4947,31.578 42.9574,31.0249 42.356,30.5424 41.6984,30.1296 40.9925,29.7852 40.246,29.5084 39.467,29.2979 38.6633,29.1528 37.8427,29.0719 37.0132,29.0542 36.1826,29.0987 35.3587,29.2042 34.5496,29.3697 33.7629,29.5941 33.0067,29.8764 32.2887,30.2154 31.617,30.6102 30.9992,31.0596 30.4434,31.5626 29.9574,32.1182 29.549,32.7251 29.2262,33.3825 28.9968,34.0892 28.8687,34.8441 28.8498,35.6462 28.9479,36.4944 " style="fill-opacity:0; stroke-opacity:0.8; stroke:#00ff00; stroke-width:0.2"/>
<polyline points="35.3782,43.6605 36.9301,42.8061 38.1591,41.9177 39.0906,41.0111 39.7501,40.1017 40.1628,39.2051 40.3544,38.3368 40.35,37.5125 40.1751,36.7476 39.8552,36.0577 39.4156,35.4584 38.8816,34.9652 38.2788,34.5937 37.6325,34.3594 36.9682,34.2779 36.3111,34.3648 35.6858,34.6284 35.1129,35.048 34.6124,35.5959 34.2038,36.2442 33.9071,36.9651 33.742,37.7308 33.7282,38.5135 33.8855,39.2852 34.2338,40.0183 34.7928,40.6849 35.5822,41.2572 36.6219,41.7072 37.9316,42.0073 39.531,42.1296 41.4401,42.0463 " style="fill-opacity:0; stroke-opacity:0.8; stroke:#00ff00; stroke-width:0.2"/>
<polyline points="41.2205,36.3807 39.8741,35.1323 38.6637,34.3031 37.5893,33.8475 36.6511,33.7198 35.8489,33.8746 35.1828,34.2662 34.6528,34.849 34.2589,35.5775 34.0012,36.406 33.8797,37.289 33.8943,38.1808 34.045,39.036 34.332,39.8088 34.7552,40.4538 35.3146,40.9253 36.0024,41.1881 36.7789,41.249 37.5968,41.1251 38.4086,40.8333 39.1669,40.3909 39.8243,39.8148 40.3332,39.1222 40.6464,38.3302 40.7217,37.4607 40.5393,36.5547 40.0847,35.6582 39.3433,34.8169 38.3007,34.0769 36.9425,33.4838 35.2541,33.0837 " style="fill-opacity:0; stroke-opacity:0.8; stroke:#00ff00; stroke-width:0.2"/>
<polyline points="32.0018,35.274 32.6982,37.3711 33.4473,39.005 34.2316,40.2157 35.0335,41.0432 35.8354,41.5275 36.6199,41.7086 37.3694,41.6266 38.0664,41.3215 38.6934,40.8333 39.2327,40.202 39.6669,39.4675 39.9785,38.6701 40.1499,37.8496 40.1636,37.0461 40.0021,36.2995 39.6568,35.6451 39.1551,35.0977 38.5336,34.6677 37.8287,34.365 37.0768,34.2 36.3144,34.1826 35.5779,34.3231 34.9038,34.6315 34.3285,35.1181 33.8885,35.7929 33.6203,36.6661 33.5602,37.7478 33.7448,39.0482 34.2105,40.5774 34.9937,42.3456 " style="fill-opacity:0; stroke-opacity:0.8; stroke:#00ff00; stroke-width:0.2"/>
</svg>
