<?xml version="1.0" standalone="no"?>
<!DOCTYPE svg PUBLIC "-//W3C//DTD SVG 1.1//EN"
"http://www.w3.org/Graphics/SVG/1.1/DTD/svg11.dtd">
<svg width="30" height="30" version="1.1" xmlns:xlink="http://www.w3.org/1999/xlink" xmlns="http://www.w3.org/2000/svg">
<polyline points="10.3877,0.387722 9.10625,0.106253 7.88525,-0.11475 6.72984,-0.270154 5.64517,-0.354826 4.63637,-0.363632 3.70856,-0.291439 2.86689,-0.133114 2.11648,0.116477 1.46247,0.462467 0.90999,0.90999 0.462468,1.46247 0.116477,2.11648 -0.133114,2.86688 -0.291439,3.70856 -0.363632,4.63637 -0.354826,5.64517 -0.270154,6.72985 -0.11475,7.88525 0.106253,9.10625 0.387723,10.3877 " style="fill-opacity:0; stroke-opacity:0.8; stroke:#00FF00; stroke-width:0.2"/>
<polyline points="5.0847,0.0846984 3.81479,-0.185206 2.75441,-0.245594 1.8862,-0.113803 1.19283,0.192834 0.656978,0.656978 0.261295,1.2613 -0.0115505,1.98845 -0.178896,2.8211 -0.258076,3.74192 -0.266427,4.73357 -0.221284,5.77872 -0.139984,6.86002 -0.0398625,7.96014 0.0617454,9.06175 0.147503,10.1475 0.200075,11.2001 0.202126,12.2021 0.136319,13.1363 -0.0146809,13.9853 -0.26821,14.7318 " style="fill-opacity:0; stroke-opacity:0.8; stroke:#00FF00; stroke-width:0.2"/>
<polyline points="0,4.85696e-007 0,1 0,2 0,3 0,4 0,5 0,6 0,7 0,8 0,9 0,10 0,11 0,12 0,13 0,14 0,15 0,16 0,17 0,18 0,19 0,20 " style="fill-opacity:0; stroke-opacity:0.8; stroke:#00FF00; stroke-width:0.2"/>
<polyline points="0,5 0,6 0,7 0,8 0,9 0,10 0,11 0,12 0,13 0,14 0,15 0,16 0,17 0,18 0,19 0,20 0,21 0,22 0,23 0,24 0,25 " style="fill-opacity:0; stroke-opacity:0.8; stroke:#00FF00; stroke-width:0.2"/>
<polyline points="0,10 0,11 0,12 0,13 0,14 0,15 0,16 0,17 0,18 0,19 0,20 0,21 0,22 0,23 0,24 0,25 0,26 0,27 0,28 0,29 0,30 " style="fill-opacity:0; stroke-opacity:0.8; stroke:#00FF00; stroke-width:0.2"/>
<polyline points="0,15 0,16 0,17 0,18 0,19 0,20 0,21 0,22 0,23 0,24 0,25 0,26 0,27 0,28 0,29 0,30 0,31 0,32 0,33 0,34 0,35 " style="fill-opacity:0; stroke-opacity:0.8; stroke:#00FF00; stroke-width:0.2"/>
<polyline points="0,20 0,21 0,22 0,23 0,24 0,25 0,26 0,27 0,28 0,29 0,30 0,31 0,32 0,33 0,34 0,35 0,36 0,37 0,38 0,39 0,40 " style="fill-opacity:0; stroke-opacity:0.8; stroke:#00FF00; stroke-width:0.2"/>
<polyline points="0,25 0,26 0,27 0,28 0,29 0,30 0,31 0,32 0,33 0,34 0,35 0,36 0,37 0,38 0,39 0,40 0,41 0,42 0,43 0,44 0,45 " style="fill-opacity:0; stroke-opacity:0.8; stroke:#00FF00; stroke-width:0.2"/>
<polyline points="0,30 0,31 0,32 0,33 0,34 0,35 0,36 0,37 0,38 0,39 0,40 0,41 0,42 0,43 0,44 0,45 0,46 0,47 0,48 0,49 0,50 " style="fill-opacity:0; stroke-opacity:0.8; stroke:#00FF00; stroke-width:0.2"/>
<polyline points="-0.308677,35.3087 -0.0382083,36.0382 0.131217,36.8688 0.215318,37.7847 0.22981,38.7702 0.190413,39.8096 0.112845,40.8872 0.0128219,41.9872 -0.0939371,43.0939 -0.191714,44.1917 -0.264792,45.2648 -0.297453,46.2975 -0.273979,47.274 -0.178651,48.1786 0.0042464,48.9958 0.290433,49.7096 0.695626,50.3044 1.23554,50.7645 1.9259,51.0741 2.78242,51.2176 3.82082,51.1792 " style="fill-opacity:0; stroke-opacity:0.8; stroke:#00FF00; stroke-width:0.2"/>
<polyline points="0.274217,39.7258 0.108117,40.8919 -0.0407492,42.0407 -0.163253,43.1632 -0.250266,44.2503 -0.292657,45.2927 -0.281298,46.2813 -0.207059,47.2071 -0.0608105,48.0608 0.166577,48.8334 0.484232,49.5158 0.90015,50.0998 1.41778,50.5822 2.03943,50.9606 2.76741,51.2326 3.60404,51.396 4.55163,51.4484 5.61249,51.3875 6.78893,51.2111 8.08327,50.9167 9.49782,50.5022 " style="fill-opacity:0; stroke-opacity:0.8; stroke:#00FF00; stroke-width:0.2"/>
<polyline points="0.316206,44.6838 -0.114624,46.1146 -0.327023,47.327 -0.33798,48.338 -0.164483,49.1645 0.176478,49.8235 0.667915,50.3321 1.29284,50.7071 2.03426,50.9657 2.87518,51.1248 3.79863,51.2014 4.7876,51.2124 5.82512,51.1749 6.89418,51.1058 7.97781,51.0222 9.05901,50.941 10.1208,50.8792 11.1462,50.8538 12.1182,50.8818 13.0198,50.9802 13.834,51.166 " style="fill-opacity:0; stroke-opacity:0.8; stroke:#00FF00; stroke-width:0.2"/>
<polyline points="-0.455954,50.456 0.364767,50.6352 1.22078,50.7792 2.10879,50.8912 3.0255,50.9745 3.96762,51.0324 4.93186,51.0681 5.91492,51.0851 6.91351,51.0865 7.92433,51.0757 8.9441,51.0559 9.96951,51.0305 10.9973,51.0027 12.0241,50.9759 13.0467,50.9533 14.0617,50.9383 15.066,50.934 16.0561,50.9439 17.0288,50.9712 17.9808,51.0192 18.9088,51.0912 " style="fill-opacity:0; stroke-opacity:0.8; stroke:#00FF00; stroke-width:0.2"/>
<polyline points="4,51 5,51 6,51 7,51 8,51 9,51 10,51 11,51 12,51 13,51 14,51 15,51 16,51 17,51 18,51 19,51 20,51 21,51 22,51 23,51 24,51 " style="fill-opacity:0; stroke-opacity:0.8; stroke:#00FF00; stroke-width:0.2"/>
<polyline points="9,51 10,51 11,51 12,51 13,51 14,51 15,51 16,51 17,51 18,51 19,51 20,51 21,51 22,51 23,51 24,51 25,51 26,51 27,51 28,51 29,51 " style="fill-opacity:0; stroke-opacity:0.8; stroke:#00FF00; stroke-width:0.2"/>
<polyline points="14,51 15,51 16,51 17,51 18,51 19,51 20,51 21,51 22,51 23,51 24,51 25,51 26,51 27,51 28,51 29,51 30,51 31,51 32,51 33,51 34,51 " style="fill-opacity:0; stroke-opacity:0.8; stroke:#00FF00; stroke-width:0.2"/>
<polyline points="19,51 20,51 21,51 22,51 23,51 24,51 25,51 26,51 27,51 28,51 29,51 30,51 31,51 32,51 33,51 34,51 35,51 36,51 37,51 38,51 39,51 " style="fill-opacity:0; stroke-opacity:0.8; stroke:#00FF00; stroke-width:0.2"/>
<polyline points="24,51 25,51 26,51 27,51 28,51 29,51 30,51 31,51 32,51 33,51 34,51 35,51 36,51 37,51 38,51 39,51 40,51 41,51 42,51 43,51 44,51 " style="fill-opacity:0; stroke-opacity:0.8; stroke:#00FF00; stroke-width:0.2"/>
<polyline points="29,51 30,51 31,51 32,51 33,51 34,51 35,51 36,51 37,51 38,51 39,51 40,51 41,51 42,51 43,51 44,51 45,51 46,51 47,51 48,51 49,51 " style="fill-opacity:0; stroke-opacity:0.8; stroke:#00FF00; stroke-width:0.2"/>
<polyline points="34.3087,51.3087 35.0382,51.0382 35.8688,50.8688 36.7847,50.7847 37.7702,50.7702 38.8096,50.8096 39.8871,50.8872 40.9872,50.9872 42.0939,51.0939 43.1917,51.1917 44.2648,51.2648 45.2974,51.2975 46.274,51.274 47.1786,51.1787 47.9958,50.9958 48.7096,50.7096 49.3044,50.3044 49.7645,49.7645 50.0741,49.0741 50.2176,48.2176 50.1792,47.1792 " style="fill-opacity:0; stroke-opacity:0.8; stroke:#00FF00; stroke-width:0.2"/>
<polyline points="38.7258,50.7258 39.8919,50.8919 41.0407,51.0407 42.1632,51.1632 43.2503,51.2503 44.2927,51.2927 45.2813,51.2813 46.2071,51.2071 47.0608,51.0608 47.8334,50.8334 48.5158,50.5158 49.0998,50.0998 49.5822,49.5822 49.9606,48.9606 50.2326,48.2326 50.396,47.396 50.4484,46.4484 50.3875,45.3875 50.2111,44.2111 49.9167,42.9167 49.5022,41.5022 " style="fill-opacity:0; stroke-opacity:0.8; stroke:#00FF00; stroke-width:0.2"/>
<polyline points="43.6838,50.6838 45.1146,51.1146 46.327,51.327 47.338,51.338 48.1645,51.1645 48.8235,50.8235 49.3321,50.3321 49.7072,49.7071 49.9657,48.9657 50.1248,48.1248 50.2014,47.2014 50.2124,46.2124 50.1749,45.1749 50.1058,44.1058 50.0222,43.0222 49.941,41.941 49.8792,40.8792 49.8538,39.8538 49.8818,38.8818 49.9802,37.9802 50.166,37.166 " style="fill-opacity:0; stroke-opacity:0.8; stroke:#00FF00; stroke-width:0.2"/>
<polyline points="49.456,51.456 49.6352,50.6352 49.7792,49.7792 49.8912,48.8912 49.9745,47.9745 50.0324,47.0324 50.0681,46.0681 50.0851,45.0851 50.0865,44.0865 50.0757,43.0757 50.0559,42.0559 50.0305,41.0305 50.0027,40.0027 49.9759,38.9759 49.9533,37.9533 49.9383,36.9383 49.934,35.934 49.9439,34.9439 49.9712,33.9712 50.0192,33.0192 50.0912,32.0912 " style="fill-opacity:0; stroke-opacity:0.8; stroke:#00FF00; stroke-width:0.2"/>
<polyline points="50,47 50,46 50,45 50,44 50,43 50,42 50,41 50,40 50,39 50,38 50,37 50,36 50,35 50,34 50,33 50,32 50,31 50,30 50,29 50,28 50,27 " style="fill-opacity:0; stroke-opacity:0.8; stroke:#00FF00; stroke-width:0.2"/>
<polyline points="50,42 50,41 50,40 50,39 50,38 50,37 50,36 50,35 50,34 50,33 50,32 50,31 50,30 50,29 50,28 50,27 50,26 50,25 50,24 50,23 50,22 " style="fill-opacity:0; stroke-opacity:0.8; stroke:#00FF00; stroke-width:0.2"/>
<polyline points="50,37 50,36 50,35 50,34 50,33 50,32 50,31 50,30 50,29 50,28 50,27 50,26 50,25 50,24 50,23 50,22 50,21 50,20 50,19 50,18 50,17 " style="fill-opacity:0; stroke-opacity:0.8; stroke:#00FF00; stroke-width:0.2"/>
<polyline points="50,32 50,31 50,30 50,29 50,28 50,27 50,26 50,25 50,24 50,23 50,22 50,21 50,20 50,19 50,18 50,17 50,16 50,15 50,14 50,13 50,12 " style="fill-opacity:0; stroke-opacity:0.8; stroke:#00FF00; stroke-width:0.2"/>
<polyline points="50,27 50,26 50,25 50,24 50,23 50,22 50,21 50,20 50,19 50,18 50,17 50,16 50,15 50,14 50,13 50,12 50,11 50,10 50,9 50,8 50,7 " style="fill-opacity:0; stroke-opacity:0.8; stroke:#00FF00; stroke-width:0.2"/>
<polyline points="50,22 50,21 50,20 50,19 50,18 50,17 50,16 50,15 50,14 50,13 50,12 50,11 50,10 50,9 50,8 50,7 50,6 50,5 50,4 50,3 50,2 " style="fill-opacity:0; stroke-opacity:0.8; stroke:#00FF00; stroke-width:0.2"/>
<polyline points="50.2832,16.7168 50.0463,15.9537 49.8935,15.1065 49.8125,14.1875 49.7909,13.2091 49.8162,12.1838 49.8762,11.1238 49.9583,10.0417 50.0504,8.94964 50.1399,7.86014 50.2145,6.78555 50.2618,5.73824 50.2694,4.73059 50.225,3.77497 50.1162,2.88377 49.9306,2.06936 49.6559,1.34413 49.2796,0.720438 48.7893,0.210675 48.1728,-0.172784 47.4176,-0.417561 " style="fill-opacity:0; stroke-opacity:0.8; stroke:#00FF00; stroke-width:0.2"/>
<polyline points="49.8442,12.1558 49.9085,11.0915 49.9868,10.0132 50.0682,8.93183 50.1418,7.85818 50.1969,6.80308 50.2227,5.77735 50.2082,4.79179 50.1428,3.85723 50.0155,2.98449 49.8156,2.18437 49.5323,1.46771 49.1547,0.845314 48.672,0.328004 48.0734,-0.0734047 47.3481,-0.348094 46.4852,-0.485245 45.474,-0.474041 44.3037,-0.303664 42.9633,0.0367024 41.4421,0.557877 " style="fill-opacity:0; stroke-opacity:0.8; stroke:#00FF00; stroke-width:0.2"/>
<polyline points="49.5204,7.47958 50.0342,5.96574 50.3398,4.66015 50.4519,3.54807 50.3852,2.61477 50.1544,1.84555 49.7743,1.22567 49.2596,0.740402 48.625,0.375032 47.8852,0.114832 47.0549,-0.0549201 46.1489,-0.14895 45.182,-0.18198 44.1687,-0.168735 43.1239,-0.12394 42.0623,-0.0623165 40.9986,0.00141006 39.9475,0.0525161 38.9237,0.0762777 37.942,0.0579711 37.0171,-0.0171278 " style="fill-opacity:0; stroke-opacity:0.8; stroke:#00FF00; stroke-width:0.2"/>
<polyline points="50.5471,1.45285 50,1 49.3664,0.63354 48.6544,0.345567 47.8718,0.128176 47.0265,-0.0265387 46.1265,-0.126482 45.1796,-0.17956 44.1937,-0.193676 43.1767,-0.176736 42.1366,-0.136646 41.0813,-0.0813099 40.0186,-0.0186335 38.9565,0.0434783 37.9029,0.0971203 36.8656,0.134387 35.8526,0.147374 34.8718,0.128176 33.9311,0.0688877 33.0384,-0.0383963 32.2016,-0.201581 " style="fill-opacity:0; stroke-opacity:0.8; stroke:#00FF00; stroke-width:0.2"/>
<polyline points="47,0 46,0 45,0 44,0 43,0 42,0 41,0 40,0 39,0 38,0 37,0 36,0 35,0 34,0 33,0 32,0 31,0 30,0 29,0 28,0 27,0 " style="fill-opacity:0; stroke-opacity:0.8; stroke:#00FF00; stroke-width:0.2"/>
<polyline points="42,0 41,0 40,0 39,0 38,0 37,0 36,0 35,0 34,0 33,0 32,0 31,0 30,0 29,0 28,0 27,0 26,0 25,0 24,0 23,0 22,0 " style="fill-opacity:0; stroke-opacity:0.8; stroke:#00FF00; stroke-width:0.2"/>
<polyline points="37,0 36,0 35,0 34,0 33,0 32,0 31,0 30,0 29,0 28,0 27,0 26,0 25,0 24,0 23,0 22,0 21,0 20,0 19,0 18,0 17,0 " style="fill-opacity:0; stroke-opacity:0.8; stroke:#00FF00; stroke-width:0.2"/>
<polyline points="32,0 31,0 30,0 29,0 28,0 27,0 26,0 25,0 24,0 23,0 22,0 21,0 20,0 19,0 18,0 17,0 16,0 15,0 14,0 13,0 12,0 " style="fill-opacity:0; stroke-opacity:0.8; stroke:#00FF00; stroke-width:0.2"/>
<polyline points="27,0 26,0 25,0 24,0 23,0 22,0 21,0 20,0 19,0 18,0 17,0 16,0 15,0 14,0 13,0 12,0 11,0 10,0 9,0 8,0 7,0 " style="fill-opacity:0; stroke-opacity:0.8; stroke:#00FF00; stroke-width:0.2"/>
<polyline points="22,0 21,0 20,0 19,0 18,0 17,0 16,0 15,0 14,0 13,0 12,0 11,0 10,0 9,0 8,0 7,0 6,0 5,0 4,0 3,0 2,0 " style="fill-opacity:0; stroke-opacity:0.8; stroke:#00FF00; stroke-width:0.2"/>
<polyline points="16.7168,-0.283174 15.9537,-0.0463016 15.1065,0.106452 14.1875,0.187465 13.2091,0.209115 12.1838,0.18378 11.1238,0.123837 10.0417,0.0416654 8.94964,-0.0503581 7.86014,-0.139856 6.78555,-0.214449 5.73824,-0.261761 4.73059,-0.269414 3.77497,-0.225029 2.88377,-0.116229 2.06936,0.0693631 1.34413,0.344126 0.720438,0.720437 0.210675,1.21067 -0.172784,1.82722 -0.417561,2.58244 " style="fill-opacity:0; stroke-opacity:0.8; stroke:#00FF00; stroke-width:0.2"/>
<polyline points="12.1558,0.155844 11.0915,0.0914736 10.0132,0.013195 8.93183,-0.0681743 7.85818,-0.141817 6.80308,-0.196915 5.77735,-0.222651 4.79179,-0.208208 3.85723,-0.142768 2.98449,-0.0155131 2.18437,0.184374 1.46771,0.467711 0.845314,0.845315 0.328004,1.328 -0.0734047,1.92659 -0.348094,2.65191 -0.485245,3.51476 -0.474041,4.52596 -0.303664,5.69633 0.0367024,7.0367 0.557877,8.55788 " style="fill-opacity:0; stroke-opacity:0.8; stroke:#00FF00; stroke-width:0.2"/>
<polyline points="17.7395,10.3416 17.2864,9.7886 16.8541,9.15669 16.4378,8.48151 16.033,7.79873 15.635,7.14404 15.2392,6.55309 14.8408,6.06156 14.4354,5.70513 14.0183,5.51946 13.5848,5.54023 13.1328,5.78944 12.6705,6.23437 12.2087,6.82865 11.7581,7.52589 11.3294,8.27971 10.9337,9.04733 10.5829,9.80042 10.2895,10.5143 10.0658,11.1641 9.92415,11.7252 " style="fill-opacity:0; stroke-opacity:0.8; stroke:#00FF00; stroke-width:0.2"/>
<polyline points="15.9035,7.13896 15.3986,6.33481 14.9074,5.81084 14.4293,5.53803 13.964,5.4873 13.5109,5.62962 13.0696,5.93594 12.6397,6.37721 12.2207,6.92437 11.8122,7.54839 11.4136,8.22021 11.0245,8.91413 10.6437,9.61791 10.2701,10.3226 9.90256,11.0194 9.53992,11.6993 9.18101,12.3534 8.82465,12.9728 8.4697,13.5487 8.115,14.0721 7.75937,14.534 " style="fill-opacity:0; stroke-opacity:0.8; stroke:#00FF00; stroke-width:0.2"/>
<polyline points="13.229,5.22897 12.8927,5.89271 12.5463,6.54634 12.1911,7.19107 11.8281,7.8281 11.4587,8.45866 11.0839,9.08394 10.7052,9.70518 10.3236,10.3236 9.94036,10.9404 9.55672,11.5567 9.17388,12.1739 8.79307,12.7931 8.41548,13.4155 8.04233,14.0423 7.67484,14.6748 7.31422,15.3142 6.96168,15.9617 6.61844,16.6184 6.28571,17.2857 5.96471,17.9647 " style="fill-opacity:0; stroke-opacity:0.8; stroke:#00FF00; stroke-width:0.2"/>
<polyline points="11.2207,8.22069 10.9262,8.92622 10.6152,9.61521 10.2892,10.2892 9.94974,10.9497 9.59834,11.5983 9.23655,12.2366 8.86591,12.8659 8.48796,13.488 8.10422,14.1042 7.71625,14.7162 7.32557,15.3256 6.93372,15.9337 6.54224,16.5422 6.15267,17.1527 5.76654,17.7665 5.3854,18.3854 5.01077,19.0108 4.6442,19.6442 4.28722,20.2872 3.94137,20.9414 " style="fill-opacity:0; stroke-opacity:0.8; stroke:#00FF00; stroke-width:0.2"/>
<polyline points="9.74421,11.7442 9.28571,12.2857 8.84778,12.8478 8.42812,13.4281 8.02446,14.0245 7.63449,14.6345 7.25594,15.2559 6.8865,15.8865 6.52391,16.5239 6.16586,17.1659 5.81007,17.8101 5.45425,18.4542 5.09611,19.0961 4.73337,19.7334 4.36373,20.3637 3.9849,20.9849 3.59461,21.5946 3.19056,22.1906 2.77045,22.7705 2.33202,23.332 1.87295,23.873 " style="fill-opacity:0; stroke-opacity:0.8; stroke:#00FF00; stroke-width:0.2"/>
<polyline points="7.49042,14.94 7.3727,15.3959 7.14467,15.9138 6.82509,16.4836 6.43276,17.095 5.98643,17.7378 5.50489,18.4019 5.00691,19.0771 4.51127,19.7532 4.03674,20.4199 3.60209,21.0672 3.22768,21.6845 2.94017,22.2599 2.7678,22.7814 2.73881,23.2368 2.88144,23.6139 3.22393,23.9006 3.79452,24.0849 4.62144,24.1544 5.73295,24.0972 7.15728,23.901 " style="fill-opacity:0; stroke-opacity:0.8; stroke:#00FF00; stroke-width:0.2"/>
<polyline points="6.01157,17.63 5.53456,18.35 5.02704,19.067 4.51548,19.7713 4.02636,20.4532 3.58617,21.103 3.22138,21.7111 2.95847,22.2679 2.82392,22.7636 2.84422,23.1885 3.04584,23.533 3.44667,23.791 4.03029,23.9699 4.77166,24.0811 5.64576,24.1355 6.62756,24.1444 7.69206,24.1188 8.81421,24.07 9.969,24.009 11.1314,23.9469 12.2764,23.8949 " style="fill-opacity:0; stroke-opacity:0.8; stroke:#00FF00; stroke-width:0.2"/>
<polyline points="4.23188,21.0625 3.40523,21.7756 2.88239,22.3736 2.63808,22.8657 2.64701,23.2613 2.88388,23.5699 3.32342,23.8008 3.94034,23.9634 4.70935,24.0671 5.60516,24.1213 6.60248,24.1353 7.67604,24.1186 8.80053,24.0805 9.95068,24.0304 11.1012,23.9777 12.2268,23.9318 13.3022,23.902 14.3021,23.8978 15.2012,23.9285 15.9742,24.0036 16.5959,24.1323 " style="fill-opacity:0; stroke-opacity:0.8; stroke:#00FF00; stroke-width:0.2"/>
<polyline points="2,24 3,24 4,24 5,24 6,24 7,24 8,24 9,24 10,24 11,24 12,24 13,24 14,24 15,24 16,24 17,24 18,24 19,24 20,24 21,24 22,24 " style="fill-opacity:0; stroke-opacity:0.8; stroke:#00FF00; stroke-width:0.2"/>
<polyline points="7.29277,24.1104 8.05759,24.0192 8.90231,23.9599 9.81573,23.9279 10.7867,23.9186 11.8039,23.9273 12.8562,23.9496 13.9324,23.9806 15.0214,24.0159 16.1118,24.0508 17.1925,24.0807 18.2524,24.1011 19.2802,24.1072 20.2646,24.0945 21.1946,24.0583 22.0589,23.9942 22.8463,23.8973 23.5456,23.7632 24.1457,23.5872 24.6352,23.3648 25.0031,23.0912 " style="fill-opacity:0; stroke-opacity:0.8; stroke:#00FF00; stroke-width:0.2"/>
<polyline points="12.0877,23.9466 12.9347,23.9494 13.8755,23.9719 14.8881,24.0069 15.9502,24.047 17.0397,24.0849 18.1345,24.1134 19.2124,24.1251 20.2513,24.1126 21.2291,24.0688 22.1236,23.9863 22.9126,23.8577 23.574,23.6759 24.0858,23.4334 24.4256,23.1231 24.5714,22.7375 24.5011,22.2694 24.1924,21.7114 23.6234,21.0563 22.7717,20.2968 21.6153,19.4256 " style="fill-opacity:0; stroke-opacity:0.8; stroke:#00FF00; stroke-width:0.2"/>
<polyline points="16.4875,23.7822 17.951,24.0029 19.2757,24.1461 20.4566,24.213 21.4889,24.2048 22.3677,24.1226 23.088,23.9677 23.645,23.7413 24.0337,23.4445 24.2494,23.0786 24.287,22.6448 24.1488,22.1456 23.8653,21.5891 23.4739,20.9848 23.0122,20.342 22.5177,19.6702 22.028,18.9789 21.5806,18.2774 21.213,17.5752 20.9627,16.8817 20.8673,16.2064 " style="fill-opacity:0; stroke-opacity:0.8; stroke:#00FF00; stroke-width:0.2"/>
<polyline points="22.4535,24.2275 23.2546,24.08 23.813,23.8398 24.1545,23.5159 24.305,23.1174 24.2904,22.6531 24.1367,22.1321 23.8698,21.5634 23.5154,20.9559 23.0997,20.3186 22.6484,19.6604 22.1848,18.9896 21.7219,18.3114 21.2697,17.6301 20.8386,16.9502 20.4387,16.276 20.0803,15.6121 19.7736,14.9627 19.5289,14.3323 19.3563,13.7254 19.2661,13.1462 " style="fill-opacity:0; stroke-opacity:0.8; stroke:#00FF00; stroke-width:0.2"/>
<polyline points="24.2998,22.7002 23.9035,22.0966 23.5168,21.4832 23.139,20.861 22.7693,20.2307 22.4068,19.5932 22.0506,18.9494 21.7001,18.2999 21.3542,17.6458 21.0123,16.9877 20.6734,16.3266 20.3368,15.6632 20.0015,14.9985 19.6668,14.3332 19.3319,13.6681 18.9958,13.0042 18.6578,12.3422 18.3171,11.6829 17.9727,11.0273 17.6239,10.3761 17.2699,9.73009 " style="fill-opacity:0; stroke-opacity:0.8; stroke:#00FF00; stroke-width:0.2"/>
<polyline points="22.1972,19.8028 21.9044,19.0956 21.6068,18.3932 21.3043,17.6957 20.9966,17.0034 20.6834,16.3166 20.3646,15.6354 20.0399,14.9601 19.7091,14.2909 19.372,13.628 19.0284,12.9716 18.6781,12.3219 18.3208,11.6792 17.9563,11.0437 17.5844,10.4156 17.2048,9.79517 16.8175,9.18255 16.422,8.57799 16.0183,7.98171 15.6061,7.39394 15.1851,6.81489 " style="fill-opacity:0; stroke-opacity:0.8; stroke:#00FF00; stroke-width:0.2"/>
<polyline points="20.7741,16.0864 20.397,15.5676 20.0298,15.0072 19.6708,14.4104 19.3181,13.7831 18.9699,13.1307 18.6245,12.4588 18.2799,11.7729 17.9345,11.0788 17.5864,10.3819 17.2338,9.68774 16.8748,9.00312 16.5067,8.33906 16.1268,7.70775 15.7323,7.12135 15.3203,6.59204 14.8883,6.132 14.4332,5.75341 13.9525,5.46845 13.4433,5.28928 12.9028,5.22809 " style="fill-opacity:0; stroke-opacity:0.8; stroke:#00FF00; stroke-width:0.2"/>
<polyline points="19.0928,12.8013 18.7272,12.2705 18.3501,11.7245 17.9664,11.1518 17.5813,10.541 17.1997,9.88079 16.8249,9.16781 16.453,8.43128 16.0785,7.70849 15.6956,7.03675 15.2986,6.45336 14.8836,5.9928 14.4523,5.67828 14.0084,5.53019 13.5552,5.56892 13.0963,5.81486 12.6356,6.27419 12.1786,6.8963 11.7315,7.61635 11.3001,8.36952 10.8904,9.09098 " style="fill-opacity:0; stroke-opacity:0.8; stroke:#00FF00; stroke-width:0.2"/>
<polyline points="39.3877,5.38772 38.1062,5.10625 36.8852,4.88525 35.7298,4.72985 34.6452,4.64517 33.6364,4.63637 32.7086,4.70856 31.8669,4.86689 31.1165,5.11648 30.4625,5.46247 29.91,5.90999 29.4625,6.46247 29.1165,7.11648 28.8669,7.86689 28.7086,8.70856 28.6364,9.63637 28.6452,10.6452 28.7298,11.7298 28.8853,12.8853 29.1063,14.1063 29.3877,15.3877 " style="fill-opacity:0; stroke-opacity:0.8; stroke:#00FF00; stroke-width:0.2"/>
<polyline points="34.0847,5.0847 32.8148,4.81479 31.7544,4.7544 30.8862,4.8862 30.1928,5.19283 29.657,5.65698 29.2613,6.26129 28.9884,6.98845 28.8211,7.8211 28.7419,8.74192 28.7336,9.73357 28.7787,10.7787 28.86,11.86 28.9601,12.9601 29.0617,14.0617 29.1475,15.1475 29.2001,16.2001 29.2021,17.2021 29.1363,18.1363 28.9853,18.9853 28.7318,19.7318 " style="fill-opacity:0; stroke-opacity:0.8; stroke:#00FF00; stroke-width:0.2"/>
<polyline points="28.7984,5.20158 28.9616,6.03839 29.0689,6.93111 29.1282,7.87182 29.1474,8.85262 29.1344,9.86561 29.0971,10.9029 29.0435,11.9565 28.9814,13.0186 28.9187,14.0813 28.8634,15.1366 28.8233,16.1767 28.8063,17.1937 28.8204,18.1796 28.8735,19.1265 28.9735,20.0265 29.1282,20.8718 29.3456,21.6544 29.6335,22.3665 30,23 30.4528,23.5471 " style="fill-opacity:0; stroke-opacity:0.8; stroke:#00FF00; stroke-width:0.2"/>
<polyline points="28.9829,10.0171 29.058,10.942 29.0763,11.9237 29.0525,12.9475 29.0014,13.9986 28.9377,15.0623 28.8761,16.1239 28.8313,17.1687 28.818,18.182 28.851,19.149 28.9451,20.0549 29.1148,20.8852 29.375,21.625 29.7404,22.2596 30.2257,22.7743 30.8456,23.1545 31.6148,23.3852 32.5481,23.4519 33.6601,23.3399 34.9657,23.0343 36.4796,22.5204 " style="fill-opacity:0; stroke-opacity:0.8; stroke:#00FF00; stroke-width:0.2"/>
<polyline points="29.5579,14.4421 29.0367,15.9633 28.6963,17.3037 28.526,18.474 28.5147,19.4852 28.6519,20.3481 28.9266,21.0734 29.328,21.672 29.8453,22.1547 30.4677,22.5323 31.1844,22.8156 31.9845,23.0155 32.8572,23.1428 33.7918,23.2082 34.7774,23.2227 35.8031,23.1969 36.8582,23.1418 37.9318,23.0682 39.0132,22.9868 40.0915,22.9085 41.1558,22.8442 " style="fill-opacity:0; stroke-opacity:0.8; stroke:#00FF00; stroke-width:0.2"/>
<polyline points="28.5824,20.4176 28.8272,21.1728 29.2107,21.7893 29.7204,22.2796 30.3441,22.6559 31.0694,22.9306 31.8838,23.1162 32.775,23.225 33.7306,23.2694 34.7382,23.2618 35.7855,23.2144 36.8601,23.1399 37.9496,23.0504 39.0417,22.9583 40.1238,22.8762 41.1838,22.8162 42.2091,22.7909 43.1875,22.8125 44.1064,22.8935 44.9537,23.0463 45.7168,23.2832 " style="fill-opacity:0; stroke-opacity:0.8; stroke:#00FF00; stroke-width:0.2"/>
<polyline points="31.3087,23.3087 32.0382,23.0382 32.8688,22.8688 33.7847,22.7847 34.7702,22.7702 35.8096,22.8096 36.8872,22.8872 37.9872,22.9872 39.0939,23.0939 40.1917,23.1917 41.2648,23.2648 42.2975,23.2975 43.274,23.274 44.1786,23.1787 44.9958,22.9958 45.7096,22.7096 46.3044,22.3044 46.7645,21.7645 47.0741,21.0741 47.2176,20.2176 47.1792,19.1792 " style="fill-opacity:0; stroke-opacity:0.8; stroke:#00FF00; stroke-width:0.2"/>
<polyline points="35.7258,22.7258 36.8919,22.8919 38.0407,23.0407 39.1632,23.1632 40.2503,23.2503 41.2927,23.2927 42.2813,23.2813 43.2071,23.2071 44.0608,23.0608 44.8334,22.8334 45.5158,22.5158 46.0998,22.0998 46.5822,21.5822 46.9606,20.9606 47.2326,20.2326 47.396,19.396 47.4484,18.4484 47.3875,17.3875 47.2111,16.2111 46.9167,14.9167 46.5022,13.5022 " style="fill-opacity:0; stroke-opacity:0.8; stroke:#00FF00; stroke-width:0.2"/>
<polyline points="40.6838,22.6838 42.1146,23.1146 43.327,23.327 44.338,23.338 45.1645,23.1645 45.8235,22.8235 46.3321,22.3321 46.7072,21.7072 46.9657,20.9657 47.1248,20.1248 47.2014,19.2014 47.2124,18.2124 47.1749,17.1749 47.1058,16.1058 47.0222,15.0222 46.941,13.941 46.8792,12.8792 46.8538,11.8538 46.8818,10.8818 46.9802,9.98024 47.166,9.16601 " style="fill-opacity:0; stroke-opacity:0.8; stroke:#00FF00; stroke-width:0.2"/>
<polyline points="46.5471,23.3648 46.6544,22.616 46.7504,21.808 46.8351,20.9473 46.9085,20.0405 46.9706,19.0941 47.0215,18.1148 47.061,17.1092 47.0892,16.0838 47.1061,15.0452 47.1118,14 47.1062,12.9548 47.0892,11.9162 47.061,10.8908 47.0215,9.88519 46.9706,8.90589 46.9085,7.95953 46.8351,7.0527 46.7504,6.19198 46.6544,5.38396 46.5471,4.63523 " style="fill-opacity:0; stroke-opacity:0.8; stroke:#00FF00; stroke-width:0.2"/>
<polyline points="47.166,18.834 46.9802,18.0198 46.8818,17.1182 46.8538,16.1462 46.8792,15.1208 46.941,14.059 47.0222,12.9778 47.1058,11.8942 47.1749,10.8251 47.2124,9.7876 47.2014,8.79863 47.1248,7.87518 46.9658,7.03426 46.7072,6.29284 46.3321,5.66792 45.8235,5.17648 45.1645,4.83552 44.338,4.66202 43.327,4.67298 42.1146,4.88538 40.6838,5.31621 " style="fill-opacity:0; stroke-opacity:0.8; stroke:#00FF00; stroke-width:0.2"/>
<polyline points="46.5022,14.4978 46.9167,13.0833 47.2111,11.7889 47.3875,10.6125 47.4484,9.55163 47.396,8.60404 47.2326,7.76741 46.9606,7.03943 46.5822,6.41778 46.0999,5.90015 45.5158,5.48423 44.8334,5.16658 44.0608,4.93919 43.2071,4.79294 42.2813,4.7187 41.2927,4.70734 40.2503,4.74973 39.1633,4.83675 38.0408,4.95925 36.8919,5.10812 35.7258,5.27422 " style="fill-opacity:0; stroke-opacity:0.8; stroke:#00FF00; stroke-width:0.2"/>
<polyline points="47.1792,8.82082 47.2176,7.78242 47.0741,6.9259 46.7645,6.23554 46.3044,5.69563 45.7096,5.29043 44.9958,5.00425 44.1786,4.82135 43.274,4.72602 42.2975,4.70255 41.2648,4.73521 40.1917,4.80829 39.0939,4.90606 37.9872,5.01282 36.8872,5.11284 35.8096,5.19041 34.7702,5.22981 33.7847,5.21532 32.8688,5.13122 32.0382,4.96179 31.3087,4.69132 " style="fill-opacity:0; stroke-opacity:0.8; stroke:#00FF00; stroke-width:0.2"/>
<polyline points="45.7168,4.71683 44.9537,4.9537 44.1064,5.10645 43.1875,5.18746 42.2091,5.20911 41.1838,5.18378 40.1238,5.12384 39.0417,5.04166 37.9496,4.94964 36.8601,4.86014 35.7855,4.78555 34.7382,4.73824 33.7306,4.73059 32.775,4.77497 31.8838,4.88377 31.0694,5.06936 30.3441,5.34413 29.7204,5.72044 29.2107,6.21067 28.8272,6.82722 28.5824,7.58244 " style="fill-opacity:0; stroke-opacity:0.8; stroke:#00FF00; stroke-width:0.2"/>
<polyline points="41.1558,5.15584 40.0915,5.09147 39.0132,5.01319 37.9318,4.93182 36.8582,4.85818 35.8031,4.80308 34.7773,4.77735 33.7918,4.79179 32.8572,4.85723 31.9845,4.98449 31.1844,5.18437 30.4677,5.46771 29.8453,5.84532 29.328,6.328 28.9266,6.9266 28.6519,7.65191 28.5148,8.51476 28.526,9.52596 28.6963,10.6963 29.0367,12.0367 29.5579,13.5579 " style="fill-opacity:0; stroke-opacity:0.8; stroke:#00FF00; stroke-width:0.2"/>
<polyline points="19.9881,33.1899 19.6996,32.309 19.3337,31.5608 18.8967,30.9374 18.3949,30.4307 17.8347,30.033 17.2223,29.7361 16.5641,29.5323 15.8664,29.4136 15.1354,29.3721 14.3776,29.3998 13.5991,29.4888 12.8064,29.6312 12.0057,29.819 11.2033,30.0444 10.4056,30.2994 9.61882,30.576 8.84932,30.8664 8.10339,31.1625 7.38735,31.4566 6.70751,31.7406 " style="fill-opacity:0; stroke-opacity:0.8; stroke:#00FF00; stroke-width:0.2"/>
<polyline points="17.8185,29.6361 17.2823,29.5528 16.6703,29.4958 15.9931,29.4666 15.2611,29.4664 14.485,29.4966 13.6753,29.5586 12.8426,29.6537 11.9976,29.7832 11.1507,29.9485 10.3125,30.151 9.49369,30.392 8.70474,30.6729 7.95627,30.995 7.25883,31.3597 6.62301,31.7683 6.05938,32.2222 5.57852,32.7227 5.191,33.2712 4.9074,33.869 4.73828,34.5175 " style="fill-opacity:0; stroke-opacity:0.8; stroke:#00FF00; stroke-width:0.2"/>
<polyline points="14.4641,29.4641 13.6313,29.6313 12.7902,29.7902 11.9488,29.9488 11.1153,30.1153 10.2977,30.2976 9.50392,30.5039 8.74214,30.7421 8.02037,31.0204 7.34664,31.3466 6.729,31.729 6.17549,32.1755 5.69416,32.6942 5.29305,33.293 4.9802,33.9802 4.76366,34.7637 4.65147,35.6515 4.65168,36.6517 4.77233,37.7723 5.02146,39.0215 5.40711,40.4071 " style="fill-opacity:0; stroke-opacity:0.8; stroke:#00FF00; stroke-width:0.2"/>
<polyline points="10.5805,30.7629 9.5494,30.5878 8.63966,30.5821 7.84471,30.7325 7.15803,31.0261 6.57311,31.4496 6.08343,31.9901 5.68247,32.6343 5.36371,33.3692 5.12063,34.1816 4.94671,35.0585 4.83545,35.9868 4.78031,36.9533 4.77478,37.9449 4.81235,38.9486 4.88649,39.9512 4.99068,40.9397 5.11841,41.9008 5.26316,42.8216 5.41841,43.6889 5.57764,44.4896 " style="fill-opacity:0; stroke-opacity:0.8; stroke:#00FF00; stroke-width:0.2"/>
<polyline points="6.33757,31.5681 6.01544,31.9846 5.7178,32.5493 5.44885,33.2423 5.21274,34.0436 5.01365,34.9333 4.85575,35.8913 4.74321,36.8977 4.68022,37.9324 4.67093,38.9756 4.71952,40.0072 4.83016,41.0072 5.00703,41.9557 5.25429,42.8327 5.57612,43.6181 5.97669,44.2921 6.46018,44.8346 7.03075,45.2256 7.69258,45.4452 8.44984,45.4734 9.3067,45.2901 " style="fill-opacity:0; stroke-opacity:0.8; stroke:#00FF00; stroke-width:0.2"/>
<polyline points="5.39893,34.6011 5.07171,35.9283 4.83996,37.16 4.70074,38.2993 4.6511,39.3489 4.68808,40.3119 4.80875,41.1913 5.01015,41.9898 5.28935,42.7107 5.64338,43.3566 6.0693,43.9307 6.56418,44.4358 7.12505,44.875 7.74898,45.251 8.43301,45.567 9.1742,45.8258 9.9696,46.0304 10.8163,46.1837 11.7113,46.2887 12.6516,46.3484 13.6344,46.3656 " style="fill-opacity:0; stroke-opacity:0.8; stroke:#00FF00; stroke-width:0.2"/>
<polyline points="4.97666,40.0233 4.8626,41.1374 4.90623,42.0938 5.09363,42.9064 5.41088,43.5891 5.84408,44.1559 6.3793,44.6207 7.00264,44.9973 7.70018,45.2998 8.45799,45.542 9.26218,45.7378 10.0988,45.9012 10.954,46.046 11.8138,46.1862 12.6643,46.3357 13.4916,46.5084 14.2818,46.7182 15.0209,46.9791 15.6951,47.3049 16.2904,47.7096 16.793,48.207 " style="fill-opacity:0; stroke-opacity:0.8; stroke:#00FF00; stroke-width:0.2"/>
<polyline points="5.72671,44.5763 6.38735,44.6198 7.0921,44.7424 7.83332,44.9303 8.60339,45.1698 9.39467,45.447 10.1996,45.7483 11.0104,46.0598 11.8196,46.3678 12.6195,46.6584 13.4024,46.9179 14.1608,47.1326 14.8871,47.2886 15.5735,47.3722 16.2125,47.3696 16.7965,47.267 17.3177,47.0506 17.7687,46.7067 18.1417,46.2215 18.4291,45.5812 18.6234,44.7721 " style="fill-opacity:0; stroke-opacity:0.8; stroke:#00FF00; stroke-width:0.2"/>
<polyline points="8.9771,45.6195 10.0167,45.8624 10.9898,46.1235 11.899,46.3885 12.7468,46.6427 13.5359,46.8718 14.2689,47.0613 14.9483,47.1968 15.5768,47.2637 16.157,47.2476 16.6914,47.134 17.1834,46.9126 17.639,46.5891 18.065,46.1735 18.468,45.6756 18.8548,45.1054 19.2322,44.4726 19.6069,43.7873 19.9856,43.0592 20.3751,42.2983 20.7821,41.5145 " style="fill-opacity:0; stroke-opacity:0.8; stroke:#00FF00; stroke-width:0.2"/>
<polyline points="13.2107,46.7339 14.0789,47.1684 14.8578,47.4273 15.5559,47.5257 16.1818,47.4788 16.7441,47.3019 17.2511,47.0101 17.7114,46.6187 18.1337,46.1428 18.5262,45.5976 18.8977,44.9984 19.2565,44.3602 19.6113,43.6985 19.9705,43.0282 20.3427,42.3646 20.7363,41.723 21.1599,41.1185 21.622,40.5663 22.1312,40.0816 22.6958,39.6797 23.3246,39.3756 " style="fill-opacity:0; stroke-opacity:0.8; stroke:#00FF00; stroke-width:0.2"/>
<polyline points="17.1485,47.9853 17.2936,47.2778 17.5295,46.6046 17.8426,45.9612 18.2193,45.3428 18.6461,44.7448 19.1092,44.1626 19.5952,43.5916 20.0904,43.027 20.5813,42.4642 21.0543,41.8987 21.4957,41.3256 21.892,40.7405 22.2295,40.1386 22.4948,39.5153 22.6742,38.866 22.7541,38.186 22.7209,37.4706 22.561,36.7153 22.2609,35.9153 21.8069,35.0661 " style="fill-opacity:0; stroke-opacity:0.8; stroke:#00FF00; stroke-width:0.2"/>
<polyline points="18.6774,44.8266 19.1624,44.2525 19.6583,43.6726 20.153,43.0865 20.634,42.4937 21.089,41.8939 21.5057,41.2865 21.8717,40.6712 22.1748,40.0475 22.4026,39.415 22.5427,38.7732 22.5859,38.1221 22.5348,37.4639 22.3952,36.8011 22.1727,36.1362 21.873,35.4717 21.5018,34.8103 21.0648,34.1544 20.5678,33.5065 20.0163,32.8693 19.4162,32.2452 " style="fill-opacity:0; stroke-opacity:0.8; stroke:#00FF00; stroke-width:0.2"/>
<polyline points="20.7507,41.9549 21.4506,41.3685 21.9864,40.7576 22.3704,40.1259 22.6145,39.4772 22.7308,38.8154 22.7316,38.1442 22.6288,37.4674 22.4345,36.789 22.161,36.1125 21.8202,35.442 21.4243,34.7811 20.9854,34.1336 20.5155,33.5034 20.0268,32.8943 19.5314,32.3101 19.0413,31.7545 18.5688,31.2314 18.1258,30.7445 17.7244,30.2978 17.3769,29.8949 " style="fill-opacity:0; stroke-opacity:0.8; stroke:#00FF00; stroke-width:0.2"/>
<polyline points="23.242,38.5757 22.9198,38.0418 22.5973,37.4602 22.2719,36.8403 21.9407,36.1912 21.6012,35.5223 21.2506,34.8427 20.8864,34.1618 20.5058,33.4887 20.1062,32.8328 19.6849,32.2033 19.2392,31.6095 18.7664,31.0606 18.264,30.5658 17.7292,30.1345 17.1593,29.7759 16.5518,29.4993 15.9038,29.3138 15.2128,29.2288 14.476,29.2535 13.6909,29.3972 " style="fill-opacity:0; stroke-opacity:0.8; stroke:#00FF00; stroke-width:0.2"/>
<polyline points="21.5845,35.4375 21.2618,34.7687 20.9127,34.1086 20.5366,33.4636 20.133,32.8404 19.7013,32.2452 19.2409,31.6846 18.7513,31.165 18.2319,30.6929 17.6821,30.2747 17.1013,29.917 16.4891,29.6261 15.8448,29.4085 15.1679,29.2708 14.4577,29.2192 13.7138,29.2604 12.9356,29.4008 12.1225,29.6468 11.2739,30.0048 10.3892,30.4815 9.468,31.0831 " style="fill-opacity:0; stroke-opacity:0.8; stroke:#00FF00; stroke-width:0.2"/>
<polyline points="42.3739,30.9387 41.7147,30.3546 41.0069,29.879 40.2588,29.5066 39.4782,29.2322 38.6732,29.0506 37.8519,28.9565 37.0222,28.9448 36.1922,29.0101 35.37,29.1473 34.5636,29.3511 33.7809,29.6162 33.0301,29.9375 32.3192,30.3097 31.6562,30.7276 31.0491,31.1858 30.506,31.6793 30.0348,32.2027 29.6437,32.7508 29.3407,33.3185 29.1337,33.9003 " style="fill-opacity:0; stroke-opacity:0.8; stroke:#00FF00; stroke-width:0.2"/>
<polyline points="38.9489,28.9489 37.9243,28.9243 36.9575,28.9575 36.0469,29.0469 35.1911,29.1911 34.3889,29.3888 33.6386,29.6386 32.9389,29.9389 32.2884,30.2883 31.6856,30.6856 31.1291,31.1291 30.6176,31.6176 30.1495,32.1495 29.7235,32.7235 29.3382,33.3382 28.992,33.992 28.6837,34.6837 28.4117,35.4117 28.1747,36.1747 27.9712,36.9712 27.7998,37.7998 " style="fill-opacity:0; stroke-opacity:0.8; stroke:#00FF00; stroke-width:0.2"/>
<polyline points="34.1768,29.3976 33.5859,29.6243 32.9922,29.912 32.402,30.2579 31.8218,30.659 31.2579,31.1126 30.7166,31.6157 30.2044,32.1656 29.7275,32.7593 29.2925,33.3941 28.9055,34.067 28.5731,34.7752 28.3015,35.5159 28.0972,36.2862 27.9665,37.0832 27.9158,37.9041 27.9514,38.746 28.0797,39.6061 28.3071,40.4816 28.6399,41.3695 29.0846,42.267 " style="fill-opacity:0; stroke-opacity:0.8; stroke:#00FF00; stroke-width:0.2"/>
<polyline points="31.3235,31.2976 30.6979,31.6437 30.1381,32.0922 29.6442,32.6316 29.2161,33.2507 28.8539,33.938 28.5576,34.6822 28.3271,35.4718 28.1624,36.2956 28.0637,37.1421 28.0307,38 28.0637,38.8579 28.1624,39.7044 28.3271,40.5282 28.5576,41.3178 28.8539,42.062 29.2161,42.7493 29.6442,43.3684 30.1381,43.9078 30.6979,44.3563 31.3235,44.7024 " style="fill-opacity:0; stroke-opacity:0.8; stroke:#00FF00; stroke-width:0.2"/>
<polyline points="29.0846,33.733 28.6399,34.6305 28.3071,35.5184 28.0797,36.3939 27.9514,37.254 27.9158,38.0959 27.9665,38.9168 28.0972,39.7138 28.3015,40.4841 28.5731,41.2248 28.9055,41.933 29.2925,42.6059 29.7275,43.2407 30.2044,43.8344 30.7166,44.3843 31.2579,44.8874 31.8218,45.341 32.402,45.7421 32.9922,46.088 33.5859,46.3757 34.1768,46.6024 " style="fill-opacity:0; stroke-opacity:0.8; stroke:#00FF00; stroke-width:0.2"/>
<polyline points="27.7998,38.2002 27.9712,39.0288 28.1747,39.8253 28.4117,40.5883 28.6837,41.3163 28.992,42.008 29.3382,42.6618 29.7235,43.2765 30.1495,43.8505 30.6176,44.3824 31.1291,44.8709 31.6856,45.3144 32.2884,45.7117 32.9389,46.0611 33.6386,46.3614 34.3889,46.6111 35.1912,46.8088 36.0469,46.9531 36.9575,47.0425 37.9243,47.0757 38.9489,47.0511 " style="fill-opacity:0; stroke-opacity:0.8; stroke:#00FF00; stroke-width:0.2"/>
<polyline points="29.1337,42.0997 29.3407,42.6815 29.6437,43.2492 30.0348,43.7973 30.5059,44.3207 31.0491,44.8142 31.6562,45.2724 32.3192,45.6903 33.0301,46.0625 33.7809,46.3838 34.5636,46.6489 35.37,46.8527 36.1922,46.9899 37.0222,47.0552 37.8519,47.0435 38.6732,46.9494 39.4782,46.7678 40.2588,46.4934 41.0069,46.121 41.7147,45.6454 42.3739,45.0613 " style="fill-opacity:0; stroke-opacity:0.8; stroke:#00FF00; stroke-width:0.2"/>
<polyline points="31.0361,44.6908 31.6239,45.2887 32.2735,45.7909 32.976,46.2011 33.7227,46.523 34.505,46.7603 35.3141,46.9167 36.1412,46.996 36.9776,47.0018 37.8146,46.938 38.6433,46.8081 39.4552,46.616 40.2415,46.3654 40.9933,46.0599 41.702,45.7034 42.3589,45.2994 42.9552,44.8518 43.4821,44.3643 43.931,43.8406 44.2931,43.2844 44.5596,42.6994 " style="fill-opacity:0; stroke-opacity:0.8; stroke:#00FF00; stroke-width:0.2"/>
<polyline points="33.947,46.947 35.0535,47.0534 36.0929,47.0929 37.0678,47.0678 37.9807,46.9807 38.834,46.834 39.6303,46.6303 40.372,46.372 41.0616,46.0616 41.7017,45.7017 42.2945,45.2945 42.8428,44.8428 43.3489,44.3489 43.8153,43.8153 44.2446,43.2446 44.6391,42.6391 45.0014,42.0014 45.334,41.334 45.6394,40.6394 45.92,39.92 46.1783,39.1783 " style="fill-opacity:0; stroke-opacity:0.8; stroke:#00FF00; stroke-width:0.2"/>
<polyline points="39.1262,46.9438 39.7391,46.7007 40.3565,46.4141 40.9723,46.0845 41.5805,45.7124 42.1749,45.2984 42.7495,44.8429 43.2983,44.3464 43.8151,43.8096 44.2939,43.2329 44.7287,42.6169 45.1133,41.962 45.4417,41.2687 45.7078,40.5377 45.9057,39.7694 46.0291,38.9643 46.072,38.123 46.0284,37.246 45.8922,36.3337 45.6573,35.3868 45.3176,34.4057 " style="fill-opacity:0; stroke-opacity:0.8; stroke:#00FF00; stroke-width:0.2"/>
<polyline points="42.0548,44.9136 42.6973,44.712 43.2892,44.3856 43.8284,43.9472 44.3129,43.4098 44.7409,42.7862 45.1104,42.0894 45.4195,41.3322 45.6662,40.5275 45.8486,39.6883 45.9647,38.8274 46.0126,37.9577 45.9904,37.0922 45.896,36.2437 45.7277,35.4252 45.4834,34.6494 45.1611,33.9294 44.759,33.278 44.2751,32.7081 43.7075,32.2326 43.0542,31.8645 " style="fill-opacity:0; stroke-opacity:0.8; stroke:#00FF00; stroke-width:0.2"/>
<polyline points="44.7385,43.0024 45.16,42.1856 45.4941,41.3516 45.7441,40.5061 45.9132,39.6549 46.0045,38.8037 46.0212,37.9583 45.9666,37.1243 45.8438,36.3076 45.6561,35.5139 45.4067,34.7489 45.0987,34.0184 44.7353,33.3281 44.3198,32.6838 43.8554,32.0912 43.3452,31.556 42.7925,31.084 42.2005,30.681 41.5723,30.3526 40.9112,30.1046 40.2203,29.9429 " style="fill-opacity:0; stroke-opacity:0.8; stroke:#00FF00; stroke-width:0.2"/>
<polyline points="46.1457,38.8543 46.0734,37.9266 45.9561,37.0439 45.7938,36.2062 45.5864,35.4136 45.3341,34.6659 45.0367,33.9633 44.6942,33.3057 44.3068,32.6932 43.8743,32.1256 43.3969,31.6031 42.8743,31.1256 42.3068,30.6932 41.6943,30.3057 41.0367,29.9633 40.3341,29.6659 39.5864,29.4136 38.7938,29.2062 37.9561,29.0439 37.0734,28.9266 36.1457,28.8543 " style="fill-opacity:0; stroke-opacity:0.8; stroke:#00FF00; stroke-width:0.2"/>
<polyline points="45.0571,34.7797 44.8953,34.0888 44.6474,33.4277 44.319,32.7995 43.916,32.2075 43.444,31.6548 42.9088,31.1446 42.3162,30.6802 41.6719,30.2647 40.9816,29.9013 40.2511,29.5933 39.4861,29.3439 38.6924,29.1562 37.8757,29.0334 37.0417,28.9788 36.1963,28.9955 35.3451,29.0868 34.4939,29.2559 33.6484,29.5059 32.8144,29.84 31.9976,30.2615 " style="fill-opacity:0; stroke-opacity:0.8; stroke:#00FF00; stroke-width:0.2"/>
<polyline points="43.1355,31.9458 42.7674,31.2925 42.2919,30.7249 41.722,30.241 41.0706,29.8389 40.3506,29.5166 39.5748,29.2723 38.7563,29.104 37.9078,29.0096 37.0423,28.9874 36.1726,29.0353 35.3117,29.1514 34.4725,29.3338 33.6678,29.5805 32.9106,29.8896 32.2138,30.2591 31.5902,30.6871 31.0528,31.1716 30.6144,31.7108 30.288,32.3027 30.0864,32.9452 " style="fill-opacity:0; stroke-opacity:0.8; stroke:#00FF00; stroke-width:0.2"/>
<polyline points="39.8684,40.3768 40.153,38.9629 40.2279,37.7514 40.1187,36.7346 39.8512,35.9048 39.4511,35.2543 38.9442,34.7753 38.3561,34.46 37.7127,34.3009 37.0396,34.2902 36.3625,34.4201 35.7073,34.6829 35.0995,35.0709 34.565,35.5765 34.1294,36.1918 33.8186,36.9091 33.6581,37.7208 33.6738,38.6191 33.8914,39.5963 34.3365,40.6446 35.035,41.7564 " style="fill-opacity:0; stroke-opacity:0.8; stroke:#00FF00; stroke-width:0.2"/>
<polyline points="39.9652,35.5786 39.154,34.7705 38.3503,34.2576 37.5688,34.0101 36.824,33.9984 36.1305,34.1925 35.503,34.5627 34.9561,35.0792 34.5043,35.7123 34.1623,36.4322 33.9446,37.2091 33.8645,38.0122 33.9294,38.8072 34.1452,39.5583 34.518,40.2303 35.0537,40.7876 35.7583,41.1948 36.6379,41.4164 37.6983,41.4168 38.9457,41.1607 40.3859,40.6125 " style="fill-opacity:0; stroke-opacity:0.8; stroke:#00FF00; stroke-width:0.2"/>
<polyline points="36.5761,34.0346 35.5442,34.4099 34.7523,34.956 34.1869,35.6339 33.8341,36.4048 33.6802,37.2296 33.7115,38.0694 33.9143,38.8852 34.2748,39.6382 34.7793,40.2894 35.4141,40.7998 36.1593,41.1365 36.9704,41.291 37.797,41.2609 38.5885,41.0438 39.2943,40.6371 39.864,40.0384 40.2468,39.2453 40.3923,38.2553 40.25,37.066 39.7693,35.675 " style="fill-opacity:0; stroke-opacity:0.8; stroke:#00FF00; stroke-width:0.2"/>
<polyline points="33.865,36.7025 33.7118,38.1001 33.8371,39.2273 34.1937,40.0988 34.7343,40.7291 35.4115,41.1325 36.178,41.3237 36.9866,41.3172 37.7899,41.1274 38.5407,40.7688 39.1915,40.256 39.7019,39.6076 40.0587,38.8586 40.2557,38.0481 40.2865,37.2153 40.1446,36.3994 39.8239,35.6394 39.318,34.9746 38.6204,34.444 37.7249,34.0869 36.6252,33.9423 " style="fill-opacity:0; stroke-opacity:0.8; stroke:#00FF00; stroke-width:0.2"/>
<polyline points="34.6377,40.9417 36.1017,41.2453 37.3151,41.2917 38.293,41.1153 39.0503,40.7502 39.6017,40.2306 39.9624,39.5906 40.147,38.8646 40.1707,38.0867 40.0483,37.291 39.7946,36.5118 39.4251,35.7826 38.9563,35.1337 38.4054,34.595 37.7894,34.196 37.1252,33.9666 36.4301,33.9365 35.721,34.1354 35.0151,34.5929 34.3292,35.3388 33.6806,36.4029 " style="fill-opacity:0; stroke-opacity:0.8; stroke:#00FF00; stroke-width:0.2"/>
<polyline points="39.6962,41.3123 40.1045,39.9757 40.2986,38.7799 40.3025,37.7247 40.1399,36.8102 39.8347,36.0365 39.4104,35.4034 38.8911,34.911 38.3004,34.5592 37.6621,34.3482 37,34.2779 36.3379,34.3482 35.6996,34.5592 35.1089,34.911 34.5896,35.4034 34.1653,36.0365 33.86,36.8102 33.6975,37.7247 33.7014,38.7799 33.8955,39.9757 34.3038,41.3123 " style="fill-opacity:0; stroke-opacity:0.8; stroke:#00FF00; stroke-width:0.2"/>
</svg>
