<?xml version="1.0" standalone="no"?>
<!DOCTYPE svg PUBLIC "-//W3C//DTD SVG 1.1//EN"
"http://www.w3.org/Graphics/SVG/1.1/DTD/svg11.dtd">
<svg width="30" height="30" version="1.1" xmlns:xlink="http://www.w3.org/1999/xlink" xmlns="http://www.w3.org/2000/svg">
<polyline points="9.58098,-0.419016 8.66898,-0.331023 7.75697,-0.243029 6.84496,-0.155036 5.93296,-0.0670425 5.02095,0.0209508 4.10894,0.108944 3.19694,0.196938 2.28493,0.284931 1.37292,0.372924 0.460918,0.460918 0.372924,1.37292 0.284931,2.28493 0.196938,3.19694 0.108944,4.10894 0.0209508,5.02095 -0.0670426,5.93296 -0.155036,6.84496 -0.243029,7.75697 -0.331023,8.66898 -0.419016,9.58098 " style="fill-opacity:0; stroke-opacity:0.8; stroke:#00FF00; stroke-width:0.2"/>
<polyline points="6.62236,-0.377639 5.71495,-0.285053 4.80753,-0.192466 3.90012,-0.0998795 2.99271,-0.00729284 2.08529,0.0852938 1.4893,0.489301 0.893308,0.893307 0.297314,1.29731 0.0747501,2.07475 -0.147814,2.85219 -0.134208,3.86579 -0.120603,4.8794 -0.106997,5.893 -0.0933909,6.90661 -0.0797851,7.92022 -0.0661792,8.93382 -0.0525734,9.94743 -0.0389676,10.961 -0.0253618,11.9746 -0.0117559,12.9882 " style="fill-opacity:0; stroke-opacity:0.8; stroke:#00FF00; stroke-width:0.2"/>
<polyline points="3.30677,-0.69323 2.67865,-0.32135 2.05053,0.050531 1.42241,0.422412 0.794292,0.794292 0.166173,1.16617 0.105995,2.106 0.045818,3.04582 -0.0143593,3.98564 -0.0745365,4.92547 -0.134714,5.86529 -0.11653,6.88347 -0.0983463,7.90166 -0.0801626,8.91984 -0.0619788,9.93802 -0.0437951,10.9562 -0.0256113,11.9744 -0.00742758,12.9926 0.0107561,14.0108 0.0289399,15.0289 0.0471236,16.0471 " style="fill-opacity:0; stroke-opacity:0.8; stroke:#00FF00; stroke-width:0.2"/>
<polyline points="0.177489,-0.82251 0.164502,0.164503 0.151515,1.15152 0.138528,2.13853 0.125541,3.12554 0.112554,4.11255 0.0995671,5.09957 0.0865801,6.08658 0.0735931,7.07359 0.0606061,8.06061 0.0476191,9.04762 0.034632,10.0346 0.021645,11.0216 0.00865803,12.0087 -0.00432899,12.9957 -0.017316,13.9827 -0.030303,14.9697 -0.04329,15.9567 -0.056277,16.9437 -0.0692641,17.9307 -0.0822511,18.9177 " style="fill-opacity:0; stroke-opacity:0.8; stroke:#00FF00; stroke-width:0.2"/>
<polyline points="0,2 0,3 0,4 0,5 0,6 0,7 0,8 0,9 0,10 0,11 0,12 0,13 0,14 0,15 0,16 0,17 0,18 0,19 0,20 0,21 0,22 " style="fill-opacity:0; stroke-opacity:0.8; stroke:#00FF00; stroke-width:0.2"/>
<polyline points="0,5 0,6 0,7 0,8 0,9 0,10 0,11 0,12 0,13 0,14 0,15 0,16 0,17 0,18 0,19 0,20 0,21 0,22 0,23 0,24 0,25 " style="fill-opacity:0; stroke-opacity:0.8; stroke:#00FF00; stroke-width:0.2"/>
<polyline points="0,8 0,9 0,10 0,11 0,12 0,13 0,14 0,15 0,16 0,17 0,18 0,19 0,20 0,21 0,22 0,23 0,24 0,25 0,26 0,27 0,28 " style="fill-opacity:0; stroke-opacity:0.8; stroke:#00FF00; stroke-width:0.2"/>
<polyline points="0,11 0,12 0,13 0,14 0,15 0,16 0,17 0,18 0,19 0,20 0,21 0,22 0,23 0,24 0,25 0,26 0,27 0,28 0,29 0,30 0,31 " style="fill-opacity:0; stroke-opacity:0.8; stroke:#00FF00; stroke-width:0.2"/>
<polyline points="0,14 0,15 0,16 0,17 0,18 0,19 0,20 0,21 0,22 0,23 0,24 0,25 0,26 0,27 0,28 0,29 0,30 0,31 0,32 0,33 0,34 " style="fill-opacity:0; stroke-opacity:0.8; stroke:#00FF00; stroke-width:0.2"/>
<polyline points="0,17 0,18 0,19 0,20 0,21 0,22 0,23 0,24 0,25 0,26 0,27 0,28 0,29 0,30 0,31 0,32 0,33 0,34 0,35 0,36 0,37 " style="fill-opacity:0; stroke-opacity:0.8; stroke:#00FF00; stroke-width:0.2"/>
<polyline points="0,20 0,21 0,22 0,23 0,24 0,25 0,26 0,27 0,28 0,29 0,30 0,31 0,32 0,33 0,34 0,35 0,36 0,37 0,38 0,39 0,40 " style="fill-opacity:0; stroke-opacity:0.8; stroke:#00FF00; stroke-width:0.2"/>
<polyline points="0,23 0,24 0,25 0,26 0,27 0,28 0,29 0,30 0,31 0,32 0,33 0,34 0,35 0,36 0,37 0,38 0,39 0,40 0,41 0,42 0,43 " style="fill-opacity:0; stroke-opacity:0.8; stroke:#00FF00; stroke-width:0.2"/>
<polyline points="0,26 0,27 0,28 0,29 0,30 0,31 0,32 0,33 0,34 0,35 0,36 0,37 0,38 0,39 0,40 0,41 0,42 0,43 0,44 0,45 0,46 " style="fill-opacity:0; stroke-opacity:0.8; stroke:#00FF00; stroke-width:0.2"/>
<polyline points="0,29 0,30 0,31 0,32 0,33 0,34 0,35 0,36 0,37 0,38 0,39 0,40 0,41 0,42 0,43 0,44 0,45 0,46 0,47 0,48 0,49 " style="fill-opacity:0; stroke-opacity:0.8; stroke:#00FF00; stroke-width:0.2"/>
<polyline points="-0.0822511,32.0823 -0.0692641,33.0693 -0.0562771,34.0563 -0.04329,35.0433 -0.030303,36.0303 -0.017316,37.0173 -0.004329,38.0043 0.00865801,38.9913 0.021645,39.9784 0.034632,40.9654 0.047619,41.9524 0.0606061,42.9394 0.0735931,43.9264 0.0865801,44.9134 0.0995671,45.9004 0.112554,46.8874 0.125541,47.8745 0.138528,48.8615 0.151515,49.8485 0.164502,50.8355 0.177489,51.8225 " style="fill-opacity:0; stroke-opacity:0.8; stroke:#00FF00; stroke-width:0.2"/>
<polyline points="0.0471237,34.9529 0.0289399,35.9711 0.0107561,36.9892 -0.00742764,38.0074 -0.0256114,39.0256 -0.0437952,40.0438 -0.0619789,41.062 -0.0801627,42.0802 -0.0983465,43.0984 -0.11653,44.1165 -0.134714,45.1347 -0.0745365,46.0745 -0.014359,47.0144 0.0458184,47.9542 0.105996,48.894 0.166173,49.8338 0.794293,50.2057 1.42241,50.5776 2.05053,50.9495 2.67865,51.3214 3.30677,51.6932 " style="fill-opacity:0; stroke-opacity:0.8; stroke:#00FF00; stroke-width:0.2"/>
<polyline points="-0.0958851,38.0959 -0.0918185,39.0918 -0.0877518,40.0877 -0.0836852,41.0837 -0.0796186,42.0796 -0.0755519,43.0756 -0.0714853,44.0715 -0.0674186,45.0674 -0.063352,46.0634 -0.0592854,47.0593 -0.0552187,48.0552 0.221937,48.7781 0.499093,49.5009 0.776248,50.2238 1.41847,50.5815 2.0607,50.9393 2.96411,51.0359 3.86752,51.1325 4.77092,51.2291 5.67433,51.3257 6.57774,51.4223 " style="fill-opacity:0; stroke-opacity:0.8; stroke:#00FF00; stroke-width:0.2"/>
<polyline points="-0.419017,41.419 -0.331023,42.331 -0.24303,43.243 -0.155036,44.155 -0.0670428,45.067 0.0209506,45.979 0.108944,46.8911 0.196938,47.8031 0.284931,48.7151 0.372925,49.6271 0.460918,50.5391 1.37292,50.6271 2.28493,50.7151 3.19694,50.8031 4.10894,50.8911 5.02095,50.979 5.93296,51.067 6.84497,51.155 7.75697,51.243 8.66898,51.331 9.58099,51.419 " style="fill-opacity:0; stroke-opacity:0.8; stroke:#00FF00; stroke-width:0.2"/>
<polyline points="-0.377641,44.3776 -0.285054,45.285 -0.192467,46.1925 -0.0998796,47.0999 -0.00729227,48.0073 0.085295,48.9147 0.489302,49.5107 0.893309,50.1067 1.29732,50.7027 2.07475,50.9253 2.85219,51.1478 3.86579,51.1342 4.8794,51.1206 5.893,51.107 6.90661,51.0934 7.92022,51.0798 8.93382,51.0662 9.94743,51.0526 10.961,51.039 11.9746,51.0254 12.9882,51.0118 " style="fill-opacity:0; stroke-opacity:0.8; stroke:#00FF00; stroke-width:0.2"/>
<polyline points="-0.69323,47.6932 -0.32135,48.3214 0.050531,48.9495 0.422412,49.5776 0.794292,50.2057 1.16617,50.8338 2.106,50.894 3.04582,50.9542 3.98564,51.0144 4.92547,51.0745 5.86529,51.1347 6.88347,51.1165 7.90166,51.0984 8.91984,51.0802 9.93802,51.062 10.9562,51.0438 11.9744,51.0256 12.9926,51.0074 14.0108,50.9892 15.0289,50.9711 16.0471,50.9529 " style="fill-opacity:0; stroke-opacity:0.8; stroke:#00FF00; stroke-width:0.2"/>
<polyline points="-0.82251,50.8225 0.164503,50.8355 1.15152,50.8485 2.13853,50.8615 3.12554,50.8745 4.11255,50.8875 5.09957,50.9004 6.08658,50.9134 7.07359,50.9264 8.06061,50.9394 9.04762,50.9524 10.0346,50.9654 11.0216,50.9784 12.0087,50.9913 12.9957,51.0043 13.9827,51.0173 14.9697,51.0303 15.9567,51.0433 16.9437,51.0563 17.9307,51.0693 18.9177,51.0822 " style="fill-opacity:0; stroke-opacity:0.8; stroke:#00FF00; stroke-width:0.2"/>
<polyline points="2,51 3,51 4,51 5,51 6,51 7,51 8,51 9,51 10,51 11,51 12,51 13,51 14,51 15,51 16,51 17,51 18,51 19,51 20,51 21,51 22,51 " style="fill-opacity:0; stroke-opacity:0.8; stroke:#00FF00; stroke-width:0.2"/>
<polyline points="5,51 6,51 7,51 8,51 9,51 10,51 11,51 12,51 13,51 14,51 15,51 16,51 17,51 18,51 19,51 20,51 21,51 22,51 23,51 24,51 25,51 " style="fill-opacity:0; stroke-opacity:0.8; stroke:#00FF00; stroke-width:0.2"/>
<polyline points="8,51 9,51 10,51 11,51 12,51 13,51 14,51 15,51 16,51 17,51 18,51 19,51 20,51 21,51 22,51 23,51 24,51 25,51 26,51 27,51 28,51 " style="fill-opacity:0; stroke-opacity:0.8; stroke:#00FF00; stroke-width:0.2"/>
<polyline points="11,51 12,51 13,51 14,51 15,51 16,51 17,51 18,51 19,51 20,51 21,51 22,51 23,51 24,51 25,51 26,51 27,51 28,51 29,51 30,51 31,51 " style="fill-opacity:0; stroke-opacity:0.8; stroke:#00FF00; stroke-width:0.2"/>
<polyline points="14,51 15,51 16,51 17,51 18,51 19,51 20,51 21,51 22,51 23,51 24,51 25,51 26,51 27,51 28,51 29,51 30,51 31,51 32,51 33,51 34,51 " style="fill-opacity:0; stroke-opacity:0.8; stroke:#00FF00; stroke-width:0.2"/>
<polyline points="17,51 18,51 19,51 20,51 21,51 22,51 23,51 24,51 25,51 26,51 27,51 28,51 29,51 30,51 31,51 32,51 33,51 34,51 35,51 36,51 37,51 " style="fill-opacity:0; stroke-opacity:0.8; stroke:#00FF00; stroke-width:0.2"/>
<polyline points="20,51 21,51 22,51 23,51 24,51 25,51 26,51 27,51 28,51 29,51 30,51 31,51 32,51 33,51 34,51 35,51 36,51 37,51 38,51 39,51 40,51 " style="fill-opacity:0; stroke-opacity:0.8; stroke:#00FF00; stroke-width:0.2"/>
<polyline points="23,51 24,51 25,51 26,51 27,51 28,51 29,51 30,51 31,51 32,51 33,51 34,51 35,51 36,51 37,51 38,51 39,51 40,51 41,51 42,51 43,51 " style="fill-opacity:0; stroke-opacity:0.8; stroke:#00FF00; stroke-width:0.2"/>
<polyline points="26,51 27,51 28,51 29,51 30,51 31,51 32,51 33,51 34,51 35,51 36,51 37,51 38,51 39,51 40,51 41,51 42,51 43,51 44,51 45,51 46,51 " style="fill-opacity:0; stroke-opacity:0.8; stroke:#00FF00; stroke-width:0.2"/>
<polyline points="29,51 30,51 31,51 32,51 33,51 34,51 35,51 36,51 37,51 38,51 39,51 40,51 41,51 42,51 43,51 44,51 45,51 46,51 47,51 48,51 49,51 " style="fill-opacity:0; stroke-opacity:0.8; stroke:#00FF00; stroke-width:0.2"/>
<polyline points="31.977,50.977 32.9856,50.9856 33.9943,50.9943 35.0029,51.0029 36.0116,51.0116 37.0202,51.0202 38.0288,51.0288 39.0375,51.0375 40.0461,51.0461 41.0548,51.0548 42.0634,51.0634 43.0514,51.0515 44.0395,51.0395 45.0276,51.0276 46.0156,51.0156 47.0037,51.0037 47.7785,50.7785 48.5532,50.5532 49.328,50.328 50.1027,50.1027 50.8775,49.8775 " style="fill-opacity:0; stroke-opacity:0.8; stroke:#00FF00; stroke-width:0.2"/>
<polyline points="34.9489,50.9489 35.9743,50.9743 36.9997,50.9997 38.025,51.025 39.0504,51.0504 40.0758,51.0758 41.1011,51.1011 42.1265,51.1265 43.1519,51.1519 44.1772,51.1772 45.2026,51.2026 46.0388,51.0388 46.875,50.875 47.7112,50.7112 48.5474,50.5474 49.3836,50.3836 49.6297,49.6298 49.8759,48.8759 50.1221,48.1221 50.3683,47.3683 50.6145,46.6145 " style="fill-opacity:0; stroke-opacity:0.8; stroke:#00FF00; stroke-width:0.2"/>
<polyline points="38.1885,51.1885 39.161,51.161 40.1335,51.1335 41.106,51.106 42.0785,51.0785 43.0509,51.0509 44.0234,51.0234 44.9959,50.9959 45.9684,50.9684 46.9409,50.9409 47.9134,50.9134 48.5083,50.5083 49.1032,50.1032 49.6981,49.6981 49.9283,48.9283 50.1586,48.1586 50.1753,47.1753 50.192,46.192 50.2086,45.2086 50.2253,44.2253 50.242,43.242 " style="fill-opacity:0; stroke-opacity:0.8; stroke:#00FF00; stroke-width:0.2"/>
<polyline points="41.4173,51.4173 42.2982,51.2982 43.1792,51.1792 44.0601,51.0601 44.941,50.9411 45.822,50.822 46.7029,50.7029 47.5839,50.5839 48.4648,50.4648 49.3458,50.3458 50.2267,50.2267 50.2029,49.2029 50.1791,48.1791 50.1553,47.1553 50.1315,46.1315 50.1077,45.1077 50.0839,44.0839 50.0601,43.0601 50.0363,42.0363 50.0125,41.0125 49.9887,39.9887 " style="fill-opacity:0; stroke-opacity:0.8; stroke:#00FF00; stroke-width:0.2"/>
<polyline points="44.3444,51.3444 45.2568,51.2568 46.1692,51.1693 47.0817,51.0817 47.9941,50.9941 48.9066,50.9066 49.1724,50.1724 49.4382,49.4381 49.704,48.7039 49.9698,47.9697 50.2355,47.2355 50.206,46.2059 50.1764,45.1763 50.1468,44.1468 50.1172,43.1172 50.0876,42.0876 50.058,41.058 50.0284,40.0284 49.9988,38.9988 49.9692,37.9692 49.9396,36.9396 " style="fill-opacity:0; stroke-opacity:0.8; stroke:#00FF00; stroke-width:0.2"/>
<polyline points="47.6992,51.6992 48.1884,51.1884 48.6777,50.6777 49.167,50.167 49.6563,49.6563 50.1456,49.1456 50.1235,48.1235 50.1014,47.1014 50.0793,46.0793 50.0572,45.0572 50.0352,44.0352 50.03,43.03 50.0249,42.0249 50.0198,41.0198 50.0146,40.0146 50.0095,39.0095 50.0044,38.0044 49.9992,36.9992 49.9941,35.9941 49.989,34.989 49.9838,33.9838 " style="fill-opacity:0; stroke-opacity:0.8; stroke:#00FF00; stroke-width:0.2"/>
<polyline points="50,51 50,50 50,49 50,48 50,47 50,46 50,45 50,44 50,43 50,42 50,41 50,40 50,39 50,38 50,37 50,36 50,35 50,34 50,33 50,32 50,31 " style="fill-opacity:0; stroke-opacity:0.8; stroke:#00FF00; stroke-width:0.2"/>
<polyline points="50,48 50,47 50,46 50,45 50,44 50,43 50,42 50,41 50,40 50,39 50,38 50,37 50,36 50,35 50,34 50,33 50,32 50,31 50,30 50,29 50,28 " style="fill-opacity:0; stroke-opacity:0.8; stroke:#00FF00; stroke-width:0.2"/>
<polyline points="50,45 50,44 50,43 50,42 50,41 50,40 50,39 50,38 50,37 50,36 50,35 50,34 50,33 50,32 50,31 50,30 50,29 50,28 50,27 50,26 50,25 " style="fill-opacity:0; stroke-opacity:0.8; stroke:#00FF00; stroke-width:0.2"/>
<polyline points="50,42 50,41 50,40 50,39 50,38 50,37 50,36 50,35 50,34 50,33 50,32 50,31 50,30 50,29 50,28 50,27 50,26 50,25 50,24 50,23 50,22 " style="fill-opacity:0; stroke-opacity:0.8; stroke:#00FF00; stroke-width:0.2"/>
<polyline points="50,39 50,38 50,37 50,36 50,35 50,34 50,33 50,32 50,31 50,30 50,29 50,28 50,27 50,26 50,25 50,24 50,23 50,22 50,21 50,20 50,19 " style="fill-opacity:0; stroke-opacity:0.8; stroke:#00FF00; stroke-width:0.2"/>
<polyline points="50,36 50,35 50,34 50,33 50,32 50,31 50,30 50,29 50,28 50,27 50,26 50,25 50,24 50,23 50,22 50,21 50,20 50,19 50,18 50,17 50,16 " style="fill-opacity:0; stroke-opacity:0.8; stroke:#00FF00; stroke-width:0.2"/>
<polyline points="50,33 50,32 50,31 50,30 50,29 50,28 50,27 50,26 50,25 50,24 50,23 50,22 50,21 50,20 50,19 50,18 50,17 50,16 50,15 50,14 50,13 " style="fill-opacity:0; stroke-opacity:0.8; stroke:#00FF00; stroke-width:0.2"/>
<polyline points="50,30 50,29 50,28 50,27 50,26 50,25 50,24 50,23 50,22 50,21 50,20 50,19 50,18 50,17 50,16 50,15 50,14 50,13 50,12 50,11 50,10 " style="fill-opacity:0; stroke-opacity:0.8; stroke:#00FF00; stroke-width:0.2"/>
<polyline points="50,27 50,26 50,25 50,24 50,23 50,22 50,21 50,20 50,19 50,18 50,17 50,16 50,15 50,14 50,13 50,12 50,11 50,10 50,9 50,8 50,7 " style="fill-opacity:0; stroke-opacity:0.8; stroke:#00FF00; stroke-width:0.2"/>
<polyline points="50,24 50,23 50,22 50,21 50,20 50,19 50,18 50,17 50,16 50,15 50,14 50,13 50,12 50,11 50,10 50,9 50,8 50,7 50,6 50,5 50,4 " style="fill-opacity:0; stroke-opacity:0.8; stroke:#00FF00; stroke-width:0.2"/>
<polyline points="50,21 50,20 50,19 50,18 50,17 50,16 50,15 50,14 50,13 50,12 50,11 50,10 50,9 50,8 50,7 50,6 50,5 50,4 50,3 50,2 50,1 " style="fill-opacity:0; stroke-opacity:0.8; stroke:#00FF00; stroke-width:0.2"/>
<polyline points="49.977,18.023 49.9856,17.0144 49.9943,16.0057 50.0029,14.9971 50.0116,13.9884 50.0202,12.9798 50.0288,11.9712 50.0375,10.9625 50.0461,9.95388 50.0548,8.94524 50.0634,7.9366 50.0515,6.94854 50.0395,5.96048 50.0276,4.97242 50.0156,3.98437 50.0037,2.99631 49.7785,2.22155 49.5532,1.44678 49.328,0.672024 49.1027,-0.102737 48.8775,-0.877499 " style="fill-opacity:0; stroke-opacity:0.8; stroke:#00FF00; stroke-width:0.2"/>
<polyline points="49.9489,15.0511 49.9743,14.0257 49.9997,13.0003 50.025,11.975 50.0504,10.9496 50.0758,9.92423 50.1011,8.89886 50.1265,7.8735 50.1519,6.84813 50.1772,5.82276 50.2026,4.7974 50.0388,3.9612 49.875,3.12501 49.7112,2.28882 49.5474,1.45263 49.3836,0.616433 48.6298,0.370245 47.8759,0.124057 47.1221,-0.12213 46.3683,-0.368318 45.6145,-0.614505 " style="fill-opacity:0; stroke-opacity:0.8; stroke:#00FF00; stroke-width:0.2"/>
<polyline points="50.1885,11.8115 50.161,10.839 50.1335,9.86652 50.106,8.89403 50.0784,7.92155 50.0509,6.94907 50.0234,5.97658 49.9959,5.0041 49.9684,4.03161 49.9409,3.05913 49.9134,2.08664 49.5083,1.49173 49.1032,0.896823 48.6981,0.301914 47.9283,0.0716583 47.1586,-0.158597 46.1753,-0.175282 45.192,-0.191966 44.2086,-0.20865 43.2253,-0.225334 42.242,-0.242019 " style="fill-opacity:0; stroke-opacity:0.8; stroke:#00FF00; stroke-width:0.2"/>
<polyline points="50.4173,8.58274 50.2982,7.7018 50.1791,6.82085 50.0601,5.9399 49.941,5.05895 49.822,4.17801 49.7029,3.29706 49.5839,2.41611 49.4648,1.53516 49.3458,0.654216 49.2267,-0.226732 48.2029,-0.202927 47.1791,-0.179123 46.1553,-0.155318 45.1315,-0.131513 44.1077,-0.107709 43.0839,-0.0839039 42.0601,-0.0600992 41.0363,-0.0362945 40.0125,-0.0124898 38.9887,0.0113149 " style="fill-opacity:0; stroke-opacity:0.8; stroke:#00FF00; stroke-width:0.2"/>
<polyline points="50.3444,5.65562 50.2568,4.74318 50.1692,3.83075 50.0817,2.91832 49.9941,2.00589 49.9065,1.09345 49.1723,0.827656 48.4381,0.56186 47.7039,0.296063 46.9697,0.0302667 46.2355,-0.23553 45.2059,-0.205934 44.1763,-0.176338 43.1468,-0.146742 42.1172,-0.117147 41.0876,-0.0875507 40.058,-0.0579548 39.0284,-0.028359 37.9988,0.00123686 36.9692,0.0308327 35.9396,0.0604286 " style="fill-opacity:0; stroke-opacity:0.8; stroke:#00FF00; stroke-width:0.2"/>
<polyline points="50.6992,2.30085 50.1884,1.81157 49.6777,1.32228 49.167,0.832996 48.6563,0.343712 48.1456,-0.145572 47.1235,-0.123486 46.1014,-0.101399 45.0793,-0.0793125 44.0572,-0.0572258 43.0352,-0.0351392 42.03,-0.0300097 41.0249,-0.0248802 40.0198,-0.0197506 39.0146,-0.0146211 38.0095,-0.00949158 37.0044,-0.00436205 35.9992,0.000767478 34.9941,0.005897 33.989,0.0110265 32.9838,0.0161561 " style="fill-opacity:0; stroke-opacity:0.8; stroke:#00FF00; stroke-width:0.2"/>
<polyline points="50,0 49,0 48,0 47,0 46,0 45,0 44,0 43,0 42,0 41,0 40,0 39,0 38,0 37,0 36,0 35,0 34,0 33,0 32,0 31,0 30,0 " style="fill-opacity:0; stroke-opacity:0.8; stroke:#00FF00; stroke-width:0.2"/>
<polyline points="47,0 46,0 45,0 44,0 43,0 42,0 41,0 40,0 39,0 38,0 37,0 36,0 35,0 34,0 33,0 32,0 31,0 30,0 29,0 28,0 27,0 " style="fill-opacity:0; stroke-opacity:0.8; stroke:#00FF00; stroke-width:0.2"/>
<polyline points="44,0 43,0 42,0 41,0 40,0 39,0 38,0 37,0 36,0 35,0 34,0 33,0 32,0 31,0 30,0 29,0 28,0 27,0 26,0 25,0 24,0 " style="fill-opacity:0; stroke-opacity:0.8; stroke:#00FF00; stroke-width:0.2"/>
<polyline points="41,0 40,0 39,0 38,0 37,0 36,0 35,0 34,0 33,0 32,0 31,0 30,0 29,0 28,0 27,0 26,0 25,0 24,0 23,0 22,0 21,0 " style="fill-opacity:0; stroke-opacity:0.8; stroke:#00FF00; stroke-width:0.2"/>
<polyline points="38,0 37,0 36,0 35,0 34,0 33,0 32,0 31,0 30,0 29,0 28,0 27,0 26,0 25,0 24,0 23,0 22,0 21,0 20,0 19,0 18,0 " style="fill-opacity:0; stroke-opacity:0.8; stroke:#00FF00; stroke-width:0.2"/>
<polyline points="35,0 34,0 33,0 32,0 31,0 30,0 29,0 28,0 27,0 26,0 25,0 24,0 23,0 22,0 21,0 20,0 19,0 18,0 17,0 16,0 15,0 " style="fill-opacity:0; stroke-opacity:0.8; stroke:#00FF00; stroke-width:0.2"/>
<polyline points="32,0 31,0 30,0 29,0 28,0 27,0 26,0 25,0 24,0 23,0 22,0 21,0 20,0 19,0 18,0 17,0 16,0 15,0 14,0 13,0 12,0 " style="fill-opacity:0; stroke-opacity:0.8; stroke:#00FF00; stroke-width:0.2"/>
<polyline points="29,0 28,0 27,0 26,0 25,0 24,0 23,0 22,0 21,0 20,0 19,0 18,0 17,0 16,0 15,0 14,0 13,0 12,0 11,0 10,0 9,0 " style="fill-opacity:0; stroke-opacity:0.8; stroke:#00FF00; stroke-width:0.2"/>
<polyline points="26,0 25,0 24,0 23,0 22,0 21,0 20,0 19,0 18,0 17,0 16,0 15,0 14,0 13,0 12,0 11,0 10,0 9,0 8,0 7,0 6,0 " style="fill-opacity:0; stroke-opacity:0.8; stroke:#00FF00; stroke-width:0.2"/>
<polyline points="23,0 22,0 21,0 20,0 19,0 18,0 17,0 16,0 15,0 14,0 13,0 12,0 11,0 10,0 9,0 8,0 7,0 6,0 5,0 4,0 3,0 " style="fill-opacity:0; stroke-opacity:0.8; stroke:#00FF00; stroke-width:0.2"/>
<polyline points="20,0 19,0 18,0 17,0 16,0 15,0 14,0 13,0 12,0 11,0 10,0 9,0 8,0 7,0 6,0 5,0 4,0 3,0 2,0 1,0 1.7132e-007,0 " style="fill-opacity:0; stroke-opacity:0.8; stroke:#00FF00; stroke-width:0.2"/>
<polyline points="17.0162,0.0161568 16.011,0.011027 15.0059,0.00589721 14.0008,0.000767425 12.9956,-0.00436236 11.9905,-0.00949214 10.9854,-0.0146219 9.98025,-0.0197517 8.97512,-0.0248815 7.96999,-0.0300113 6.96486,-0.0351411 5.94277,-0.0572264 4.92069,-0.0793118 3.8986,-0.101397 2.87652,-0.123482 1.85443,-0.145568 1.34371,0.343715 0.832997,0.832997 0.32228,1.32228 -0.188437,1.81156 -0.699155,2.30084 " style="fill-opacity:0; stroke-opacity:0.8; stroke:#00FF00; stroke-width:0.2"/>
<polyline points="14.0604,0.0604285 13.0308,0.0308327 12.0012,0.00123688 10.9716,-0.028359 9.94204,-0.0579548 8.91245,-0.0875506 7.88285,-0.117146 6.85326,-0.146742 5.82366,-0.176338 4.79407,-0.205934 3.76447,-0.23553 3.03027,0.0302669 2.29606,0.296064 1.56186,0.56186 0.827656,0.827657 0.0934528,1.09345 0.00588575,2.00589 -0.0816813,2.91832 -0.169248,3.83075 -0.256815,4.74318 -0.344382,5.65562 " style="fill-opacity:0; stroke-opacity:0.8; stroke:#00FF00; stroke-width:0.2"/>
<polyline points="11.0113,0.0113146 9.98751,-0.01249 8.96371,-0.0362947 7.9399,-0.0600994 6.9161,-0.0839041 5.89229,-0.107709 4.86849,-0.131513 3.84468,-0.155318 2.82088,-0.179123 1.79707,-0.202927 0.773269,-0.226732 0.654216,0.654216 0.535163,1.53516 0.416111,2.41611 0.297058,3.29706 0.178006,4.17801 0.0589532,5.05895 -0.0600994,5.9399 -0.179152,6.82085 -0.298204,7.7018 -0.417257,8.58274 " style="fill-opacity:0; stroke-opacity:0.8; stroke:#00FF00; stroke-width:0.2"/>
<polyline points="17.7893,10.2194 17.2916,9.71057 16.7938,9.20175 16.2961,8.69292 15.9944,7.96817 15.6927,7.24341 15.3288,6.59665 14.9649,5.94988 14.601,5.30311 14.0243,5.30914 13.4475,5.31517 13.0193,5.9119 12.591,6.50863 12.1628,7.10536 11.7345,7.7021 11.3062,8.29883 11.0016,8.99675 10.697,9.69468 10.3924,10.3926 10.0877,11.0905 9.78311,11.7885 " style="fill-opacity:0; stroke-opacity:0.8; stroke:#00FF00; stroke-width:0.2"/>
<polyline points="16.1939,8.82401 15.9121,8.07847 15.6303,7.33292 15.3485,6.58737 15.015,5.89646 14.6816,5.20554 14.0322,5.22575 13.3828,5.24596 12.9982,5.8694 12.5972,6.52776 12.1961,7.18613 11.7987,7.79413 11.4013,8.40212 11.0038,9.01012 10.6648,9.66855 10.3257,10.327 9.97657,10.9773 9.62746,11.6277 9.27834,12.278 8.73802,12.7378 8.19769,13.1976 " style="fill-opacity:0; stroke-opacity:0.8; stroke:#00FF00; stroke-width:0.2"/>
<polyline points="15.1846,6.769 14.9138,6.01396 14.6431,5.25891 14.0411,5.02833 13.4105,5.2732 13.0056,5.91135 12.6004,6.54083 12.1952,7.17031 11.79,7.79979 11.3933,8.4016 10.9965,9.00342 10.6522,9.65602 10.308,10.3086 10.0154,11.0151 9.61712,11.6169 9.21885,12.2187 8.81233,12.8122 8.4058,13.4057 7.99927,13.9993 7.59869,14.5987 7.19811,15.1981 " style="fill-opacity:0; stroke-opacity:0.8; stroke:#00FF00; stroke-width:0.2"/>
<polyline points="13.7797,4.77971 13.3858,5.38582 12.9919,5.99192 12.661,6.66101 12.212,7.21201 11.763,7.763 11.3696,8.36964 10.9763,8.97628 10.6885,9.6885 10.346,10.346 10.0034,11.0034 9.60412,11.6041 9.20481,12.2048 8.79624,12.7962 8.39427,13.3943 7.9923,13.9923 7.64386,14.6439 7.29543,15.2954 7.02134,16.0213 6.69701,16.697 6.17333,17.1733 " style="fill-opacity:0; stroke-opacity:0.8; stroke:#00FF00; stroke-width:0.2"/>
<polyline points="12.7602,6.76019 12.2845,7.28454 11.8089,7.80888 11.3332,8.33323 10.998,8.99797 10.6627,9.66271 10.315,10.315 9.96736,10.9674 9.61968,11.6197 9.20202,12.202 8.78436,12.7844 8.41957,13.4196 8.05478,14.0548 7.68999,14.69 7.33621,15.3362 6.98243,15.9824 6.5834,16.5834 6.18437,17.1844 5.78534,17.7853 5.33776,18.3378 4.89017,18.8902 " style="fill-opacity:0; stroke-opacity:0.8; stroke:#00FF00; stroke-width:0.2"/>
<polyline points="11.2413,8.24134 10.9261,8.92608 10.6108,9.61082 10.2956,10.2956 9.98029,10.9803 9.66502,11.665 9.23797,12.238 8.81091,12.8109 8.38386,13.3839 8.04236,14.0424 7.70087,14.7009 7.32207,15.3221 6.94327,15.9433 6.56447,16.5645 6.18568,17.1857 5.80688,17.8069 5.42342,18.4234 5.03997,19.04 4.65651,19.6565 4.27306,20.2731 3.8896,20.8896 " style="fill-opacity:0; stroke-opacity:0.8; stroke:#00FF00; stroke-width:0.2"/>
<polyline points="10.2642,10.2642 9.91069,10.9107 9.5572,11.5572 9.20371,12.2037 8.79762,12.7976 8.39153,13.3915 8.03451,14.0345 7.67749,14.6775 7.32047,15.3205 6.97522,15.9752 6.62998,16.63 6.20738,17.2074 5.78478,17.7848 5.36218,18.3622 5.01976,19.0198 4.67734,19.6773 4.33715,20.3372 3.99696,20.997 3.65677,21.6568 3.28394,22.2839 2.91112,22.9111 " style="fill-opacity:0; stroke-opacity:0.8; stroke:#00FF00; stroke-width:0.2"/>
<polyline points="9.06606,12.066 8.71647,12.7165 8.36689,13.3669 8.01731,14.0174 7.67171,14.6719 7.32612,15.3264 6.97426,15.9742 6.62241,16.6221 6.27055,17.2699 5.78378,17.7806 5.29701,18.2914 4.97956,18.978 4.66211,19.6646 4.34466,20.3512 4.02722,21.0378 3.70977,21.7244 3.19532,22.2648 2.68087,22.8051 2.2343,23.2332 2.42932,23.6903 2.62434,24.1475 " style="fill-opacity:0; stroke-opacity:0.8; stroke:#00FF00; stroke-width:0.2"/>
<polyline points="8.10794,14.1076 7.72701,14.7269 7.34609,15.3463 6.96516,15.9656 6.58424,16.585 6.20331,17.2044 5.81777,17.8177 5.43223,18.4311 5.04669,19.0445 4.66115,19.6579 4.27561,20.2713 3.95739,20.9564 3.63918,21.6416 3.32096,22.3267 2.62032,22.8453 1.91968,23.364 2.53635,23.6242 3.15303,23.8845 3.7697,24.1448 4.89529,24.0663 6.02089,23.9878 " style="fill-opacity:0; stroke-opacity:0.8; stroke:#00FF00; stroke-width:0.2"/>
<polyline points="7.05563,15.9825 6.65124,16.6089 6.24684,17.2352 5.84245,17.8616 5.43805,18.4879 5.03366,19.1142 4.62926,19.7406 4.22486,20.3669 3.82047,20.9932 3.41607,21.6196 3.01168,22.2459 2.85393,22.7294 2.69617,23.213 2.53842,23.6965 3.17787,23.8736 3.81731,24.0508 4.84794,24.0459 5.87858,24.0409 6.90922,24.036 7.93985,24.0311 8.97049,24.0262 " style="fill-opacity:0; stroke-opacity:0.8; stroke:#00FF00; stroke-width:0.2"/>
<polyline points="5.4685,17.9746 5.16012,18.5599 4.85173,19.1453 4.54335,19.7306 4.23496,20.3159 3.92657,20.9013 3.61819,21.4866 3.3098,22.0719 3.00142,22.6573 2.69303,23.2426 2.38464,23.8279 3.31121,23.8608 4.23778,23.8936 5.16435,23.9265 6.09092,23.9593 7.01748,23.9922 7.94405,24.025 8.87062,24.0579 9.79719,24.0907 10.7238,24.1236 11.6503,24.1564 " style="fill-opacity:0; stroke-opacity:0.8; stroke:#00FF00; stroke-width:0.2"/>
<polyline points="4.69409,19.8571 4.28404,20.4519 3.87399,21.0467 3.46393,21.6416 3.05388,22.2364 2.64383,22.8312 2.79343,23.1907 2.94303,23.5501 3.09263,23.9096 3.93597,23.9941 4.77932,24.0787 5.80929,24.0682 6.83927,24.0578 7.86924,24.0473 8.89922,24.0369 9.9292,24.0264 10.9592,24.016 11.9892,24.0055 13.0191,23.9951 14.0491,23.9846 15.0791,23.9742 " style="fill-opacity:0; stroke-opacity:0.8; stroke:#00FF00; stroke-width:0.2"/>
<polyline points="3.06384,21.9848 3.01598,22.3821 2.96812,22.7794 2.92025,23.1768 2.87239,23.5741 2.82453,23.9715 3.84726,23.9843 4.86999,23.9972 5.89273,24.01 6.91546,24.0229 7.9382,24.0357 8.94709,24.0307 9.95599,24.0257 10.9649,24.0207 11.9738,24.0156 12.9827,24.0106 13.9916,24.0056 15.0005,24.0006 16.0094,23.9956 17.0183,23.9906 18.0272,23.9856 " style="fill-opacity:0; stroke-opacity:0.8; stroke:#00FF00; stroke-width:0.2"/>
<polyline points="1.17749,23.8225 2.1645,23.8355 3.15152,23.8485 4.13853,23.8615 5.12554,23.8745 6.11255,23.8874 7.09957,23.9004 8.08658,23.9134 9.07359,23.9264 10.0606,23.9394 11.0476,23.9524 12.0346,23.9654 13.0216,23.9784 14.0087,23.9913 14.9957,24.0043 15.9827,24.0173 16.9697,24.0303 17.9567,24.0433 18.9437,24.0563 19.9307,24.0693 20.9177,24.0823 " style="fill-opacity:0; stroke-opacity:0.8; stroke:#00FF00; stroke-width:0.2"/>
<polyline points="4,24 5,24 6,24 7,24 8,24 9,24 10,24 11,24 12,24 13,24 14,24 15,24 16,24 17,24 18,24 19,24 20,24 21,24 22,24 23,24 24,24 " style="fill-opacity:0; stroke-opacity:0.8; stroke:#00FF00; stroke-width:0.2"/>
<polyline points="6.97343,23.9884 7.9838,23.9932 8.99416,23.998 10.0045,24.0028 11.0149,24.0076 12.0253,24.0124 13.0356,24.0172 14.046,24.022 15.0564,24.0268 16.0667,24.0317 17.0771,24.0365 18.0605,24.0244 19.0438,24.0124 20.0272,24.0004 21.0106,23.9883 21.994,23.9763 22.7523,23.8599 23.5106,23.7435 24.269,23.6271 24.7744,23.4193 25.2798,23.2116 " style="fill-opacity:0; stroke-opacity:0.8; stroke:#00FF00; stroke-width:0.2"/>
<polyline points="9.92206,23.9634 10.954,23.9788 11.9859,23.9943 13.0178,24.0098 14.0497,24.0252 15.0816,24.0407 16.1135,24.0561 17.1454,24.0716 18.1773,24.0871 19.2092,24.1025 20.2411,24.118 21.0696,24.0218 21.8981,23.9256 22.7265,23.8294 23.555,23.7332 24.3835,23.637 24.287,23.1184 24.1905,22.5997 24.094,22.0811 23.9975,21.5624 23.901,21.0438 " style="fill-opacity:0; stroke-opacity:0.8; stroke:#00FF00; stroke-width:0.2"/>
<polyline points="13.0479,24.0394 14.0523,24.0368 15.0568,24.0343 16.0612,24.0317 17.0656,24.0292 18.07,24.0266 19.0744,24.024 20.0789,24.0215 21.0833,24.0189 22.0877,24.0164 23.0921,24.0138 23.5653,23.7359 24.0384,23.4579 24.5116,23.18 24.3778,22.657 24.244,22.1341 23.7955,21.5255 23.347,20.917 22.8985,20.3085 22.4501,19.7 22.0016,19.0914 " style="fill-opacity:0; stroke-opacity:0.8; stroke:#00FF00; stroke-width:0.2"/>
<polyline points="16.198,24.1327 17.1327,24.0888 18.0673,24.0448 19.0019,24.0008 19.9366,23.9569 20.8712,23.9129 21.8058,23.8689 22.7404,23.825 23.6751,23.781 24.6097,23.737 25.5443,23.6931 24.6798,22.8741 23.8153,22.0552 23.7798,21.179 23.2447,20.7372 22.7097,20.2954 22.3523,19.6514 21.9949,19.0075 21.6376,18.3635 21.2802,17.7195 20.9228,17.0755 " style="fill-opacity:0; stroke-opacity:0.8; stroke:#00FF00; stroke-width:0.2"/>
<polyline points="19.0563,24.0432 20.0694,24.0364 21.0824,24.0296 22.0955,24.0227 23.1086,24.0159 24.1216,24.0091 24.256,23.5955 24.3904,23.1819 24.5248,22.7684 24.1745,22.0722 23.8242,21.3761 23.319,20.8122 22.8138,20.2484 22.3086,19.6845 21.9953,18.994 21.6819,18.3034 21.3331,17.6561 20.9843,17.0087 20.6355,16.3613 20.2867,15.7139 19.9379,15.0665 " style="fill-opacity:0; stroke-opacity:0.8; stroke:#00FF00; stroke-width:0.2"/>
<polyline points="22.288,24.1615 23.0838,24.0138 23.8796,23.866 24.6755,23.7183 24.5894,23.2048 24.5034,22.6912 24.0745,22.079 23.6455,21.4668 23.2165,20.8546 22.7875,20.2424 22.3585,19.6301 22.0187,18.9714 21.679,18.3127 21.3392,17.654 20.9994,16.9952 20.6597,16.3365 20.3199,15.6778 19.9801,15.0191 19.6404,14.3603 19.3006,13.7016 18.9608,13.0429 " style="fill-opacity:0; stroke-opacity:0.8; stroke:#00FF00; stroke-width:0.2"/>
<polyline points="25.096,23.904 24.7218,23.2782 24.3477,22.6523 23.9736,22.0264 23.5802,21.4198 23.1868,20.8132 22.8085,20.1915 22.4302,19.5698 22.052,18.948 21.6737,18.3263 21.2954,17.7046 20.9729,17.0271 20.6504,16.3496 20.3279,15.6721 20.0053,14.9947 19.6828,14.3172 19.3349,13.6651 18.9869,13.0131 18.6389,12.3611 18.291,11.709 17.943,11.057 " style="fill-opacity:0; stroke-opacity:0.8; stroke:#00FF00; stroke-width:0.2"/>
<polyline points="24.0487,21.9513 23.6424,21.3576 23.2361,20.7639 22.8298,20.1703 22.4234,19.5766 22.0171,18.9829 21.6771,18.3229 21.3371,17.6629 20.9971,17.0029 20.6571,16.3429 20.3171,15.6829 19.9834,15.0166 19.6497,14.3503 19.316,13.684 18.9823,13.0177 18.6486,12.3514 18.3148,11.6852 17.9811,11.0189 17.6474,10.3526 17.3137,9.68629 16.98,9.01999 " style="fill-opacity:0; stroke-opacity:0.8; stroke:#00FF00; stroke-width:0.2"/>
<polyline points="22.7316,20.2684 22.3804,19.6196 22.0293,18.9707 21.6781,18.3219 21.333,17.667 20.988,17.012 20.6608,16.3392 20.3336,15.6665 20.0063,14.9937 19.6653,14.3347 19.3244,13.6756 18.9913,13.0087 18.6582,12.3418 18.3251,11.6749 17.9863,11.0137 17.6474,10.3526 17.2215,9.77848 16.7956,9.20439 16.3697,8.6303 16.0813,7.91874 15.7928,7.20718 " style="fill-opacity:0; stroke-opacity:0.8; stroke:#00FF00; stroke-width:0.2"/>
<polyline points="21.7321,18.2679 21.3839,17.6161 21.0358,16.9642 20.6876,16.3124 20.3211,15.6789 19.9546,15.0454 19.6523,14.3477 19.3499,13.6501 19.0475,12.9525 18.6702,12.3298 18.2928,11.7072 17.9773,11.0227 17.6617,10.3383 17.3461,9.6539 16.7741,9.22593 16.202,8.79797 15.9287,8.07125 15.6555,7.34453 15.3822,6.61781 15.1089,5.89109 14.8356,5.16437 " style="fill-opacity:0; stroke-opacity:0.8; stroke:#00FF00; stroke-width:0.2"/>
<polyline points="20.7779,16.2221 20.3712,15.6288 19.9645,15.0355 19.6929,14.3071 19.3465,13.6535 19.0002,12.9998 18.6539,12.3461 18.3076,11.6923 18.035,10.9649 17.6241,10.3762 17.2132,9.78742 16.8059,9.19607 16.3985,8.60472 15.9912,8.01337 15.6412,7.34921 15.2913,6.68504 14.9872,5.93892 14.6832,5.19281 14.0234,4.98783 13.4049,5.33539 12.7864,5.68295 " style="fill-opacity:0; stroke-opacity:0.8; stroke:#00FF00; stroke-width:0.2"/>
<polyline points="19.8113,14.1887 19.3494,13.6506 18.8876,13.1124 18.7521,12.2479 18.3823,11.6177 18.0124,10.9876 17.6062,10.3938 17.1999,9.80008 16.8001,9.19983 16.3931,8.60659 15.9861,8.01334 15.6217,7.38139 15.2574,6.74943 15.137,5.86261 14.5679,5.30908 13.9988,4.75556 13.4347,5.31286 12.8706,5.87016 12.7615,6.7684 12.3105,7.31344 11.8595,7.85847 " style="fill-opacity:0; stroke-opacity:0.8; stroke:#00FF00; stroke-width:0.2"/>
<polyline points="18.814,12.1855 18.403,11.5969 17.992,11.0083 17.5809,10.4197 17.1699,9.83108 16.7589,9.24247 16.4001,8.6007 16.0413,7.95893 15.6825,7.31716 15.3878,6.56088 15.0932,5.8046 14.4987,5.52003 13.9042,5.23546 13.3098,4.95089 13.0514,5.86445 12.793,6.778 12.2525,7.24534 11.7119,7.71268 11.1713,8.18001 11.0516,9.05563 10.932,9.93125 " style="fill-opacity:0; stroke-opacity:0.8; stroke:#00FF00; stroke-width:0.2"/>
<polyline points="38.581,4.58099 37.669,4.66898 36.757,4.75697 35.845,4.84496 34.933,4.93296 34.021,5.02095 33.1089,5.10894 32.1969,5.19694 31.2849,5.28493 30.3729,5.37292 29.4609,5.46092 29.3729,6.37292 29.2849,7.28493 29.1969,8.19694 29.1089,9.10894 29.021,10.021 28.933,10.933 28.845,11.845 28.757,12.757 28.669,13.669 28.581,14.581 " style="fill-opacity:0; stroke-opacity:0.8; stroke:#00FF00; stroke-width:0.2"/>
<polyline points="35.6224,4.62236 34.715,4.71495 33.8075,4.80753 32.9001,4.90012 31.9927,4.99271 31.0853,5.0853 30.4893,5.4893 29.8933,5.89331 29.2973,6.29732 29.0748,7.07475 28.8522,7.85219 28.8658,8.86579 28.8794,9.8794 28.893,10.893 28.9066,11.9066 28.9202,12.9202 28.9338,13.9338 28.9474,14.9474 28.961,15.961 28.9746,16.9746 28.9882,17.9882 " style="fill-opacity:0; stroke-opacity:0.8; stroke:#00FF00; stroke-width:0.2"/>
<polyline points="32.3068,4.30677 31.6787,4.67865 31.0505,5.05053 30.4224,5.42241 29.7943,5.79429 29.1662,6.16617 29.106,7.106 29.0458,8.04582 28.9856,8.98564 28.9255,9.92547 28.8653,10.8653 28.8835,11.8835 28.9017,12.9017 28.9198,13.9198 28.938,14.938 28.9562,15.9562 28.9744,16.9744 28.9926,17.9926 29.0108,19.0108 29.0289,20.0289 29.0471,21.0471 " style="fill-opacity:0; stroke-opacity:0.8; stroke:#00FF00; stroke-width:0.2"/>
<polyline points="29.1852,4.25974 29.1663,5.23377 29.1474,6.20779 29.1285,7.18182 29.1096,8.15584 29.0907,9.12987 29.0719,10.1039 29.053,11.0779 29.0341,12.0519 29.0152,13.026 28.9963,14 29.0152,14.974 29.0341,15.9481 29.053,16.9221 29.0719,17.8961 29.0907,18.8701 29.1096,19.8442 29.1285,20.8182 29.1474,21.7922 29.1663,22.7662 29.1852,23.7403 " style="fill-opacity:0; stroke-opacity:0.8; stroke:#00FF00; stroke-width:0.2"/>
<polyline points="29.0471,6.95288 29.0289,7.97106 29.0108,8.98924 28.9926,10.0074 28.9744,11.0256 28.9562,12.0438 28.938,13.062 28.9198,14.0802 28.9016,15.0983 28.8835,16.1165 28.8653,17.1347 28.9255,18.0745 28.9856,19.0144 29.0458,19.9542 29.106,20.894 29.1662,21.8338 29.7943,22.2057 30.4224,22.5776 31.0505,22.9495 31.6787,23.3213 32.3068,23.6932 " style="fill-opacity:0; stroke-opacity:0.8; stroke:#00FF00; stroke-width:0.2"/>
<polyline points="28.9041,10.0959 28.9082,11.0918 28.9122,12.0877 28.9163,13.0837 28.9204,14.0796 28.9244,15.0756 28.9285,16.0715 28.9326,17.0674 28.9366,18.0634 28.9407,19.0593 28.9448,20.0552 29.2219,20.7781 29.4991,21.5009 29.7762,22.2238 30.4185,22.5815 31.0607,22.9393 31.9641,23.0359 32.8675,23.1325 33.7709,23.2291 34.6743,23.3257 35.5777,23.4223 " style="fill-opacity:0; stroke-opacity:0.8; stroke:#00FF00; stroke-width:0.2"/>
<polyline points="28.581,13.419 28.669,14.331 28.757,15.243 28.845,16.155 28.933,17.067 29.021,17.9791 29.1089,18.8911 29.1969,19.8031 29.2849,20.7151 29.3729,21.6271 29.4609,22.5391 30.3729,22.6271 31.2849,22.7151 32.1969,22.8031 33.1089,22.8911 34.021,22.9791 34.933,23.067 35.845,23.155 36.757,23.243 37.669,23.331 38.581,23.419 " style="fill-opacity:0; stroke-opacity:0.8; stroke:#00FF00; stroke-width:0.2"/>
<polyline points="28.6224,16.3776 28.715,17.2851 28.8075,18.1925 28.9001,19.0999 28.9927,20.0073 29.0853,20.9147 29.4893,21.5107 29.8933,22.1067 30.2973,22.7027 31.0748,22.9253 31.8522,23.1478 32.8658,23.1342 33.8794,23.1206 34.893,23.107 35.9066,23.0934 36.9202,23.0798 37.9338,23.0662 38.9474,23.0526 39.961,23.039 40.9746,23.0254 41.9882,23.0118 " style="fill-opacity:0; stroke-opacity:0.8; stroke:#00FF00; stroke-width:0.2"/>
<polyline points="28.3068,19.6932 28.6787,20.3214 29.0505,20.9495 29.4224,21.5776 29.7943,22.2057 30.1662,22.8338 31.106,22.894 32.0458,22.9542 32.9856,23.0144 33.9255,23.0745 34.8653,23.1347 35.8835,23.1165 36.9017,23.0983 37.9198,23.0802 38.938,23.062 39.9562,23.0438 40.9744,23.0256 41.9926,23.0074 43.0108,22.9892 44.0289,22.9711 45.0471,22.9529 " style="fill-opacity:0; stroke-opacity:0.8; stroke:#00FF00; stroke-width:0.2"/>
<polyline points="28.2597,22.8148 29.2338,22.8337 30.2078,22.8526 31.1818,22.8715 32.1558,22.8904 33.1299,22.9093 34.1039,22.9282 35.0779,22.947 36.0519,22.9659 37.026,22.9848 38,23.0037 38.974,22.9848 39.9481,22.9659 40.9221,22.947 41.8961,22.9282 42.8701,22.9093 43.8442,22.8904 44.8182,22.8715 45.7922,22.8526 46.7662,22.8337 47.7403,22.8148 " style="fill-opacity:0; stroke-opacity:0.8; stroke:#00FF00; stroke-width:0.2"/>
<polyline points="30.9529,22.9529 31.9711,22.9711 32.9892,22.9892 34.0074,23.0074 35.0256,23.0256 36.0438,23.0438 37.062,23.062 38.0802,23.0802 39.0983,23.0983 40.1165,23.1165 41.1347,23.1347 42.0745,23.0745 43.0144,23.0144 43.9542,22.9542 44.894,22.894 45.8338,22.8338 46.2057,22.2057 46.5776,21.5776 46.9495,20.9495 47.3214,20.3214 47.6932,19.6932 " style="fill-opacity:0; stroke-opacity:0.8; stroke:#00FF00; stroke-width:0.2"/>
<polyline points="34.0959,23.0959 35.0918,23.0918 36.0877,23.0877 37.0837,23.0837 38.0796,23.0796 39.0755,23.0756 40.0715,23.0715 41.0674,23.0674 42.0633,23.0634 43.0593,23.0593 44.0552,23.0552 44.7781,22.7781 45.5009,22.5009 46.2238,22.2238 46.5815,21.5815 46.9393,20.9393 47.0359,20.0359 47.1325,19.1325 47.2291,18.2291 47.3257,17.3257 47.4223,16.4223 " style="fill-opacity:0; stroke-opacity:0.8; stroke:#00FF00; stroke-width:0.2"/>
<polyline points="37.419,23.419 38.331,23.331 39.243,23.243 40.155,23.155 41.067,23.067 41.979,22.979 42.8911,22.8911 43.8031,22.8031 44.7151,22.7151 45.6271,22.6271 46.5391,22.5391 46.6271,21.6271 46.7151,20.7151 46.8031,19.8031 46.8911,18.8911 46.979,17.9791 47.067,17.067 47.155,16.155 47.243,15.243 47.331,14.331 47.419,13.419 " style="fill-opacity:0; stroke-opacity:0.8; stroke:#00FF00; stroke-width:0.2"/>
<polyline points="40.3776,23.3776 41.2851,23.2851 42.1925,23.1925 43.0999,23.0999 44.0073,23.0073 44.9147,22.9147 45.5107,22.5107 46.1067,22.1067 46.7027,21.7027 46.9252,20.9252 47.1478,20.1478 47.1342,19.1342 47.1206,18.1206 47.107,17.107 47.0934,16.0934 47.0798,15.0798 47.0662,14.0662 47.0526,13.0526 47.039,12.039 47.0254,11.0254 47.0118,10.0118 " style="fill-opacity:0; stroke-opacity:0.8; stroke:#00FF00; stroke-width:0.2"/>
<polyline points="43.6932,23.6932 44.3213,23.3213 44.9495,22.9495 45.5776,22.5776 46.2057,22.2057 46.8338,21.8338 46.894,20.894 46.9542,19.9542 47.0144,19.0144 47.0746,18.0745 47.1347,17.1347 47.1165,16.1165 47.0984,15.0983 47.0802,14.0802 47.062,13.062 47.0438,12.0438 47.0256,11.0256 47.0074,10.0074 46.9892,8.98925 46.9711,7.97106 46.9529,6.95288 " style="fill-opacity:0; stroke-opacity:0.8; stroke:#00FF00; stroke-width:0.2"/>
<polyline points="46.8148,23.7403 46.8337,22.7662 46.8526,21.7922 46.8715,20.8182 46.8904,19.8442 46.9093,18.8701 46.9282,17.8961 46.947,16.9221 46.9659,15.9481 46.9848,14.974 47.0037,14 46.9848,13.026 46.9659,12.052 46.947,11.0779 46.9282,10.1039 46.9093,9.12987 46.8904,8.15585 46.8715,7.18182 46.8526,6.20779 46.8337,5.23377 46.8148,4.25974 " style="fill-opacity:0; stroke-opacity:0.8; stroke:#00FF00; stroke-width:0.2"/>
<polyline points="46.9529,21.0471 46.9711,20.0289 46.9892,19.0108 47.0074,17.9926 47.0256,16.9744 47.0438,15.9562 47.062,14.938 47.0802,13.9198 47.0983,12.9017 47.1165,11.8835 47.1347,10.8653 47.0745,9.92546 47.0144,8.98564 46.9542,8.04582 46.894,7.106 46.8338,6.16618 46.2057,5.79429 45.5776,5.42241 44.9495,5.05053 44.3214,4.67865 43.6932,4.30677 " style="fill-opacity:0; stroke-opacity:0.8; stroke:#00FF00; stroke-width:0.2"/>
<polyline points="47.0959,17.9041 47.0918,16.9082 47.0877,15.9122 47.0837,14.9163 47.0796,13.9204 47.0755,12.9244 47.0715,11.9285 47.0674,10.9326 47.0634,9.93665 47.0593,8.94071 47.0552,7.94478 46.7781,7.22194 46.5009,6.49909 46.2238,5.77625 45.5815,5.41847 44.9393,5.0607 44.0359,4.96411 43.1325,4.86752 42.2291,4.77093 41.3257,4.67433 40.4222,4.57774 " style="fill-opacity:0; stroke-opacity:0.8; stroke:#00FF00; stroke-width:0.2"/>
<polyline points="47.419,14.581 47.331,13.669 47.243,12.757 47.155,11.845 47.067,10.933 46.979,10.021 46.8911,9.10894 46.8031,8.19694 46.7151,7.28493 46.6271,6.37292 46.5391,5.46092 45.6271,5.37292 44.7151,5.28493 43.8031,5.19694 42.8911,5.10894 41.979,5.02095 41.067,4.93296 40.155,4.84496 39.243,4.75697 38.331,4.66898 37.419,4.58098 " style="fill-opacity:0; stroke-opacity:0.8; stroke:#00FF00; stroke-width:0.2"/>
<polyline points="47.3776,11.6224 47.2851,10.7149 47.1925,9.80753 47.0999,8.90012 47.0073,7.99271 46.9147,7.08529 46.5107,6.4893 46.1067,5.89331 45.7027,5.29732 44.9253,5.07475 44.1478,4.85219 43.1342,4.86579 42.1206,4.8794 41.107,4.893 40.0934,4.90661 39.0798,4.92021 38.0662,4.93382 37.0526,4.94743 36.039,4.96103 35.0254,4.97464 34.0118,4.98824 " style="fill-opacity:0; stroke-opacity:0.8; stroke:#00FF00; stroke-width:0.2"/>
<polyline points="47.6932,8.30678 47.3214,7.67865 46.9495,7.05053 46.5776,6.42241 46.2057,5.79429 45.8338,5.16617 44.894,5.10599 43.9542,5.04582 43.0144,4.98564 42.0745,4.92546 41.1347,4.86529 40.1165,4.88347 39.0984,4.90166 38.0802,4.91984 37.062,4.93802 36.0438,4.95621 35.0256,4.97439 34.0074,4.99257 32.9893,5.01076 31.9711,5.02894 30.9529,5.04712 " style="fill-opacity:0; stroke-opacity:0.8; stroke:#00FF00; stroke-width:0.2"/>
<polyline points="47.7403,5.18519 46.7662,5.1663 45.7922,5.14741 44.8182,5.12852 43.8442,5.10963 42.8701,5.09074 41.8961,5.07185 40.9221,5.05296 39.9481,5.03407 38.974,5.01518 38,4.9963 37.026,5.01519 36.0519,5.03407 35.0779,5.05296 34.1039,5.07185 33.1299,5.09074 32.1558,5.10963 31.1818,5.12852 30.2078,5.14741 29.2338,5.1663 28.2597,5.18519 " style="fill-opacity:0; stroke-opacity:0.8; stroke:#00FF00; stroke-width:0.2"/>
<polyline points="45.0471,5.04712 44.0289,5.02894 43.0107,5.01076 41.9926,4.99257 40.9744,4.97439 39.9562,4.95621 38.938,4.93802 37.9198,4.91984 36.9016,4.90165 35.8835,4.88347 34.8653,4.86529 33.9255,4.92546 32.9856,4.98564 32.0458,5.04582 31.106,5.10599 30.1662,5.16617 29.7943,5.79429 29.4224,6.42241 29.0505,7.05053 28.6787,7.67865 28.3068,8.30677 " style="fill-opacity:0; stroke-opacity:0.8; stroke:#00FF00; stroke-width:0.2"/>
<polyline points="41.9041,4.90412 40.9082,4.90818 39.9123,4.91225 38.9163,4.91632 37.9204,4.92038 36.9244,4.92445 35.9285,4.92851 34.9326,4.93258 33.9366,4.93665 32.9407,4.94071 31.9448,4.94478 31.2219,5.22194 30.4991,5.49909 29.7763,5.77625 29.4185,6.41847 29.0607,7.0607 28.9641,7.96411 28.8675,8.86752 28.7709,9.77092 28.6743,10.6743 28.5777,11.5777 " style="fill-opacity:0; stroke-opacity:0.8; stroke:#00FF00; stroke-width:0.2"/>
<polyline points="20.1605,32.8487 19.696,32.3058 19.2314,31.7629 18.7668,31.22 18.3022,30.6771 17.8377,30.1343 17.2227,29.7556 16.6077,29.377 15.9927,28.9983 15.1795,29.1261 14.3664,29.2539 13.594,29.5194 12.8217,29.785 12.0493,30.0505 11.1885,30.1919 10.3276,30.3334 9.57743,30.5812 8.82726,30.8291 8.07708,31.077 7.41689,31.4166 6.75669,31.7562 " style="fill-opacity:0; stroke-opacity:0.8; stroke:#00FF00; stroke-width:0.2"/>
<polyline points="18.9252,31.1131 18.3352,30.6623 17.7452,30.2116 17.1552,29.7608 16.5652,29.3101 15.9752,28.8593 15.2113,29.1199 14.4475,29.3804 13.6836,29.6409 12.8047,29.7841 11.9258,29.9272 11.1726,30.174 10.4194,30.4208 9.66626,30.6675 8.84445,30.8451 8.02265,31.0227 7.33418,31.3342 6.64572,31.6457 5.95725,31.9572 5.37351,32.3735 4.78976,32.7898 " style="fill-opacity:0; stroke-opacity:0.8; stroke:#00FF00; stroke-width:0.2"/>
<polyline points="17.3178,29.571 16.5839,29.3725 15.85,29.174 15.1161,28.9755 14.4245,29.3169 13.7329,29.6584 12.8484,29.8017 11.9639,29.945 11.0794,30.0883 10.3887,30.3954 9.69807,30.7026 8.87459,30.8774 8.0511,31.0522 7.22762,31.2271 6.5478,31.5474 5.86798,31.8677 5.53439,32.5342 5.20081,33.2007 4.86723,33.8673 4.89732,34.8974 4.92741,35.9274 " style="fill-opacity:0; stroke-opacity:0.8; stroke:#00FF00; stroke-width:0.2"/>
<polyline points="15.1265,29.1265 14.3283,29.3283 13.53,29.53 12.7318,29.7318 11.9335,29.9335 11.1352,30.1353 10.3443,30.3443 9.55343,30.5534 8.76252,30.7625 8.02298,31.023 7.28344,31.2834 6.71422,31.7142 6.145,32.145 5.57578,32.5758 5.3051,33.3051 5.03441,34.0344 4.98783,34.9878 4.94126,35.9413 4.89468,36.8947 4.8481,37.8481 4.80153,38.8015 " style="fill-opacity:0; stroke-opacity:0.8; stroke:#00FF00; stroke-width:0.2"/>
<polyline points="12.4517,29.4517 11.744,29.744 11.0363,30.0363 10.3286,30.3286 9.62084,30.6208 8.91313,30.9131 8.20542,31.2054 7.49771,31.4977 6.78999,31.79 6.08228,32.0823 5.37457,32.3746 5.30566,33.3057 5.23675,34.2367 5.16784,35.1678 5.09893,36.0989 5.03001,37.03 4.9611,37.9611 4.89219,38.8922 4.82328,39.8233 4.75437,40.7544 4.68546,41.6855 " style="fill-opacity:0; stroke-opacity:0.8; stroke:#00FF00; stroke-width:0.2"/>
<polyline points="10.3187,30.3197 9.57798,30.5782 8.83722,30.8368 8.09645,31.0953 7.35569,31.3539 6.61493,31.6124 6.02893,32.0249 5.44294,32.4374 4.85694,32.8499 4.86182,33.9784 4.8667,35.107 4.91169,36.0659 4.95669,37.0247 5.00168,37.9835 5.04668,38.9424 5.09167,39.9012 5.13666,40.86 5.18166,41.8189 5.22665,42.7777 5.27165,43.7365 5.31664,44.6954 " style="fill-opacity:0; stroke-opacity:0.8; stroke:#00FF00; stroke-width:0.2"/>
<polyline points="7.65779,30.6525 7.14438,31.1383 6.63096,31.624 6.11755,32.1097 5.60414,32.5954 5.09073,33.0811 5.04112,34.0625 4.9915,35.0438 4.94189,36.0251 4.89227,37.0065 4.84266,37.9878 4.87864,38.9872 4.91461,39.9866 4.95059,40.9859 4.98656,41.9853 5.02254,42.9847 5.50116,43.506 5.97979,44.0274 6.45841,44.5487 6.93704,45.0701 7.41567,45.5914 " style="fill-opacity:0; stroke-opacity:0.8; stroke:#00FF00; stroke-width:0.2"/>
<polyline points="5.48078,31.5192 5.3702,32.3798 5.25961,33.2404 5.14903,34.101 5.03844,34.9615 4.92786,35.8221 4.90745,36.905 4.88705,37.988 4.86664,39.0709 4.84624,40.1539 4.82583,41.2368 5.07314,41.9737 5.32044,42.7107 5.56775,43.4476 5.81505,44.1846 6.06236,44.9215 6.88172,45.1066 7.70107,45.2916 8.52043,45.4766 9.33978,45.6617 10.1591,45.8467 " style="fill-opacity:0; stroke-opacity:0.8; stroke:#00FF00; stroke-width:0.2"/>
<polyline points="4.80167,34.1983 4.8376,35.1624 4.87354,36.1265 4.90947,37.0905 4.94541,38.0546 4.98135,39.0187 5.01728,39.9827 5.05322,40.9468 5.08915,41.9108 5.12509,42.8749 5.16102,43.839 5.88093,44.1191 6.60084,44.3992 7.32075,44.6793 8.04066,44.9593 8.76057,45.2394 9.48048,45.5195 10.2004,45.7996 10.9203,46.0797 11.6402,46.3598 12.3601,46.6399 " style="fill-opacity:0; stroke-opacity:0.8; stroke:#00FF00; stroke-width:0.2"/>
<polyline points="4.82879,37.1712 4.86429,38.1357 4.89979,39.1002 4.93528,40.0647 4.97078,41.0292 5.00628,41.9937 5.28926,42.7107 5.57223,43.4278 5.85521,44.1448 6.43009,44.5699 7.00498,44.995 7.75538,45.2446 8.50579,45.4942 9.28928,45.7107 10.1168,45.8832 10.9443,46.0557 11.7449,46.2551 12.5456,46.4544 13.3463,46.6537 14.147,46.853 14.9477,47.0523 " style="fill-opacity:0; stroke-opacity:0.8; stroke:#00FF00; stroke-width:0.2"/>
<polyline points="4.76724,40.2328 4.92107,41.0789 5.0749,41.9251 5.22873,42.7713 5.38257,43.6174 5.5364,44.4636 6.31058,44.6894 7.08477,44.9152 7.85895,45.141 8.59752,45.4025 9.3361,45.6639 10.1468,45.8532 10.9576,46.0424 11.7683,46.2317 12.5791,46.4209 13.3898,46.6102 14.1681,46.8319 14.9464,47.0536 15.7247,47.2753 16.315,47.685 16.9053,48.0947 " style="fill-opacity:0; stroke-opacity:0.8; stroke:#00FF00; stroke-width:0.2"/>
<polyline points="4.80097,43.199 5.28447,43.7156 5.76797,44.2321 6.25147,44.7486 7.03603,44.9639 7.82059,45.1792 8.62181,45.3772 9.42303,45.5753 10.2242,45.7733 11.0255,45.9713 11.8267,46.1694 12.6009,46.414 13.375,46.6587 14.1492,46.9033 14.9234,47.148 15.6976,47.3926 16.2551,47.5555 16.8127,47.7183 17.2548,47.3384 17.7012,46.7682 18.1476,46.1981 " style="fill-opacity:0; stroke-opacity:0.8; stroke:#00FF00; stroke-width:0.2"/>
<polyline points="6.12519,44.8757 6.97929,45.0202 7.83339,45.1646 8.68749,45.3091 9.41042,45.5851 10.1334,45.861 10.9904,46.0145 11.8475,46.168 12.7046,46.3215 13.4329,46.6311 14.1612,46.9406 14.8733,47.1942 15.5853,47.4479 16.2973,47.7015 16.7976,47.4994 17.298,47.2973 17.6485,46.6632 17.999,46.0291 18.3495,45.395 18.7317,44.7586 19.1139,44.1222 " style="fill-opacity:0; stroke-opacity:0.8; stroke:#00FF00; stroke-width:0.2"/>
<polyline points="8.64518,45.3563 9.40991,45.5889 10.1746,45.8216 10.9394,46.0542 11.8059,46.1878 12.6725,46.3213 13.4314,46.6033 14.1902,46.8854 14.9491,47.1674 15.6067,47.4786 16.2643,47.7897 16.7582,47.4741 17.2521,47.1586 17.746,46.843 18.024,46.0896 18.302,45.3362 18.7789,44.7998 19.2557,44.2634 19.7326,43.7269 19.9313,42.927 20.13,42.1271 " style="fill-opacity:0; stroke-opacity:0.8; stroke:#00FF00; stroke-width:0.2"/>
<polyline points="11.1112,45.8592 11.8809,46.1156 12.6507,46.3721 13.4205,46.6285 14.1902,46.885 14.96,47.1415 15.5851,47.3598 16.2103,47.5782 16.8354,47.7965 17.268,47.2769 17.7007,46.7572 18.0412,46.0776 18.3818,45.398 18.7223,44.7183 19.1949,44.1919 19.6675,43.6655 20.0156,43.0143 20.3637,42.3632 20.7117,41.7121 21.2668,41.267 21.8218,40.8219 " style="fill-opacity:0; stroke-opacity:0.8; stroke:#00FF00; stroke-width:0.2"/>
<polyline points="13.1602,46.8899 14.0157,47.0699 14.8712,47.25 15.7266,47.43 16.2851,47.5639 16.8437,47.6978 17.2351,47.1317 17.6265,46.5657 18.0179,45.9997 18.4093,45.4336 18.8008,44.8676 19.1977,44.2493 19.5946,43.6311 19.9915,43.0129 20.3885,42.3946 20.7854,41.7764 21.2603,41.2533 21.7352,40.7302 22.21,40.2072 22.6849,39.6841 23.1598,39.1611 " style="fill-opacity:0; stroke-opacity:0.8; stroke:#00FF00; stroke-width:0.2"/>
<polyline points="15.8444,47.2879 16.3281,47.6093 16.8119,47.9307 17.2117,47.3283 17.6055,46.6604 17.9993,45.9926 18.3996,45.3949 18.8,44.7972 19.2003,44.1994 19.5992,43.5986 19.9981,42.9977 20.3931,42.3937 20.788,41.7897 21.183,41.1857 21.733,40.7376 22.283,40.2895 22.7031,39.6481 23.1233,39.0067 23.1181,37.9993 22.6652,37.384 22.2123,36.7687 " style="fill-opacity:0; stroke-opacity:0.8; stroke:#00FF00; stroke-width:0.2"/>
<polyline points="17.2039,47.2031 17.6003,46.6002 17.9967,45.9973 18.393,45.3944 18.7894,44.7916 19.1858,44.1887 19.5959,43.5971 20.0059,43.0054 20.416,42.4138 20.8261,41.8222 21.2362,41.2305 21.7532,40.7179 22.2702,40.2054 22.7872,39.6928 22.8982,38.893 23.0091,38.0931 22.6966,37.3842 22.3841,36.6753 22.0716,35.9664 21.6508,35.3647 21.2299,34.7629 " style="fill-opacity:0; stroke-opacity:0.8; stroke:#00FF00; stroke-width:0.2"/>
<polyline points="18.2053,45.2016 18.6985,44.7012 19.1918,44.2007 19.6851,43.7002 19.999,43.0176 20.3129,42.335 20.8325,41.7988 21.3521,41.2627 21.8717,40.7266 22.3913,40.1904 22.9109,39.6543 22.7745,38.9074 22.6381,38.1605 22.5017,37.4136 22.3653,36.6667 22.2289,35.9198 21.7553,35.3561 21.2817,34.7923 20.8081,34.2286 20.3345,33.6648 19.8608,33.101 " style="fill-opacity:0; stroke-opacity:0.8; stroke:#00FF00; stroke-width:0.2"/>
<polyline points="19.734,43.7388 20.0824,43.0839 20.4308,42.429 20.7792,41.7741 21.2964,41.2751 21.8136,40.776 22.2086,40.1603 22.6036,39.5446 22.9985,38.9289 22.9127,38.1164 22.8268,37.3039 22.4212,36.6799 22.0156,36.0559 21.6099,35.4319 21.2043,34.8079 20.7987,34.184 20.4167,33.5699 20.0347,32.9559 19.6528,32.3419 19.2708,31.7279 18.8888,31.1139 " style="fill-opacity:0; stroke-opacity:0.8; stroke:#00FF00; stroke-width:0.2"/>
<polyline points="21.0183,41.9671 21.4209,41.3523 21.8234,40.7376 22.226,40.1228 22.6285,39.508 23.0311,38.8933 22.7844,38.1753 22.5377,37.4572 22.291,36.7392 22.0444,36.0212 21.7977,35.3032 21.334,34.7378 20.8702,34.1725 20.4065,33.6071 20.0451,32.9596 19.6837,32.3122 19.193,31.8037 18.7022,31.2952 18.2114,30.7867 17.7207,30.2783 17.2299,29.7698 " style="fill-opacity:0; stroke-opacity:0.8; stroke:#00FF00; stroke-width:0.2"/>
<polyline points="22.3234,40.3349 22.616,39.5814 22.9085,38.8278 23.2011,38.0743 22.7878,37.3499 22.3745,36.6256 21.9849,36.0149 21.5952,35.4043 21.2056,34.7936 20.816,34.183 20.4263,33.5723 20.0036,32.9953 19.5809,32.4184 19.1582,31.8414 18.7356,31.2645 18.3129,30.6875 17.8177,30.1826 17.3225,29.6776 16.8273,29.1727 15.9431,29.0569 15.0589,28.9411 " style="fill-opacity:0; stroke-opacity:0.8; stroke:#00FF00; stroke-width:0.2"/>
<polyline points="23.1047,37.895 22.7274,37.2728 22.35,36.6506 21.9726,36.0284 21.5952,35.4063 21.2178,34.7841 20.831,34.1694 20.4441,33.5548 20.0572,32.9401 19.6571,32.3309 19.257,31.7216 18.74,31.2252 18.223,30.7287 17.7059,30.2323 17.1889,29.7359 16.6719,29.2394 15.9168,29.2365 15.1618,29.2335 14.4067,29.2305 13.7259,29.5382 13.0451,29.846 " style="fill-opacity:0; stroke-opacity:0.8; stroke:#00FF00; stroke-width:0.2"/>
<polyline points="22.086,35.9187 21.6772,35.3256 21.2683,34.7325 20.8594,34.1394 20.4506,33.5463 20.0417,32.9532 19.5996,32.384 19.1575,31.8149 18.7154,31.2457 18.2733,30.6766 17.8311,30.1074 17.2113,29.7897 16.5914,29.4719 15.9716,29.1542 15.2051,29.2101 14.4386,29.266 13.6213,29.4807 12.8041,29.6955 11.9868,29.9102 11.0655,30.0292 10.1441,30.1482 " style="fill-opacity:0; stroke-opacity:0.8; stroke:#00FF00; stroke-width:0.2"/>
<polyline points="20.7433,34.2565 20.396,33.605 20.0487,32.9534 19.7013,32.3018 19.2722,31.7282 18.843,31.1546 18.273,30.7034 17.7031,30.2522 17.1332,29.8011 16.5632,29.3499 15.9933,28.8987 15.2209,29.1276 14.4486,29.3565 13.6762,29.5854 12.8161,29.7662 11.956,29.947 11.1848,30.1788 10.4136,30.4107 9.64238,30.6425 8.87117,30.8744 8.09996,31.1062 " style="fill-opacity:0; stroke-opacity:0.8; stroke:#00FF00; stroke-width:0.2"/>
<polyline points="42.4096,30.6114 41.6893,30.29 40.969,29.9685 40.2487,29.6471 39.5285,29.3257 38.8082,29.0042 37.8878,29.0234 36.9675,29.0426 36.0471,29.0618 35.1268,29.0811 34.2065,29.1003 33.6437,29.5519 33.0809,30.0036 32.5181,30.4552 31.9553,30.9069 31.3925,31.3586 30.8297,31.8102 30.2669,32.2619 29.7041,32.7135 29.1413,33.1652 28.5785,33.6169 " style="fill-opacity:0; stroke-opacity:0.8; stroke:#00FF00; stroke-width:0.2"/>
<polyline points="40.4471,29.5126 39.5834,29.3192 38.7197,29.1258 37.856,28.9324 36.9313,28.9262 36.0066,28.9201 35.2506,29.1799 34.4946,29.4398 33.7386,29.6997 32.9827,29.9596 32.2267,30.2195 31.7292,30.7241 31.2317,31.2288 30.7343,31.7335 30.2368,32.2382 29.7393,32.7428 29.3657,33.3684 28.992,33.994 28.6183,34.6195 28.2447,35.2451 27.871,35.8707 " style="fill-opacity:0; stroke-opacity:0.8; stroke:#00FF00; stroke-width:0.2"/>
<polyline points="37.7422,28.7422 36.9112,28.9112 36.0802,29.0802 35.2492,29.2492 34.4182,29.4182 33.5872,29.5872 32.9609,29.9609 32.3346,30.3346 31.7084,30.7084 31.1938,31.1938 30.6793,31.6793 30.2017,32.2017 29.724,32.724 29.2464,33.2464 28.922,33.922 28.5976,34.5976 28.428,35.428 28.2583,36.2583 28.0886,37.0886 27.9189,37.9189 27.7492,38.7492 " style="fill-opacity:0; stroke-opacity:0.8; stroke:#00FF00; stroke-width:0.2"/>
<polyline points="34.8566,28.8548 34.2338,29.2319 33.611,29.6089 32.9882,29.9859 32.3653,30.363 31.7425,30.74 31.2377,31.2408 30.7329,31.7416 30.2281,32.2424 29.7233,32.7431 29.2185,33.2439 28.9646,33.9971 28.7108,34.7502 28.4569,35.5034 28.203,36.2565 27.9491,37.0097 27.9855,37.9211 28.0219,38.8326 28.0583,39.744 28.2567,40.5777 28.455,41.4113 " style="fill-opacity:0; stroke-opacity:0.8; stroke:#00FF00; stroke-width:0.2"/>
<polyline points="32.6169,29.5785 32.1652,30.1413 31.7135,30.7041 31.2619,31.2669 30.8102,31.8297 30.3586,32.3925 29.9069,32.9553 29.4552,33.5181 29.0036,34.0809 28.5519,34.6437 28.1002,35.2065 28.081,36.1268 28.0618,37.0471 28.0426,37.9675 28.0234,38.8878 28.0042,39.8082 28.3257,40.5285 28.6471,41.2488 28.9685,41.969 29.29,42.6893 29.6114,43.4096 " style="fill-opacity:0; stroke-opacity:0.8; stroke:#00FF00; stroke-width:0.2"/>
<polyline points="31.0409,31.026 30.6088,31.606 30.1767,32.1861 29.7447,32.7661 29.3126,33.3462 28.8805,33.9263 28.6782,34.732 28.476,35.5377 28.2737,36.3434 28.0714,37.1491 27.8692,37.9548 27.9904,38.8387 28.1117,39.7226 28.2329,40.6065 28.568,41.3183 28.9031,42.03 29.3395,42.614 29.7758,43.198 30.2122,43.7821 30.6486,44.3661 31.0849,44.9501 " style="fill-opacity:0; stroke-opacity:0.8; stroke:#00FF00; stroke-width:0.2"/>
<polyline points="29.6114,32.5904 29.29,33.3107 28.9685,34.031 28.6471,34.7513 28.3257,35.4716 28.0042,36.1919 28.0234,37.1122 28.0426,38.0325 28.0618,38.9529 28.0811,39.8732 28.1003,40.7936 28.5519,41.3563 29.0036,41.9191 29.4552,42.4819 29.9069,43.0447 30.3586,43.6075 30.8102,44.1703 31.2619,44.7331 31.7135,45.2959 32.1652,45.8587 32.6169,46.4215 " style="fill-opacity:0; stroke-opacity:0.8; stroke:#00FF00; stroke-width:0.2"/>
<polyline points="28.5126,34.553 28.3192,35.4166 28.1258,36.2803 27.9324,37.144 27.9262,38.0687 27.9201,38.9934 28.1799,39.7494 28.4398,40.5054 28.6997,41.2614 28.9596,42.0173 29.2195,42.7733 29.7241,43.2708 30.2288,43.7682 30.7335,44.2657 31.2382,44.7632 31.7428,45.2607 32.3684,45.6343 32.994,46.008 33.6196,46.3817 34.2451,46.7553 34.8707,47.129 " style="fill-opacity:0; stroke-opacity:0.8; stroke:#00FF00; stroke-width:0.2"/>
<polyline points="27.7422,37.2578 27.9112,38.0888 28.0802,38.9198 28.2492,39.7508 28.4182,40.5818 28.5872,41.4128 28.9609,42.0391 29.3346,42.6654 29.7084,43.2916 30.1938,43.8062 30.6793,44.3207 31.2017,44.7983 31.724,45.276 32.2464,45.7536 32.922,46.078 33.5976,46.4024 34.428,46.572 35.2583,46.7417 36.0886,46.9114 36.9189,47.0811 37.7492,47.2508 " style="fill-opacity:0; stroke-opacity:0.8; stroke:#00FF00; stroke-width:0.2"/>
<polyline points="27.8548,40.1434 28.2319,40.7662 28.6089,41.389 28.9859,42.0118 29.363,42.6347 29.74,43.2575 30.2408,43.7623 30.7416,44.2671 31.2424,44.7719 31.7431,45.2767 32.2439,45.7815 32.9971,46.0354 33.7502,46.2892 34.5034,46.5431 35.2565,46.797 36.0097,47.0509 36.9211,47.0145 37.8326,46.9781 38.744,46.9417 39.5777,46.7433 40.4113,46.545 " style="fill-opacity:0; stroke-opacity:0.8; stroke:#00FF00; stroke-width:0.2"/>
<polyline points="28.5785,42.3831 29.1413,42.8348 29.7041,43.2865 30.2669,43.7381 30.8297,44.1898 31.3925,44.6414 31.9553,45.0931 32.5181,45.5448 33.0809,45.9964 33.6437,46.4481 34.2065,46.8997 35.1268,46.9189 36.0471,46.9382 36.9675,46.9574 37.8878,46.9766 38.8081,46.9958 39.5284,46.6743 40.2487,46.3529 40.969,46.0315 41.6893,45.71 42.4096,45.3886 " style="fill-opacity:0; stroke-opacity:0.8; stroke:#00FF00; stroke-width:0.2"/>
<polyline points="30.0409,43.9274 30.627,44.3565 31.2132,44.7856 31.7994,45.2146 32.3856,45.6437 32.9718,46.0728 33.7211,46.3807 34.4704,46.6885 35.2197,46.9964 36.1257,47.072 37.0318,47.1477 37.8429,46.9407 38.654,46.7338 39.4651,46.5268 40.2762,46.3199 41.0873,46.1129 41.6627,45.6806 42.2382,45.2483 42.8136,44.816 43.389,44.3837 43.9645,43.9514 " style="fill-opacity:0; stroke-opacity:0.8; stroke:#00FF00; stroke-width:0.2"/>
<polyline points="31.5904,45.3886 32.3107,45.71 33.031,46.0315 33.7513,46.3529 34.4716,46.6743 35.1919,46.9958 36.1122,46.9766 37.0325,46.9574 37.9529,46.9382 38.8732,46.919 39.7935,46.8998 40.3563,46.4481 40.9191,45.9964 41.4819,45.5448 42.0447,45.0931 42.6075,44.6414 43.1703,44.1898 43.7331,43.7381 44.2959,43.2865 44.8587,42.8348 45.4215,42.3831 " style="fill-opacity:0; stroke-opacity:0.8; stroke:#00FF00; stroke-width:0.2"/>
<polyline points="33.553,46.4859 34.4163,46.6799 35.2797,46.8739 36.143,47.068 37.0684,47.0743 37.9938,47.0807 38.7498,46.8207 39.5058,46.5607 40.2618,46.3007 41.0179,46.0407 41.7739,45.7807 42.2713,45.276 42.7686,44.7713 43.266,44.2666 43.7633,43.7619 44.2607,43.2572 44.6342,42.6315 45.0078,42.0058 45.3814,41.3802 45.7549,40.7545 46.1285,40.1288 " style="fill-opacity:0; stroke-opacity:0.8; stroke:#00FF00; stroke-width:0.2"/>
<polyline points="36.2337,47.2337 37.0808,47.0808 37.9279,46.9279 38.775,46.775 39.622,46.622 40.4691,46.4691 41.0428,46.0428 41.6164,45.6164 42.1901,45.1901 42.7637,44.7637 43.3374,44.3374 43.817,43.817 44.2967,43.2967 44.7763,42.7763 45.0962,42.0962 45.4161,41.4161 45.58,40.58 45.7439,39.7439 45.9077,38.9077 46.0716,38.0716 46.2355,37.2355 " style="fill-opacity:0; stroke-opacity:0.8; stroke:#00FF00; stroke-width:0.2"/>
<polyline points="39.1434,47.1452 39.7662,46.7681 40.389,46.3911 41.0118,46.0141 41.6347,45.637 42.2575,45.26 42.7623,44.7592 43.2671,44.2584 43.7719,43.7576 44.2767,43.2569 44.7815,42.7561 45.0354,42.0029 45.2892,41.2498 45.5431,40.4966 45.797,39.7435 46.0509,38.9903 46.0145,38.0789 45.9781,37.1674 45.9417,36.256 45.7433,35.4223 45.545,34.5887 " style="fill-opacity:0; stroke-opacity:0.8; stroke:#00FF00; stroke-width:0.2"/>
<polyline points="41.3831,46.4215 41.8348,45.8587 42.2865,45.2959 42.7381,44.7331 43.1898,44.1703 43.6414,43.6075 44.0931,43.0447 44.5448,42.4819 44.9964,41.9191 45.4481,41.3563 45.8998,40.7935 45.919,39.8732 45.9382,38.9529 45.9574,38.0325 45.9766,37.1122 45.9958,36.1919 45.6743,35.4716 45.3529,34.7513 45.0315,34.031 44.71,33.3107 44.3886,32.5904 " style="fill-opacity:0; stroke-opacity:0.8; stroke:#00FF00; stroke-width:0.2"/>
<polyline points="42.9274,44.9591 43.3565,44.373 43.7856,43.7868 44.2146,43.2006 44.6437,42.6144 45.0728,42.0282 45.3807,41.2789 45.6885,40.5296 45.9964,39.7803 46.072,38.8743 46.1477,37.9682 45.9407,37.1571 45.7338,36.346 45.5268,35.5349 45.3199,34.7238 45.1129,33.9127 44.6806,33.3373 44.2483,32.7618 43.816,32.1864 43.3837,31.611 42.9514,31.0355 " style="fill-opacity:0; stroke-opacity:0.8; stroke:#00FF00; stroke-width:0.2"/>
<polyline points="44.3886,43.4096 44.71,42.6893 45.0315,41.969 45.3529,41.2487 45.6743,40.5284 45.9958,39.8081 45.9766,38.8878 45.9574,37.9675 45.9382,37.0471 45.919,36.1268 45.8998,35.2065 45.4481,34.6437 44.9964,34.0809 44.5448,33.5181 44.0931,32.9553 43.6414,32.3925 43.1898,31.8297 42.7381,31.2669 42.2865,30.7041 41.8348,30.1413 41.3831,29.5785 " style="fill-opacity:0; stroke-opacity:0.8; stroke:#00FF00; stroke-width:0.2"/>
<polyline points="45.4874,41.447 45.6808,40.5833 45.8742,39.7197 46.0676,38.856 46.0738,37.9313 46.0799,37.0066 45.8201,36.2506 45.5602,35.4946 45.3003,34.7386 45.0404,33.9827 44.7805,33.2267 44.2759,32.7292 43.7712,32.2317 43.2665,31.7343 42.7618,31.2368 42.2572,30.7393 41.6316,30.3657 41.006,29.992 40.3804,29.6183 39.7549,29.2447 39.1293,28.871 " style="fill-opacity:0; stroke-opacity:0.8; stroke:#00FF00; stroke-width:0.2"/>
<polyline points="46.2578,38.7422 46.0888,37.9112 45.9198,37.0802 45.7508,36.2492 45.5818,35.4182 45.4128,34.5872 45.0391,33.9609 44.6654,33.3346 44.2916,32.7084 43.8062,32.1938 43.3207,31.6793 42.7983,31.2017 42.276,30.724 41.7536,30.2464 41.078,29.922 40.4024,29.5976 39.572,29.428 38.7417,29.2583 37.9114,29.0886 37.0811,28.9189 36.2508,28.7492 " style="fill-opacity:0; stroke-opacity:0.8; stroke:#00FF00; stroke-width:0.2"/>
<polyline points="46.1452,35.8566 45.7681,35.2338 45.3911,34.611 45.0141,33.9882 44.637,33.3653 44.26,32.7425 43.7592,32.2377 43.2584,31.7329 42.7576,31.2281 42.2569,30.7233 41.7561,30.2185 41.0029,29.9646 40.2498,29.7108 39.4966,29.4569 38.7435,29.203 37.9903,28.9491 37.0789,28.9855 36.1674,29.0219 35.256,29.0584 34.4223,29.2567 33.5887,29.455 " style="fill-opacity:0; stroke-opacity:0.8; stroke:#00FF00; stroke-width:0.2"/>
<polyline points="45.4215,33.6169 44.8587,33.1652 44.2959,32.7135 43.7331,32.2619 43.1703,31.8102 42.6075,31.3586 42.0447,30.9069 41.4819,30.4552 40.9191,30.0036 40.3563,29.5519 39.7935,29.1002 38.8732,29.081 37.9529,29.0618 37.0325,29.0426 36.1122,29.0234 35.1918,29.0042 34.4715,29.3257 33.7513,29.6471 33.031,29.9685 32.3107,30.29 31.5904,30.6114 " style="fill-opacity:0; stroke-opacity:0.8; stroke:#00FF00; stroke-width:0.2"/>
<polyline points="43.974,32.0409 43.394,31.6088 42.8139,31.1767 42.2339,30.7447 41.6538,30.3126 41.0737,29.8805 40.268,29.6782 39.4623,29.476 38.6566,29.2737 37.8509,29.0714 37.0452,28.8692 36.1613,28.9904 35.2774,29.1117 34.3934,29.2329 33.6817,29.568 32.97,29.9031 32.386,30.3395 31.8019,30.7758 31.2179,31.2122 30.6339,31.6486 30.0499,32.0849 " style="fill-opacity:0; stroke-opacity:0.8; stroke:#00FF00; stroke-width:0.2"/>
<polyline points="40.2746,39.7456 40.1441,38.84 40.0135,37.9344 39.883,37.0288 39.7525,36.1232 39.6219,35.2176 38.9597,34.9916 38.2974,34.7656 37.6351,34.5396 36.9729,34.3136 36.3106,34.0876 35.6729,34.5042 35.0352,34.9207 34.3975,35.3373 34.145,36.1522 33.8924,36.9672 33.9944,37.8802 34.0964,38.7931 34.1983,39.7061 34.3003,40.6191 34.4022,41.5321 " style="fill-opacity:0; stroke-opacity:0.8; stroke:#00FF00; stroke-width:0.2"/>
<polyline points="40.3405,36.695 39.899,36.0718 39.4575,35.4487 39.016,34.8255 38.3659,34.4456 37.7158,34.0658 37.0142,34.2853 36.3126,34.5049 35.611,34.7244 34.9094,34.9439 34.2078,35.1635 34.134,36.1254 34.0603,37.0873 33.9866,38.0492 33.9129,39.0111 33.8392,39.973 34.5062,40.3621 35.1731,40.7513 35.8401,41.1404 36.8461,41.1554 37.8521,41.1705 " style="fill-opacity:0; stroke-opacity:0.8; stroke:#00FF00; stroke-width:0.2"/>
<polyline points="38.9457,34.9164 38.2787,34.6349 37.6117,34.3534 36.9446,34.0719 36.2728,34.2821 35.601,34.4922 35.0544,35.0095 34.5077,35.5267 33.9611,36.044 33.8687,37.0261 33.7764,38.0082 33.9628,38.9158 34.1492,39.8233 34.3356,40.7309 35.1587,40.9751 35.9819,41.2193 36.8939,41.0776 37.8058,40.9358 38.7178,40.794 39.6298,40.6522 40.5417,40.5105 " style="fill-opacity:0; stroke-opacity:0.8; stroke:#00FF00; stroke-width:0.2"/>
<polyline points="36.7645,33.7046 36.1856,34.1875 35.6067,34.6704 35.0278,35.1533 34.4489,35.6361 33.87,36.119 33.9391,37.0531 34.0082,37.9871 34.0773,38.9212 34.1464,39.8552 34.2155,40.7893 35.1665,40.8753 36.1175,40.9614 37.0685,41.0474 38.0195,41.1335 38.9705,41.2195 39.2715,40.4587 39.5725,39.698 39.8735,38.9372 40.1746,38.1765 40.4756,37.4157 " style="fill-opacity:0; stroke-opacity:0.8; stroke:#00FF00; stroke-width:0.2"/>
<polyline points="34.5203,34.4558 34.3607,35.3716 34.2011,36.2873 34.0415,37.2031 33.8819,38.1189 33.7223,39.0346 34.12,39.7314 34.5177,40.4282 34.9154,41.125 35.9556,41.1646 36.9958,41.2043 37.9353,41.0514 38.8749,40.8986 39.8144,40.7458 40.0178,39.8604 40.2213,38.975 40.0745,38.0729 39.9276,37.1709 39.7808,36.2688 39.634,35.3668 39.4872,34.4647 " style="fill-opacity:0; stroke-opacity:0.8; stroke:#00FF00; stroke-width:0.2"/>
<polyline points="33.5244,37.4157 33.8254,38.1765 34.1265,38.9372 34.4275,39.698 34.7285,40.4587 35.0295,41.2195 35.9805,41.1335 36.9315,41.0474 37.8825,40.9614 38.8335,40.8753 39.7845,40.7893 39.8536,39.8552 39.9227,38.9212 39.9918,37.9871 40.0609,37.0531 40.13,36.119 39.5511,35.6361 38.9722,35.1533 38.3933,34.6704 37.8144,34.1875 37.2354,33.7046 " style="fill-opacity:0; stroke-opacity:0.8; stroke:#00FF00; stroke-width:0.2"/>
<polyline points="33.4542,40.4709 34.3694,40.6332 35.2847,40.7954 36.1999,40.9577 37.1151,41.1199 38.0303,41.2822 38.7345,40.8908 39.4387,40.4994 40.1429,40.1079 40.1544,39.0574 40.166,38.0068 40.0347,37.0648 39.9034,36.1229 39.7721,35.1809 39.0619,34.8549 38.3517,34.5289 37.6686,34.3971 36.9854,34.2652 36.3023,34.1333 35.7107,34.5879 35.1191,35.0426 " style="fill-opacity:0; stroke-opacity:0.8; stroke:#00FF00; stroke-width:0.2"/>
<polyline points="36.3565,41.4007 37.1349,41.1387 37.9133,40.8766 38.6917,40.6145 39.4701,40.3524 40.2485,40.0903 40.1567,39.0973 40.0649,38.1042 39.973,37.1112 39.8812,36.1181 39.7894,35.1251 39.0896,34.9137 38.3898,34.7023 37.6899,34.491 36.9901,34.2796 36.2903,34.0683 35.6482,34.479 35.0061,34.8898 34.364,35.3006 34.0719,36.0491 33.7798,36.7977 " style="fill-opacity:0; stroke-opacity:0.8; stroke:#00FF00; stroke-width:0.2"/>
<polyline points="39.4055,41.4305 39.6434,40.5941 39.8813,39.7577 40.1193,38.9212 40.1268,37.9426 40.1344,36.9639 39.7763,36.2327 39.4183,35.5015 39.0602,34.7703 38.3948,34.4082 37.7295,34.0462 37.0409,34.2708 36.3524,34.4954 35.6639,34.7199 34.9753,34.9445 34.2868,35.1691 34.1906,36.1015 34.0944,37.0339 33.9982,37.9663 33.902,38.8987 33.8058,39.8311 " style="fill-opacity:0; stroke-opacity:0.8; stroke:#00FF00; stroke-width:0.2"/>
</svg>
