<?xml version="1.0" standalone="no"?>
<!DOCTYPE svg PUBLIC "-//W3C//DTD SVG 1.1//EN"
"http://www.w3.org/Graphics/SVG/1.1/DTD/svg11.dtd">
<svg width="30" height="30" version="1.1" xmlns:xlink="http://www.w3.org/1999/xlink" xmlns="http://www.w3.org/2000/svg">
<image y="0" x="0" xlink:href="T.png" />
<polygon points="0,0 0,1 0,2 0,3 0,4 0,5 0,6 0,7 0,8 0,9 0,10 0,11 0,12 0,13 0,14 0,15 0,16 0,17 0,18 0,19 0,20 0,21 0,22 0,23 0,24 0,25 0,26 0,27 0,28 0,29 0,30 0,31 0,32 0,33 0,34 0,35 0,36 0,37 0,38 0,39 0,40 0,41 0,42 0,43 0,44 0,45 0,46 0,47 0,48 0,49 0,50 1,50 2,50 3,50 4,50 5,50 6,50 7,50 8,50 9,50 10,50 11,50 12,50 13,50 14,50 15,50 16,50 17,50 18,50 19,50 20,50 21,50 22,50 23,50 24,50 25,50 26,50 27,50 28,50 29,50 30,50 31,50 32,50 33,50 34,50 35,50 36,50 37,50 38,50 39,50 40,50 41,50 42,50 43,50 44,50 45,50 46,50 47,50 48,50 49,50 50,50 50,49 50,48 50,47 50,46 50,45 50,44 50,43 50,42 50,41 50,40 50,39 50,38 50,37 50,36 50,35 50,34 50,33 50,32 50,31 50,30 50,29 50,28 50,27 50,26 50,25 50,24 50,23 50,22 50,21 50,20 50,19 50,18 50,17 50,16 50,15 50,14 50,13 50,12 50,11 50,10 50,9 50,8 50,7 50,6 50,5 50,4 50,3 50,2 50,1 50,0 49,0 48,0 47,0 46,0 45,0 44,0 43,0 42,0 41,0 40,0 39,0 38,0 37,0 36,0 35,0 34,0 33,0 32,0 31,0 30,0 29,0 28,0 27,0 26,0 25,0 24,0 23,0 22,0 21,0 20,0 19,0 18,0 17,0 16,0 15,0 14,0 13,0 12,0 11,0 10,0 9,0 8,0 7,0 6,0 5,0 4,0 3,0 2,0 1,0 " style="fill-opacity:0; stroke-opacity:0.8; stroke:#0000FF; stroke-width:0.1"/>
<text x="0" y="0" font-size="0.5" fill="#0000FF">0</text>
<text x="0" y="1" font-size="0.5" fill="#0000FF">1</text>
<text x="0" y="2" font-size="0.5" fill="#0000FF">2</text>
<text x="0" y="3" font-size="0.5" fill="#0000FF">3</text>
<text x="0" y="4" font-size="0.5" fill="#0000FF">4</text>
<text x="0" y="5" font-size="0.5" fill="#0000FF">5</text>
<text x="0" y="6" font-size="0.5" fill="#0000FF">6</text>
<text x="0" y="7" font-size="0.5" fill="#0000FF">7</text>
<text x="0" y="8" font-size="0.5" fill="#0000FF">8</text>
<text x="0" y="9" font-size="0.5" fill="#0000FF">9</text>
<text x="0" y="10" font-size="0.5" fill="#0000FF">10</text>
<text x="0" y="11" font-size="0.5" fill="#0000FF">11</text>
<text x="0" y="12" font-size="0.5" fill="#0000FF">12</text>
<text x="0" y="13" font-size="0.5" fill="#0000FF">13</text>
<text x="0" y="14" font-size="0.5" fill="#0000FF">14</text>
<text x="0" y="15" font-size="0.5" fill="#0000FF">15</text>
<text x="0" y="16" font-size="0.5" fill="#0000FF">16</text>
<text x="0" y="17" font-size="0.5" fill="#0000FF">17</text>
<text x="0" y="18" font-size="0.5" fill="#0000FF">18</text>
<text x="0" y="19" font-size="0.5" fill="#0000FF">19</text>
<text x="0" y="20" font-size="0.5" fill="#0000FF">20</text>
<text x="0" y="21" font-size="0.5" fill="#0000FF">21</text>
<text x="0" y="22" font-size="0.5" fill="#0000FF">22</text>
<text x="0" y="23" font-size="0.5" fill="#0000FF">23</text>
<text x="0" y="24" font-size="0.5" fill="#0000FF">24</text>
<text x="0" y="25" font-size="0.5" fill="#0000FF">25</text>
<text x="0" y="26" font-size="0.5" fill="#0000FF">26</text>
<text x="0" y="27" font-size="0.5" fill="#0000FF">27</text>
<text x="0" y="28" font-size="0.5" fill="#0000FF">28</text>
<text x="0" y="29" font-size="0.5" fill="#0000FF">29</text>
<text x="0" y="30" font-size="0.5" fill="#0000FF">30</text>
<text x="0" y="31" font-size="0.5" fill="#0000FF">31</text>
<text x="0" y="32" font-size="0.5" fill="#0000FF">32</text>
<text x="0" y="33" font-size="0.5" fill="#0000FF">33</text>
<text x="0" y="34" font-size="0.5" fill="#0000FF">34</text>
<text x="0" y="35" font-size="0.5" fill="#0000FF">35</text>
<text x="0" y="36" font-size="0.5" fill="#0000FF">36</text>
<text x="0" y="37" font-size="0.5" fill="#0000FF">37</text>
<text x="0" y="38" font-size="0.5" fill="#0000FF">38</text>
<text x="0" y="39" font-size="0.5" fill="#0000FF">39</text>
<text x="0" y="40" font-size="0.5" fill="#0000FF">40</text>
<text x="0" y="41" font-size="0.5" fill="#0000FF">41</text>
<text x="0" y="42" font-size="0.5" fill="#0000FF">42</text>
<text x="0" y="43" font-size="0.5" fill="#0000FF">43</text>
<text x="0" y="44" font-size="0.5" fill="#0000FF">44</text>
<text x="0" y="45" font-size="0.5" fill="#0000FF">45</text>
<text x="0" y="46" font-size="0.5" fill="#0000FF">46</text>
<text x="0" y="47" font-size="0.5" fill="#0000FF">47</text>
<text x="0" y="48" font-size="0.5" fill="#0000FF">48</text>
<text x="0" y="49" font-size="0.5" fill="#0000FF">49</text>
<text x="0" y="50" font-size="0.5" fill="#0000FF">50</text>
<text x="1" y="50" font-size="0.5" fill="#0000FF">51</text>
<text x="2" y="50" font-size="0.5" fill="#0000FF">52</text>
<text x="3" y="50" font-size="0.5" fill="#0000FF">53</text>
<text x="4" y="50" font-size="0.5" fill="#0000FF">54</text>
<text x="5" y="50" font-size="0.5" fill="#0000FF">55</text>
<text x="6" y="50" font-size="0.5" fill="#0000FF">56</text>
<text x="7" y="50" font-size="0.5" fill="#0000FF">57</text>
<text x="8" y="50" font-size="0.5" fill="#0000FF">58</text>
<text x="9" y="50" font-size="0.5" fill="#0000FF">59</text>
<text x="10" y="50" font-size="0.5" fill="#0000FF">60</text>
<text x="11" y="50" font-size="0.5" fill="#0000FF">61</text>
<text x="12" y="50" font-size="0.5" fill="#0000FF">62</text>
<text x="13" y="50" font-size="0.5" fill="#0000FF">63</text>
<text x="14" y="50" font-size="0.5" fill="#0000FF">64</text>
<text x="15" y="50" font-size="0.5" fill="#0000FF">65</text>
<text x="16" y="50" font-size="0.5" fill="#0000FF">66</text>
<text x="17" y="50" font-size="0.5" fill="#0000FF">67</text>
<text x="18" y="50" font-size="0.5" fill="#0000FF">68</text>
<text x="19" y="50" font-size="0.5" fill="#0000FF">69</text>
<text x="20" y="50" font-size="0.5" fill="#0000FF">70</text>
<text x="21" y="50" font-size="0.5" fill="#0000FF">71</text>
<text x="22" y="50" font-size="0.5" fill="#0000FF">72</text>
<text x="23" y="50" font-size="0.5" fill="#0000FF">73</text>
<text x="24" y="50" font-size="0.5" fill="#0000FF">74</text>
<text x="25" y="50" font-size="0.5" fill="#0000FF">75</text>
<text x="26" y="50" font-size="0.5" fill="#0000FF">76</text>
<text x="27" y="50" font-size="0.5" fill="#0000FF">77</text>
<text x="28" y="50" font-size="0.5" fill="#0000FF">78</text>
<text x="29" y="50" font-size="0.5" fill="#0000FF">79</text>
<text x="30" y="50" font-size="0.5" fill="#0000FF">80</text>
<text x="31" y="50" font-size="0.5" fill="#0000FF">81</text>
<text x="32" y="50" font-size="0.5" fill="#0000FF">82</text>
<text x="33" y="50" font-size="0.5" fill="#0000FF">83</text>
<text x="34" y="50" font-size="0.5" fill="#0000FF">84</text>
<text x="35" y="50" font-size="0.5" fill="#0000FF">85</text>
<text x="36" y="50" font-size="0.5" fill="#0000FF">86</text>
<text x="37" y="50" font-size="0.5" fill="#0000FF">87</text>
<text x="38" y="50" font-size="0.5" fill="#0000FF">88</text>
<text x="39" y="50" font-size="0.5" fill="#0000FF">89</text>
<text x="40" y="50" font-size="0.5" fill="#0000FF">90</text>
<text x="41" y="50" font-size="0.5" fill="#0000FF">91</text>
<text x="42" y="50" font-size="0.5" fill="#0000FF">92</text>
<text x="43" y="50" font-size="0.5" fill="#0000FF">93</text>
<text x="44" y="50" font-size="0.5" fill="#0000FF">94</text>
<text x="45" y="50" font-size="0.5" fill="#0000FF">95</text>
<text x="46" y="50" font-size="0.5" fill="#0000FF">96</text>
<text x="47" y="50" font-size="0.5" fill="#0000FF">97</text>
<text x="48" y="50" font-size="0.5" fill="#0000FF">98</text>
<text x="49" y="50" font-size="0.5" fill="#0000FF">99</text>
<text x="50" y="50" font-size="0.5" fill="#0000FF">100</text>
<text x="50" y="49" font-size="0.5" fill="#0000FF">101</text>
<text x="50" y="48" font-size="0.5" fill="#0000FF">102</text>
<text x="50" y="47" font-size="0.5" fill="#0000FF">103</text>
<text x="50" y="46" font-size="0.5" fill="#0000FF">104</text>
<text x="50" y="45" font-size="0.5" fill="#0000FF">105</text>
<text x="50" y="44" font-size="0.5" fill="#0000FF">106</text>
<text x="50" y="43" font-size="0.5" fill="#0000FF">107</text>
<text x="50" y="42" font-size="0.5" fill="#0000FF">108</text>
<text x="50" y="41" font-size="0.5" fill="#0000FF">109</text>
<text x="50" y="40" font-size="0.5" fill="#0000FF">110</text>
<text x="50" y="39" font-size="0.5" fill="#0000FF">111</text>
<text x="50" y="38" font-size="0.5" fill="#0000FF">112</text>
<text x="50" y="37" font-size="0.5" fill="#0000FF">113</text>
<text x="50" y="36" font-size="0.5" fill="#0000FF">114</text>
<text x="50" y="35" font-size="0.5" fill="#0000FF">115</text>
<text x="50" y="34" font-size="0.5" fill="#0000FF">116</text>
<text x="50" y="33" font-size="0.5" fill="#0000FF">117</text>
<text x="50" y="32" font-size="0.5" fill="#0000FF">118</text>
<text x="50" y="31" font-size="0.5" fill="#0000FF">119</text>
<text x="50" y="30" font-size="0.5" fill="#0000FF">120</text>
<text x="50" y="29" font-size="0.5" fill="#0000FF">121</text>
<text x="50" y="28" font-size="0.5" fill="#0000FF">122</text>
<text x="50" y="27" font-size="0.5" fill="#0000FF">123</text>
<text x="50" y="26" font-size="0.5" fill="#0000FF">124</text>
<text x="50" y="25" font-size="0.5" fill="#0000FF">125</text>
<text x="50" y="24" font-size="0.5" fill="#0000FF">126</text>
<text x="50" y="23" font-size="0.5" fill="#0000FF">127</text>
<text x="50" y="22" font-size="0.5" fill="#0000FF">128</text>
<text x="50" y="21" font-size="0.5" fill="#0000FF">129</text>
<text x="50" y="20" font-size="0.5" fill="#0000FF">130</text>
<text x="50" y="19" font-size="0.5" fill="#0000FF">131</text>
<text x="50" y="18" font-size="0.5" fill="#0000FF">132</text>
<text x="50" y="17" font-size="0.5" fill="#0000FF">133</text>
<text x="50" y="16" font-size="0.5" fill="#0000FF">134</text>
<text x="50" y="15" font-size="0.5" fill="#0000FF">135</text>
<text x="50" y="14" font-size="0.5" fill="#0000FF">136</text>
<text x="50" y="13" font-size="0.5" fill="#0000FF">137</text>
<text x="50" y="12" font-size="0.5" fill="#0000FF">138</text>
<text x="50" y="11" font-size="0.5" fill="#0000FF">139</text>
<text x="50" y="10" font-size="0.5" fill="#0000FF">140</text>
<text x="50" y="9" font-size="0.5" fill="#0000FF">141</text>
<text x="50" y="8" font-size="0.5" fill="#0000FF">142</text>
<text x="50" y="7" font-size="0.5" fill="#0000FF">143</text>
<text x="50" y="6" font-size="0.5" fill="#0000FF">144</text>
<text x="50" y="5" font-size="0.5" fill="#0000FF">145</text>
<text x="50" y="4" font-size="0.5" fill="#0000FF">146</text>
<text x="50" y="3" font-size="0.5" fill="#0000FF">147</text>
<text x="50" y="2" font-size="0.5" fill="#0000FF">148</text>
<text x="50" y="1" font-size="0.5" fill="#0000FF">149</text>
<text x="50" y="0" font-size="0.5" fill="#0000FF">150</text>
<text x="49" y="0" font-size="0.5" fill="#0000FF">151</text>
<text x="48" y="0" font-size="0.5" fill="#0000FF">152</text>
<text x="47" y="0" font-size="0.5" fill="#0000FF">153</text>
<text x="46" y="0" font-size="0.5" fill="#0000FF">154</text>
<text x="45" y="0" font-size="0.5" fill="#0000FF">155</text>
<text x="44" y="0" font-size="0.5" fill="#0000FF">156</text>
<text x="43" y="0" font-size="0.5" fill="#0000FF">157</text>
<text x="42" y="0" font-size="0.5" fill="#0000FF">158</text>
<text x="41" y="0" font-size="0.5" fill="#0000FF">159</text>
<text x="40" y="0" font-size="0.5" fill="#0000FF">160</text>
<text x="39" y="0" font-size="0.5" fill="#0000FF">161</text>
<text x="38" y="0" font-size="0.5" fill="#0000FF">162</text>
<text x="37" y="0" font-size="0.5" fill="#0000FF">163</text>
<text x="36" y="0" font-size="0.5" fill="#0000FF">164</text>
<text x="35" y="0" font-size="0.5" fill="#0000FF">165</text>
<text x="34" y="0" font-size="0.5" fill="#0000FF">166</text>
<text x="33" y="0" font-size="0.5" fill="#0000FF">167</text>
<text x="32" y="0" font-size="0.5" fill="#0000FF">168</text>
<text x="31" y="0" font-size="0.5" fill="#0000FF">169</text>
<text x="30" y="0" font-size="0.5" fill="#0000FF">170</text>
<text x="29" y="0" font-size="0.5" fill="#0000FF">171</text>
<text x="28" y="0" font-size="0.5" fill="#0000FF">172</text>
<text x="27" y="0" font-size="0.5" fill="#0000FF">173</text>
<text x="26" y="0" font-size="0.5" fill="#0000FF">174</text>
<text x="25" y="0" font-size="0.5" fill="#0000FF">175</text>
<text x="24" y="0" font-size="0.5" fill="#0000FF">176</text>
<text x="23" y="0" font-size="0.5" fill="#0000FF">177</text>
<text x="22" y="0" font-size="0.5" fill="#0000FF">178</text>
<text x="21" y="0" font-size="0.5" fill="#0000FF">179</text>
<text x="20" y="0" font-size="0.5" fill="#0000FF">180</text>
<text x="19" y="0" font-size="0.5" fill="#0000FF">181</text>
<text x="18" y="0" font-size="0.5" fill="#0000FF">182</text>
<text x="17" y="0" font-size="0.5" fill="#0000FF">183</text>
<text x="16" y="0" font-size="0.5" fill="#0000FF">184</text>
<text x="15" y="0" font-size="0.5" fill="#0000FF">185</text>
<text x="14" y="0" font-size="0.5" fill="#0000FF">186</text>
<text x="13" y="0" font-size="0.5" fill="#0000FF">187</text>
<text x="12" y="0" font-size="0.5" fill="#0000FF">188</text>
<text x="11" y="0" font-size="0.5" fill="#0000FF">189</text>
<text x="10" y="0" font-size="0.5" fill="#0000FF">190</text>
<text x="9" y="0" font-size="0.5" fill="#0000FF">191</text>
<text x="8" y="0" font-size="0.5" fill="#0000FF">192</text>
<text x="7" y="0" font-size="0.5" fill="#0000FF">193</text>
<text x="6" y="0" font-size="0.5" fill="#0000FF">194</text>
<text x="5" y="0" font-size="0.5" fill="#0000FF">195</text>
<text x="4" y="0" font-size="0.5" fill="#0000FF">196</text>
<text x="3" y="0" font-size="0.5" fill="#0000FF">197</text>
<text x="2" y="0" font-size="0.5" fill="#0000FF">198</text>
<text x="1" y="0" font-size="0.5" fill="#0000FF">199</text>
<polygon points="21,21 21,22 20,22 20,23 21,23 21,24 22,24 23,24 23,25 23,26 23,27 23,28 23,29 23,30 24,30 25,30 26,30 26,29 26,28 26,27 26,26 26,25 26,24 27,24 28,24 28,23 29,23 29,22 28,22 28,21 27,21 26,21 25,21 24,21 23,21 22,21 " style="fill-opacity:0; stroke-opacity:0.8; stroke:#0000FF; stroke-width:0.1"/>
<text x="21" y="21" font-size="0.5" fill="#0000FF">0</text>
<text x="21" y="22" font-size="0.5" fill="#0000FF">1</text>
<text x="20" y="22" font-size="0.5" fill="#0000FF">2</text>
<text x="20" y="23" font-size="0.5" fill="#0000FF">3</text>
<text x="21" y="23" font-size="0.5" fill="#0000FF">4</text>
<text x="21" y="24" font-size="0.5" fill="#0000FF">5</text>
<text x="22" y="24" font-size="0.5" fill="#0000FF">6</text>
<text x="23" y="24" font-size="0.5" fill="#0000FF">7</text>
<text x="23" y="25" font-size="0.5" fill="#0000FF">8</text>
<text x="23" y="26" font-size="0.5" fill="#0000FF">9</text>
<text x="23" y="27" font-size="0.5" fill="#0000FF">10</text>
<text x="23" y="28" font-size="0.5" fill="#0000FF">11</text>
<text x="23" y="29" font-size="0.5" fill="#0000FF">12</text>
<text x="23" y="30" font-size="0.5" fill="#0000FF">13</text>
<text x="24" y="30" font-size="0.5" fill="#0000FF">14</text>
<text x="25" y="30" font-size="0.5" fill="#0000FF">15</text>
<text x="26" y="30" font-size="0.5" fill="#0000FF">16</text>
<text x="26" y="29" font-size="0.5" fill="#0000FF">17</text>
<text x="26" y="28" font-size="0.5" fill="#0000FF">18</text>
<text x="26" y="27" font-size="0.5" fill="#0000FF">19</text>
<text x="26" y="26" font-size="0.5" fill="#0000FF">20</text>
<text x="26" y="25" font-size="0.5" fill="#0000FF">21</text>
<text x="26" y="24" font-size="0.5" fill="#0000FF">22</text>
<text x="27" y="24" font-size="0.5" fill="#0000FF">23</text>
<text x="28" y="24" font-size="0.5" fill="#0000FF">24</text>
<text x="28" y="23" font-size="0.5" fill="#0000FF">25</text>
<text x="29" y="23" font-size="0.5" fill="#0000FF">26</text>
<text x="29" y="22" font-size="0.5" fill="#0000FF">27</text>
<text x="28" y="22" font-size="0.5" fill="#0000FF">28</text>
<text x="28" y="21" font-size="0.5" fill="#0000FF">29</text>
<text x="27" y="21" font-size="0.5" fill="#0000FF">30</text>
<text x="26" y="21" font-size="0.5" fill="#0000FF">31</text>
<text x="25" y="21" font-size="0.5" fill="#0000FF">32</text>
<text x="24" y="21" font-size="0.5" fill="#0000FF">33</text>
<text x="23" y="21" font-size="0.5" fill="#0000FF">34</text>
<text x="22" y="21" font-size="0.5" fill="#0000FF">35</text>
</svg>
