<?xml version="1.0" standalone="no"?>
<!DOCTYPE svg PUBLIC "-//W3C//DTD SVG 1.1//EN"
"http://www.w3.org/Graphics/SVG/1.1/DTD/svg11.dtd">
<svg width="30" height="30" version="1.1" xmlns:xlink="http://www.w3.org/1999/xlink" xmlns="http://www.w3.org/2000/svg">
<image y="0" x="0" xlink:href="T_result.bmp" />
<polygon points="10.4179,1 5,1 5,7 7.8,7 8.48249,6.3175 " style="fill-opacity:0; stroke-opacity:0.8; stroke:#0000FF; stroke-width:0.1"/>
<polygon points="17.2908,7 19,7 19,1.4 16.2525,4.14745 " style="fill-opacity:0; stroke-opacity:0.8; stroke:#0000FF; stroke-width:0.1"/>
<polygon points="26.4179,1 21,1 21,7 24.0679,7 24.5176,6.22103 " style="fill-opacity:0; stroke-opacity:0.8; stroke:#0000FF; stroke-width:0.1"/>
<polygon points="34.4179,1 29,1 29,7 32.1317,7 32.5982,5.9997 " style="fill-opacity:0; stroke-opacity:0.8; stroke:#0000FF; stroke-width:0.1"/>
<polygon points="42.2708,1 37,1 37,7 39.7045,7 41.2573,4.78241 " style="fill-opacity:0; stroke-opacity:0.8; stroke:#0000FF; stroke-width:0.1"/>
<polygon points="49.2908,7 51,7 51,2.74645 47.8431,3.02264 " style="fill-opacity:0; stroke-opacity:0.8; stroke:#0000FF; stroke-width:0.1"/>
<polygon points="56.3702,7 59,7 59,1.66527 57.7402,1.88742 " style="fill-opacity:0; stroke-opacity:0.8; stroke:#0000FF; stroke-width:0.1"/>
<polygon points="67,2.54952 67,1 61,1 61,7 64.3702,7 65.7224,1.95376 " style="fill-opacity:0; stroke-opacity:0.8; stroke:#0000FF; stroke-width:0.1"/>
<polygon points="75,1.80886 75,1 69,1 69,7 72.3702,7 73.7896,1.70296 " style="fill-opacity:0; stroke-opacity:0.8; stroke:#0000FF; stroke-width:0.1"/>
<polygon points="80.3702,7 83,7 83,1 82.8699,1 81.425,3.06343 " style="fill-opacity:0; stroke-opacity:0.8; stroke:#0000FF; stroke-width:0.1"/>
<polygon points="88.3702,7 91,7 91,1.52513 89.7116,1.99408 " style="fill-opacity:0; stroke-opacity:0.8; stroke:#0000FF; stroke-width:0.1"/>
<polygon points="96.3702,7 99,7 99,1.45508 97.6466,2.23644 " style="fill-opacity:0; stroke-opacity:0.8; stroke:#0000FF; stroke-width:0.1"/>
<polygon points="104.37,7 107,7 107,1.28749 105.647,2.23481 " style="fill-opacity:0; stroke-opacity:0.8; stroke:#0000FF; stroke-width:0.1"/>
<polygon points="114.418,1 109,1 109,7 112.234,7 " style="fill-opacity:0; stroke-opacity:0.8; stroke:#0000FF; stroke-width:0.1"/>
<polygon points="123,1.84853 123,1 117,1 117,7 120.37,7 121.751,1.84853 " style="fill-opacity:0; stroke-opacity:0.8; stroke:#0000FF; stroke-width:0.1"/>
<polygon points="130.418,1 125,1 125,7 127.719,7 128.629,5.91616 " style="fill-opacity:0; stroke-opacity:0.8; stroke:#0000FF; stroke-width:0.1"/>
<polygon points="136.234,7 139,7 139,1 138.552,1 138.189,1.62924 " style="fill-opacity:0; stroke-opacity:0.8; stroke:#0000FF; stroke-width:0.1"/>
<polygon points="146.418,1 141,1 141,7 143.53,7 144.544,6.14947 " style="fill-opacity:0; stroke-opacity:0.8; stroke:#0000FF; stroke-width:0.1"/>
<polygon points="155,2.02206 155,1 149,1 149,7 152.37,7 153.791,1.69808 " style="fill-opacity:0; stroke-opacity:0.8; stroke:#0000FF; stroke-width:0.1"/>
<polygon points="161.907,7 163,7 163,1 162.617,1 160.123,6.35044 " style="fill-opacity:0; stroke-opacity:0.8; stroke:#0000FF; stroke-width:0.1"/>
<polygon points="10.1697,15 5,15 5,21 7.7045,21 9.58539,18.3138 " style="fill-opacity:0; stroke-opacity:0.8; stroke:#0000FF; stroke-width:0.1"/>
<polygon points="16.6481,21 19,21 19,15 18.6175,15 16.5172,19.5041 " style="fill-opacity:0; stroke-opacity:0.8; stroke:#0000FF; stroke-width:0.1"/>
<polygon points="25.5953,15 21,15 21,21 23.7045,21 26.0601,17.6359 " style="fill-opacity:0; stroke-opacity:0.8; stroke:#0000FF; stroke-width:0.1"/>
<polygon points="35,16.3149 35,15 29,15 29,21 32.3702,21 33.7177,15.9713 " style="fill-opacity:0; stroke-opacity:0.8; stroke:#0000FF; stroke-width:0.1"/>
<polygon points="42.1106,15 37,15 37,21 40.2341,21 42.1702,15.6807 " style="fill-opacity:0; stroke-opacity:0.8; stroke:#0000FF; stroke-width:0.1"/>
<polygon points="49.3583,21 51,21 51,15 50.8699,15 48.2831,18.6943 " style="fill-opacity:0; stroke-opacity:0.8; stroke:#0000FF; stroke-width:0.1"/>
<polygon points="59,16.7842 59,15 53,15 53,21 56.3702,21 57.7369,15.8998 " style="fill-opacity:0; stroke-opacity:0.8; stroke:#0000FF; stroke-width:0.1"/>
<polygon points="64.3702,21 67,21 67,15 66.9076,15 65.5418,16.6277 " style="fill-opacity:0; stroke-opacity:0.8; stroke:#0000FF; stroke-width:0.1"/>
<polygon points="74.2708,15 69,15 69,21 72.2341,21 73.8602,16.5324 " style="fill-opacity:0; stroke-opacity:0.8; stroke:#0000FF; stroke-width:0.1"/>
<polygon points="81.4439,21 83,21 83,15 82.8699,15 80.1897,18.8277 " style="fill-opacity:0; stroke-opacity:0.8; stroke:#0000FF; stroke-width:0.1"/>
<polygon points="91,16.9445 91,15 85,15 85,21 89.2908,21 87.71,16.6567 " style="fill-opacity:0; stroke-opacity:0.8; stroke:#0000FF; stroke-width:0.1"/>
<polygon points="96.3702,21 99,21 99,15.1345 97.635,16.2799 " style="fill-opacity:0; stroke-opacity:0.8; stroke:#0000FF; stroke-width:0.1"/>
<polygon points="104.37,21 107,21 107,15 106.617,15 105.114,18.2242 " style="fill-opacity:0; stroke-opacity:0.8; stroke:#0000FF; stroke-width:0.1"/>
<polygon points="112.37,21 115,21 115,15.6108 113.786,15.717 " style="fill-opacity:0; stroke-opacity:0.8; stroke:#0000FF; stroke-width:0.1"/>
<polygon points="120.37,21 123,21 123,15.7349 121.687,16.0868 " style="fill-opacity:0; stroke-opacity:0.8; stroke:#0000FF; stroke-width:0.1"/>
<polygon points="129.358,21 131,21 131,15.4 128.099,18.3005 " style="fill-opacity:0; stroke-opacity:0.8; stroke:#0000FF; stroke-width:0.1"/>
<polygon points="139,17.1737 139,15 133,15 133,21 136.932,21 136.495,16.0056 " style="fill-opacity:0; stroke-opacity:0.8; stroke:#0000FF; stroke-width:0.1"/>
<polygon points="145.836,21 147,21 147,15 146.617,15 144.18,20.2277 " style="fill-opacity:0; stroke-opacity:0.8; stroke:#0000FF; stroke-width:0.1"/>
<polygon points="152.932,21 155,21 155,16.1271 152.583,17.007 " style="fill-opacity:0; stroke-opacity:0.8; stroke:#0000FF; stroke-width:0.1"/>
<polygon points="160.932,21 163,21 163,16.4625 160.554,16.6765 " style="fill-opacity:0; stroke-opacity:0.8; stroke:#0000FF; stroke-width:0.1"/>
<polygon points="11,30.9005 11,29 5,29 5,35 8.93201,35 8.5151,30.2347 " style="fill-opacity:0; stroke-opacity:0.8; stroke:#0000FF; stroke-width:0.1"/>
<polygon points="16.5373,35 19,35 19,29.9525 17.3769,30.2387 " style="fill-opacity:0; stroke-opacity:0.8; stroke:#0000FF; stroke-width:0.1"/>
<polygon points="24.932,35 27,35 27,29.4 24.6479,31.7521 " style="fill-opacity:0; stroke-opacity:0.8; stroke:#0000FF; stroke-width:0.1"/>
<polygon points="34.0912,29 29,29 29,35 32.2341,35 34.0912,29.8977 " style="fill-opacity:0; stroke-opacity:0.8; stroke:#0000FF; stroke-width:0.1"/>
<polygon points="41.2908,35 43,35 43,30.5269 39.864,31.0799 " style="fill-opacity:0; stroke-opacity:0.8; stroke:#0000FF; stroke-width:0.1"/>
<polygon points="51,30.5045 51,29 45,29 45,35 48.5373,35 49.4843,29.6294 " style="fill-opacity:0; stroke-opacity:0.8; stroke:#0000FF; stroke-width:0.1"/>
<polygon points="56.677,35 59,35 59,29 58.6175,29 56.677,33.1615 " style="fill-opacity:0; stroke-opacity:0.8; stroke:#0000FF; stroke-width:0.1"/>
<polygon points="67,31 67,29 61,29 61,35 64.3702,35 65.7713,29.7713 " style="fill-opacity:0; stroke-opacity:0.8; stroke:#0000FF; stroke-width:0.1"/>
<polygon points="73.5465,35 75,35 75,29 74.8699,29 72.1076,32.945 " style="fill-opacity:0; stroke-opacity:0.8; stroke:#0000FF; stroke-width:0.1"/>
<polygon points="81.9779,29 77,29 77,35 80.2341,35 82.1645,29.6962 " style="fill-opacity:0; stroke-opacity:0.8; stroke:#0000FF; stroke-width:0.1"/>
<polygon points="91,31.8193 91,29 85,29 85,35 88.932,35 88.4678,29.6945 " style="fill-opacity:0; stroke-opacity:0.8; stroke:#0000FF; stroke-width:0.1"/>
<polygon points="98.2708,29 93,29 93,35 95.4,35 97.1254,33.2746 " style="fill-opacity:0; stroke-opacity:0.8; stroke:#0000FF; stroke-width:0.1"/>
<polygon points="104.677,35 107,35 107,30.1271 104.677,30.9726 " style="fill-opacity:0; stroke-opacity:0.8; stroke:#0000FF; stroke-width:0.1"/>
<polygon points="112.37,35 115,35 115,29 115,29 113.604,30.3962 " style="fill-opacity:0; stroke-opacity:0.8; stroke:#0000FF; stroke-width:0.1"/>
<polygon points="123,30.6606 123,29 117,29 117,35 120.932,35 120.533,30.4448 " style="fill-opacity:0; stroke-opacity:0.8; stroke:#0000FF; stroke-width:0.1"/>
<polygon points="128.537,35 131,35 131,29.8261 129.343,30.4291 " style="fill-opacity:0; stroke-opacity:0.8; stroke:#0000FF; stroke-width:0.1"/>
<polygon points="136.537,35 139,35 139,29 138.87,29 137.166,31.433 " style="fill-opacity:0; stroke-opacity:0.8; stroke:#0000FF; stroke-width:0.1"/>
<polygon points="147,31.8193 147,29 141,29 141,35 144.677,35 144.677,29.87 " style="fill-opacity:0; stroke-opacity:0.8; stroke:#0000FF; stroke-width:0.1"/>
<polygon points="155,30.6606 155,29 149,29 149,35 152.677,35 152.677,30.4574 " style="fill-opacity:0; stroke-opacity:0.8; stroke:#0000FF; stroke-width:0.1"/>
<polygon points="162.17,29 157,29 157,35 160.234,35 161.936,30.3227 " style="fill-opacity:0; stroke-opacity:0.8; stroke:#0000FF; stroke-width:0.1"/>
<polygon points="8.67695,49 11,49 11,43.4 8.67695,45.723 " style="fill-opacity:0; stroke-opacity:0.8; stroke:#0000FF; stroke-width:0.1"/>
<polygon points="16.6428,49 19,49 19,43 18.6175,43 16.417,47.7191 " style="fill-opacity:0; stroke-opacity:0.8; stroke:#0000FF; stroke-width:0.1"/>
<polygon points="24.677,49 27,49 27,44.4625 24.677,44.6658 " style="fill-opacity:0; stroke-opacity:0.8; stroke:#0000FF; stroke-width:0.1"/>
<polygon points="33.0462,49 35,49 35,43 34.6175,43 32.4329,47.6848 " style="fill-opacity:0; stroke-opacity:0.8; stroke:#0000FF; stroke-width:0.1"/>
<polygon points="43,44.1314 43,43 37,43 37,49 40.5373,49 41.3958,44.1314 " style="fill-opacity:0; stroke-opacity:0.8; stroke:#0000FF; stroke-width:0.1"/>
<polygon points="49.1173,49 51,49 51,43 50.6175,43 48.3994,47.7566 " style="fill-opacity:0; stroke-opacity:0.8; stroke:#0000FF; stroke-width:0.1"/>
<polygon points="59,44.7842 59,43 53,43 53,49 56.5373,49 57.4696,43.7127 " style="fill-opacity:0; stroke-opacity:0.8; stroke:#0000FF; stroke-width:0.1"/>
<polygon points="64.45,49 67,49 67,43 66.6175,43 64.5956,47.336 " style="fill-opacity:0; stroke-opacity:0.8; stroke:#0000FF; stroke-width:0.1"/>
<polygon points="72.45,49 75,49 75,43 74.4179,43 72.5183,48.2191 " style="fill-opacity:0; stroke-opacity:0.8; stroke:#0000FF; stroke-width:0.1"/>
<polygon points="82.1106,43 77,43 77,49 80.2341,49 82.0134,44.1114 " style="fill-opacity:0; stroke-opacity:0.8; stroke:#0000FF; stroke-width:0.1"/>
<polygon points="89.2012,49 91,49 91,43 90.6175,43 88.3719,47.8156 " style="fill-opacity:0; stroke-opacity:0.8; stroke:#0000FF; stroke-width:0.1"/>
<polygon points="96.5373,49 99,49 99,43.6351 97.3474,44.4057 " style="fill-opacity:0; stroke-opacity:0.8; stroke:#0000FF; stroke-width:0.1"/>
<polygon points="104.99,49 107,49 107,43 106.617,43 104.477,47.5906 " style="fill-opacity:0; stroke-opacity:0.8; stroke:#0000FF; stroke-width:0.1"/>
<polygon points="112.37,49 115,49 115,43 114.418,43 112.75,47.5819 " style="fill-opacity:0; stroke-opacity:0.8; stroke:#0000FF; stroke-width:0.1"/>
<polygon points="120.93,49 123,49 123,43 122.87,43 120.475,46.4201 " style="fill-opacity:0; stroke-opacity:0.8; stroke:#0000FF; stroke-width:0.1"/>
<polygon points="129.665,49 131,49 131,43 130.87,43 128.032,47.0532 " style="fill-opacity:0; stroke-opacity:0.8; stroke:#0000FF; stroke-width:0.1"/>
<polygon points="136.37,49 139,49 139,43.6351 137.638,44.2704 " style="fill-opacity:0; stroke-opacity:0.8; stroke:#0000FF; stroke-width:0.1"/>
<polygon points="145.735,49 147,49 147,43 146.617,43 144.226,48.1285 " style="fill-opacity:0; stroke-opacity:0.8; stroke:#0000FF; stroke-width:0.1"/>
<polygon points="153.296,49 155,49 155,43 154.617,43 152.347,47.8689 " style="fill-opacity:0; stroke-opacity:0.8; stroke:#0000FF; stroke-width:0.1"/>
<polygon points="161.808,43 157,43 157,49 159.704,49 161.808,45.9954 " style="fill-opacity:0; stroke-opacity:0.8; stroke:#0000FF; stroke-width:0.1"/>
<polygon points="11,58.9005 11,57 5,57 5,63 8.67695,63 8.67695,58.2781 " style="fill-opacity:0; stroke-opacity:0.8; stroke:#0000FF; stroke-width:0.1"/>
<polygon points="18.4179,57 13,57 13,63 15.2798,63 16.5605,62.1032 " style="fill-opacity:0; stroke-opacity:0.8; stroke:#0000FF; stroke-width:0.1"/>
<polygon points="27,58.2808 27,57 21,57 21,63 24.5373,63 25.4678,57.7232 " style="fill-opacity:0; stroke-opacity:0.8; stroke:#0000FF; stroke-width:0.1"/>
<polygon points="33.2908,63 35,63 35,57 34.8699,57 32.394,60.536 " style="fill-opacity:0; stroke-opacity:0.8; stroke:#0000FF; stroke-width:0.1"/>
<polygon points="43,58.058 43,57 37,57 37,63 40.3702,63 41.7534,57.8381 " style="fill-opacity:0; stroke-opacity:0.8; stroke:#0000FF; stroke-width:0.1"/>
<polygon points="51,58.2374 51,57 45,57 45,63 48.3702,63 49.7967,57.6763 " style="fill-opacity:0; stroke-opacity:0.8; stroke:#0000FF; stroke-width:0.1"/>
<polygon points="59,58.8311 59,57 53,57 53,63 56.5373,63 57.432,57.9258 " style="fill-opacity:0; stroke-opacity:0.8; stroke:#0000FF; stroke-width:0.1"/>
<polygon points="64.93,63 67,63 67,57.4 64.4009,59.9991 " style="fill-opacity:0; stroke-opacity:0.8; stroke:#0000FF; stroke-width:0.1"/>
<polygon points="72.677,63 75,63 75,57.9471 72.677,59.0304 " style="fill-opacity:0; stroke-opacity:0.8; stroke:#0000FF; stroke-width:0.1"/>
<polygon points="80.3702,63 83,63 83,57.8947 81.7079,58.0077 " style="fill-opacity:0; stroke-opacity:0.8; stroke:#0000FF; stroke-width:0.1"/>
<polygon points="88.2341,63 91,63 91,57 90.6175,57 89.7081,58.9502 " style="fill-opacity:0; stroke-opacity:0.8; stroke:#0000FF; stroke-width:0.1"/>
<polygon points="97.3692,57 93,57 93,63 95.7045,63 98.3831,59.1745 " style="fill-opacity:0; stroke-opacity:0.8; stroke:#0000FF; stroke-width:0.1"/>
<polygon points="104.37,63 107,63 107,57.323 105.733,57.9137 " style="fill-opacity:0; stroke-opacity:0.8; stroke:#0000FF; stroke-width:0.1"/>
<polygon points="113.4,63 115,63 115,57 114.617,57 112.322,61.9222 " style="fill-opacity:0; stroke-opacity:0.8; stroke:#0000FF; stroke-width:0.1"/>
<polygon points="120.657,63 123,63 123,57 122.617,57 120.352,61.859 " style="fill-opacity:0; stroke-opacity:0.8; stroke:#0000FF; stroke-width:0.1"/>
<polygon points="128.932,63 131,63 131,58.3205 128.579,58.9691 " style="fill-opacity:0; stroke-opacity:0.8; stroke:#0000FF; stroke-width:0.1"/>
<polygon points="136.93,63 139,63 139,58.5269 136.227,59.0158 " style="fill-opacity:0; stroke-opacity:0.8; stroke:#0000FF; stroke-width:0.1"/>
<polygon points="144.37,63 147,63 147,57.442 145.771,57.7713 " style="fill-opacity:0; stroke-opacity:0.8; stroke:#0000FF; stroke-width:0.1"/>
<polygon points="153.8,63 155,63 155,57 154.87,57 151.958,61.1582 " style="fill-opacity:0; stroke-opacity:0.8; stroke:#0000FF; stroke-width:0.1"/>
<polygon points="161,63 163,63 163,57 162.617,57 160.195,62.195 " style="fill-opacity:0; stroke-opacity:0.8; stroke:#0000FF; stroke-width:0.1"/>
<polygon points="9.62392,77 11,77 11,71 10.6175,71 8.26375,76.0476 " style="fill-opacity:0; stroke-opacity:0.8; stroke:#0000FF; stroke-width:0.1"/>
<polygon points="16.932,77 19,77 19,71 18.8699,71 16.6806,74.1266 " style="fill-opacity:0; stroke-opacity:0.8; stroke:#0000FF; stroke-width:0.1"/>
<polygon points="25.0703,77 27,77 27,71 26.6175,71 24.1714,76.2457 " style="fill-opacity:0; stroke-opacity:0.8; stroke:#0000FF; stroke-width:0.1"/>
<polygon points="32.677,77 35,77 35,71 34.8699,71 32.677,74.1318 " style="fill-opacity:0; stroke-opacity:0.8; stroke:#0000FF; stroke-width:0.1"/>
<polygon points="40.932,77 43,77 43,71.5038 40.6255,73.4962 " style="fill-opacity:0; stroke-opacity:0.8; stroke:#0000FF; stroke-width:0.1"/>
<polygon points="49.5104,77 51,77 51,71 50.6175,71 48.2951,75.9803 " style="fill-opacity:0; stroke-opacity:0.8; stroke:#0000FF; stroke-width:0.1"/>
<polygon points="56.677,77 59,77 59,71.5038 56.677,73.453 " style="fill-opacity:0; stroke-opacity:0.8; stroke:#0000FF; stroke-width:0.1"/>
<polygon points="64.9269,77 67,77 67,71 66.6175,71 64.2152,76.1518 " style="fill-opacity:0; stroke-opacity:0.8; stroke:#0000FF; stroke-width:0.1"/>
<polygon points="73.8267,71 69,71 69,77 71.7045,77 74.0576,73.6394 " style="fill-opacity:0; stroke-opacity:0.8; stroke:#0000FF; stroke-width:0.1"/>
<polygon points="82.2708,71 77,71 77,77 79.7191,77 81.1059,75.3473 " style="fill-opacity:0; stroke-opacity:0.8; stroke:#0000FF; stroke-width:0.1"/>
<polygon points="88.932,77 91,77 91,71.9471 88.5883,73.0717 " style="fill-opacity:0; stroke-opacity:0.8; stroke:#0000FF; stroke-width:0.1"/>
<polygon points="98.4179,71 93,71 93,77 95.7045,77 96.8074,75.425 " style="fill-opacity:0; stroke-opacity:0.8; stroke:#0000FF; stroke-width:0.1"/>
<polygon points="107,72.5495 107,71 101,71 101,77 104.537,77 105.45,71.8265 " style="fill-opacity:0; stroke-opacity:0.8; stroke:#0000FF; stroke-width:0.1"/>
<polygon points="112.95,77 115,77 115,71 114.617,71 112.538,75.4602 " style="fill-opacity:0; stroke-opacity:0.8; stroke:#0000FF; stroke-width:0.1"/>
<polygon points="120.856,77 123,77 123,71 122.617,71 120.234,76.1116 " style="fill-opacity:0; stroke-opacity:0.8; stroke:#0000FF; stroke-width:0.1"/>
<polygon points="128.689,77 131,77 131,71 130.617,71 128.308,75.9532 " style="fill-opacity:0; stroke-opacity:0.8; stroke:#0000FF; stroke-width:0.1"/>
<polygon points="137.131,77 139,77 139,71 138.617,71 136.142,76.3079 " style="fill-opacity:0; stroke-opacity:0.8; stroke:#0000FF; stroke-width:0.1"/>
<polygon points="145.95,77 147,77 147,71 146.87,71 143.883,75.2654 " style="fill-opacity:0; stroke-opacity:0.8; stroke:#0000FF; stroke-width:0.1"/>
<polygon points="152.791,77 155,77 155,71 154.617,71 152.254,76.0696 " style="fill-opacity:0; stroke-opacity:0.8; stroke:#0000FF; stroke-width:0.1"/>
<polygon points="160.657,77 163,77 163,71 162.418,71 160.478,76.3301 " style="fill-opacity:0; stroke-opacity:0.8; stroke:#0000FF; stroke-width:0.1"/>
<polygon points="8.53733,91 11,91 11,85.8947 9.41306,86.0335 " style="fill-opacity:0; stroke-opacity:0.8; stroke:#0000FF; stroke-width:0.1"/>
<polygon points="16.6888,91 19,91 19,85 18.4179,85 16.4614,90.3754 " style="fill-opacity:0; stroke-opacity:0.8; stroke:#0000FF; stroke-width:0.1"/>
<polygon points="26.2708,85 21,85 21,91 24.1317,91 25.3808,88.3213 " style="fill-opacity:0; stroke-opacity:0.8; stroke:#0000FF; stroke-width:0.1"/>
<polygon points="32.7341,91 35,91 35,85 34.6175,85 32.2769,90.0195 " style="fill-opacity:0; stroke-opacity:0.8; stroke:#0000FF; stroke-width:0.1"/>
<polygon points="40.5373,91 43,91 43,85 42.6175,85 40.9737,88.525 " style="fill-opacity:0; stroke-opacity:0.8; stroke:#0000FF; stroke-width:0.1"/>
<polygon points="48.7341,91 51,91 51,85 50.4179,85 48.4533,90.3978 " style="fill-opacity:0; stroke-opacity:0.8; stroke:#0000FF; stroke-width:0.1"/>
<polygon points="59,86.3452 59,85 53,85 53,91 56.5373,91 57.4076,86.0644 " style="fill-opacity:0; stroke-opacity:0.8; stroke:#0000FF; stroke-width:0.1"/>
<polygon points="67,86.8828 67,85 61,85 61,91 64.677,91 64.677,86.0373 " style="fill-opacity:0; stroke-opacity:0.8; stroke:#0000FF; stroke-width:0.1"/>
<polygon points="73.8267,85 69,85 69,91 72.1317,91 74.0009,86.9915 " style="fill-opacity:0; stroke-opacity:0.8; stroke:#0000FF; stroke-width:0.1"/>
<polygon points="83,86.6971 83,85 77,85 77,91 80.93,91 80.1713,86.6971 " style="fill-opacity:0; stroke-opacity:0.8; stroke:#0000FF; stroke-width:0.1"/>
<polygon points="89.6851,85 85,85 85,91 88.1317,91 90.1393,86.6948 " style="fill-opacity:0; stroke-opacity:0.8; stroke:#0000FF; stroke-width:0.1"/>
<polygon points="97.8159,85 93,85 93,91 96.2341,91 98.1169,85.827 " style="fill-opacity:0; stroke-opacity:0.8; stroke:#0000FF; stroke-width:0.1"/>
<polygon points="104.643,91 107,91 107,85 106.418,85 104.509,90.2435 " style="fill-opacity:0; stroke-opacity:0.8; stroke:#0000FF; stroke-width:0.1"/>
<polygon points="114.39,91 115,91 115,85.4 111.677,88.7231 " style="fill-opacity:0; stroke-opacity:0.8; stroke:#0000FF; stroke-width:0.1"/>
<polygon points="123,86.0928 123,85 117,85 117,91 120.37,91 121.715,85.9804 " style="fill-opacity:0; stroke-opacity:0.8; stroke:#0000FF; stroke-width:0.1"/>
<polygon points="128.93,91 131,91 131,86.3205 128.236,87.0612 " style="fill-opacity:0; stroke-opacity:0.8; stroke:#0000FF; stroke-width:0.1"/>
<polygon points="139,87.0808 139,85 133,85 133,91 136.537,91 137.457,85.7858 " style="fill-opacity:0; stroke-opacity:0.8; stroke:#0000FF; stroke-width:0.1"/>
<polygon points="144.537,91 147,91 147,85.7349 145.39,86.1664 " style="fill-opacity:0; stroke-opacity:0.8; stroke:#0000FF; stroke-width:0.1"/>
<polygon points="152.537,91 155,91 155,85.5038 153.247,86.9746 " style="fill-opacity:0; stroke-opacity:0.8; stroke:#0000FF; stroke-width:0.1"/>
<polygon points="162.2,91 163,91 163,85.4 159.8,88.6 " style="fill-opacity:0; stroke-opacity:0.8; stroke:#0000FF; stroke-width:0.1"/>
<polygon points="10.117,105 11,105 11,99 10.8699,99 7.80312,103.38 " style="fill-opacity:0; stroke-opacity:0.8; stroke:#0000FF; stroke-width:0.1"/>
<polygon points="16.2341,105 19,105 19,99 18.9076,99 18.0428,100.031 " style="fill-opacity:0; stroke-opacity:0.8; stroke:#0000FF; stroke-width:0.1"/>
<polygon points="26.1697,99 21,99 21,105 24.1317,105 25.7077,101.62 " style="fill-opacity:0; stroke-opacity:0.8; stroke:#0000FF; stroke-width:0.1"/>
<polygon points="32.677,105 35,105 35,99.7817 32.677,101.123 " style="fill-opacity:0; stroke-opacity:0.8; stroke:#0000FF; stroke-width:0.1"/>
<polygon points="40.677,105 43,105 43,100.321 40.677,100.943 " style="fill-opacity:0; stroke-opacity:0.8; stroke:#0000FF; stroke-width:0.1"/>
<polygon points="48.9602,99 45,99 45,105 48.1317,105 50.3757,100.188 " style="fill-opacity:0; stroke-opacity:0.8; stroke:#0000FF; stroke-width:0.1"/>
<polygon points="59,101.174 59,99 53,99 53,105 56.677,105 56.677,100.09 " style="fill-opacity:0; stroke-opacity:0.8; stroke:#0000FF; stroke-width:0.1"/>
<polygon points="65.8825,99 61,99 61,105 64.2341,105 66.0572,99.9909 " style="fill-opacity:0; stroke-opacity:0.8; stroke:#0000FF; stroke-width:0.1"/>
<polygon points="72.5373,105 75,105 75,99.6328 73.2701,100.844 " style="fill-opacity:0; stroke-opacity:0.8; stroke:#0000FF; stroke-width:0.1"/>
<polygon points="83,101.193 83,99 77,99 77,105 80.93,105 80.1229,100.422 " style="fill-opacity:0; stroke-opacity:0.8; stroke:#0000FF; stroke-width:0.1"/>
<polygon points="89.1698,105 91,105 91,99 90.6175,99 88.106,104.386 " style="fill-opacity:0; stroke-opacity:0.8; stroke:#0000FF; stroke-width:0.1"/>
<polygon points="98.4179,99 93,99 93,105 95.0528,105 96.5484,104.137 " style="fill-opacity:0; stroke-opacity:0.8; stroke:#0000FF; stroke-width:0.1"/>
<polygon points="107,101.193 107,99 101,99 101,105 105.291,105 103.571,100.274 " style="fill-opacity:0; stroke-opacity:0.8; stroke:#0000FF; stroke-width:0.1"/>
<polygon points="112.677,105 115,105 115,99.6328 112.677,101.259 " style="fill-opacity:0; stroke-opacity:0.8; stroke:#0000FF; stroke-width:0.1"/>
<polygon points="123,101.207 123,99 117,99 117,105 121.291,105 119.698,100.625 " style="fill-opacity:0; stroke-opacity:0.8; stroke:#0000FF; stroke-width:0.1"/>
<polygon points="128.234,105 131,105 131,99 131,99 130.085,99.9152 " style="fill-opacity:0; stroke-opacity:0.8; stroke:#0000FF; stroke-width:0.1"/>
<polygon points="137.515,99 133,99 133,105 135.704,105 138.333,101.247 " style="fill-opacity:0; stroke-opacity:0.8; stroke:#0000FF; stroke-width:0.1"/>
<polygon points="147,100.439 147,99 141,99 141,105 144.37,105 145.815,99.609 " style="fill-opacity:0; stroke-opacity:0.8; stroke:#0000FF; stroke-width:0.1"/>
<polygon points="155,101.486 155,99 149,99 149,105 152.93,105 152.069,100.119 " style="fill-opacity:0; stroke-opacity:0.8; stroke:#0000FF; stroke-width:0.1"/>
<polygon points="160.677,105 163,105 163,100.24 160.677,100.649 " style="fill-opacity:0; stroke-opacity:0.8; stroke:#0000FF; stroke-width:0.1"/>
<polygon points="9.51492,113 5,113 5,119 8.13172,119 10.1351,114.704 " style="fill-opacity:0; stroke-opacity:0.8; stroke:#0000FF; stroke-width:0.1"/>
<polygon points="17.5953,113 13,113 13,119 15.3499,119 18.0796,115.747 " style="fill-opacity:0; stroke-opacity:0.8; stroke:#0000FF; stroke-width:0.1"/>
<polygon points="26.6102,119 27,119 27,113.4 23.5457,116.854 " style="fill-opacity:0; stroke-opacity:0.8; stroke:#0000FF; stroke-width:0.1"/>
<polygon points="33.2431,119 35,119 35,113.4 32.4309,115.969 " style="fill-opacity:0; stroke-opacity:0.8; stroke:#0000FF; stroke-width:0.1"/>
<polygon points="40.932,119 43,119 43,113.782 40.5969,115.169 " style="fill-opacity:0; stroke-opacity:0.8; stroke:#0000FF; stroke-width:0.1"/>
<polygon points="51,114.945 51,113 45,113 45,119 48.93,119 48.1713,114.697 " style="fill-opacity:0; stroke-opacity:0.8; stroke:#0000FF; stroke-width:0.1"/>
<polygon points="57.2431,119 59,119 59,114.527 56.1778,115.025 " style="fill-opacity:0; stroke-opacity:0.8; stroke:#0000FF; stroke-width:0.1"/>
<polygon points="64.6481,119 67,119 67,113 66.4179,113 64.5679,118.083 " style="fill-opacity:0; stroke-opacity:0.8; stroke:#0000FF; stroke-width:0.1"/>
<polygon points="72.932,119 75,119 75,113.633 72.6089,115.307 " style="fill-opacity:0; stroke-opacity:0.8; stroke:#0000FF; stroke-width:0.1"/>
<polygon points="82.4179,113 77,113 77,119 79.4,119 80.7114,117.689 " style="fill-opacity:0; stroke-opacity:0.8; stroke:#0000FF; stroke-width:0.1"/>
<polygon points="91,114.058 91,113 85,113 85,119 88.5373,119 89.4567,113.786 " style="fill-opacity:0; stroke-opacity:0.8; stroke:#0000FF; stroke-width:0.1"/>
<polygon points="98.4179,113 93,113 93,119 94.7086,119 96.467,118.36 " style="fill-opacity:0; stroke-opacity:0.8; stroke:#0000FF; stroke-width:0.1"/>
<polygon points="104.537,119 107,119 107,113.455 105.347,114.41 " style="fill-opacity:0; stroke-opacity:0.8; stroke:#0000FF; stroke-width:0.1"/>
<polygon points="113.291,119 115,119 115,114.259 112.064,115.628 " style="fill-opacity:0; stroke-opacity:0.8; stroke:#0000FF; stroke-width:0.1"/>
<polygon points="121.291,119 123,119 123,113.504 120.158,115.888 " style="fill-opacity:0; stroke-opacity:0.8; stroke:#0000FF; stroke-width:0.1"/>
<polygon points="130.301,119 131,119 131,113 130.87,113 127.714,117.507 " style="fill-opacity:0; stroke-opacity:0.8; stroke:#0000FF; stroke-width:0.1"/>
<polygon points="138.035,119 139,119 139,113.4 135.92,116.48 " style="fill-opacity:0; stroke-opacity:0.8; stroke:#0000FF; stroke-width:0.1"/>
<polygon points="147,114.92 147,113 141,113 141,119 144.93,119 144.121,114.412 " style="fill-opacity:0; stroke-opacity:0.8; stroke:#0000FF; stroke-width:0.1"/>
<polygon points="155,115.193 155,113 149,113 149,119 153.243,119 152.008,114.392 " style="fill-opacity:0; stroke-opacity:0.8; stroke:#0000FF; stroke-width:0.1"/>
<polygon points="162.418,113 157,113 157,119 158.857,119 160.516,118.226 " style="fill-opacity:0; stroke-opacity:0.8; stroke:#0000FF; stroke-width:0.1"/>
<polygon points="8.93002,133 11,133 11,127 10.6175,127 8.62535,131.272 " style="fill-opacity:0; stroke-opacity:0.8; stroke:#0000FF; stroke-width:0.1"/>
<polygon points="16.5373,133 19,133 19,128.028 17.3354,128.474 " style="fill-opacity:0; stroke-opacity:0.8; stroke:#0000FF; stroke-width:0.1"/>
<polygon points="27,128.632 27,127 21,127 21,133 24.677,133 24.677,128.223 " style="fill-opacity:0; stroke-opacity:0.8; stroke:#0000FF; stroke-width:0.1"/>
<polygon points="32.5373,133 35,133 35,128.179 33.3622,128.322 " style="fill-opacity:0; stroke-opacity:0.8; stroke:#0000FF; stroke-width:0.1"/>
<polygon points="42.1697,127 37,127 37,133 39.3499,133 41.5805,130.342 " style="fill-opacity:0; stroke-opacity:0.8; stroke:#0000FF; stroke-width:0.1"/>
<polygon points="48.2341,133 51,133 51,127 50.8699,127 49.9287,128.344 " style="fill-opacity:0; stroke-opacity:0.8; stroke:#0000FF; stroke-width:0.1"/>
<polygon points="57.4887,127 53,127 53,133 56.1317,133 58.3536,128.235 " style="fill-opacity:0; stroke-opacity:0.8; stroke:#0000FF; stroke-width:0.1"/>
<polygon points="67,128.697 67,127 61,127 61,133 64.932,133 64.5555,128.697 " style="fill-opacity:0; stroke-opacity:0.8; stroke:#0000FF; stroke-width:0.1"/>
<polygon points="73,127 69,127 69,133 72.1317,133 74.3159,128.316 " style="fill-opacity:0; stroke-opacity:0.8; stroke:#0000FF; stroke-width:0.1"/>
<polygon points="81.3923,127 77,127 77,133 79.7045,133 82.0879,129.596 " style="fill-opacity:0; stroke-opacity:0.8; stroke:#0000FF; stroke-width:0.1"/>
<polygon points="88.5373,133 91,133 91,127.4 89.209,129.191 " style="fill-opacity:0; stroke-opacity:0.8; stroke:#0000FF; stroke-width:0.1"/>
<polygon points="98.1106,127 93,127 93,133 96.1317,133 97.9215,129.162 " style="fill-opacity:0; stroke-opacity:0.8; stroke:#0000FF; stroke-width:0.1"/>
<polygon points="105.572,127 101,127 101,133 104.132,133 106.323,128.3 " style="fill-opacity:0; stroke-opacity:0.8; stroke:#0000FF; stroke-width:0.1"/>
<polygon points="113.444,133 115,133 115,127.4 111.964,130.436 " style="fill-opacity:0; stroke-opacity:0.8; stroke:#0000FF; stroke-width:0.1"/>
<polygon points="121.243,133 123,133 123,128.321 120.191,129.073 " style="fill-opacity:0; stroke-opacity:0.8; stroke:#0000FF; stroke-width:0.1"/>
<polygon points="131,129.184 131,127 125,127 125,133 128.93,133 128.069,128.117 " style="fill-opacity:0; stroke-opacity:0.8; stroke:#0000FF; stroke-width:0.1"/>
<polygon points="139,128.92 139,127 133,127 133,133 136.932,133 136.537,128.485 " style="fill-opacity:0; stroke-opacity:0.8; stroke:#0000FF; stroke-width:0.1"/>
<polygon points="145.681,127 141,127 141,133 144.234,133 146.095,127.887 " style="fill-opacity:0; stroke-opacity:0.8; stroke:#0000FF; stroke-width:0.1"/>
<polygon points="153.291,133 155,133 155,128.108 152.116,129.773 " style="fill-opacity:0; stroke-opacity:0.8; stroke:#0000FF; stroke-width:0.1"/>
<polygon points="160.394,133 163,133 163,127 162.617,127 160.394,131.768 " style="fill-opacity:0; stroke-opacity:0.8; stroke:#0000FF; stroke-width:0.1"/>
<polygon points="11,142.315 11,141 5,141 5,147 8.53733,147 9.43728,141.896 " style="fill-opacity:0; stroke-opacity:0.8; stroke:#0000FF; stroke-width:0.1"/>
<polygon points="16.2341,147 19,147 19,141.135 18.0915,141.897 " style="fill-opacity:0; stroke-opacity:0.8; stroke:#0000FF; stroke-width:0.1"/>
<polygon points="26.1106,141 21,141 21,147 23.7045,147 25.8543,143.93 " style="fill-opacity:0; stroke-opacity:0.8; stroke:#0000FF; stroke-width:0.1"/>
<polygon points="35,142.945 35,141 29,141 29,147 33.2431,147 32.0882,142.69 " style="fill-opacity:0; stroke-opacity:0.8; stroke:#0000FF; stroke-width:0.1"/>
<polygon points="41.8083,141 37,141 37,147 39.3499,147 41.8083,144.07 " style="fill-opacity:0; stroke-opacity:0.8; stroke:#0000FF; stroke-width:0.1"/>
<polygon points="49.4307,141 45,141 45,147 48.1317,147 50.3941,142.148 " style="fill-opacity:0; stroke-opacity:0.8; stroke:#0000FF; stroke-width:0.1"/>
<polygon points="59,142.697 59,141 53,141 53,147 57.2431,147 56.0901,142.697 " style="fill-opacity:0; stroke-opacity:0.8; stroke:#0000FF; stroke-width:0.1"/>
<polygon points="66.2708,141 61,141 61,147 63.09,147 65.1193,145.297 " style="fill-opacity:0; stroke-opacity:0.8; stroke:#0000FF; stroke-width:0.1"/>
<polygon points="72.5373,147 75,147 75,141.782 73.2826,142.773 " style="fill-opacity:0; stroke-opacity:0.8; stroke:#0000FF; stroke-width:0.1"/>
<polygon points="82.2708,141 77,141 77,147 79.7413,147 81.4614,144.021 " style="fill-opacity:0; stroke-opacity:0.8; stroke:#0000FF; stroke-width:0.1"/>
<polygon points="91,142.281 91,141 85,141 85,147 88.3702,147 89.7561,141.828 " style="fill-opacity:0; stroke-opacity:0.8; stroke:#0000FF; stroke-width:0.1"/>
<polygon points="97.4003,141 93,141 93,147 96.2341,147 98.1798,141.654 " style="fill-opacity:0; stroke-opacity:0.8; stroke:#0000FF; stroke-width:0.1"/>
<polygon points="105.827,141 101,141 101,147 103.741,147 106.008,143.074 " style="fill-opacity:0; stroke-opacity:0.8; stroke:#0000FF; stroke-width:0.1"/>
<polygon points="115,143.485 115,141 109,141 109,147 113.291,147 111.555,142.231 " style="fill-opacity:0; stroke-opacity:0.8; stroke:#0000FF; stroke-width:0.1"/>
<polygon points="121.685,141 117,141 117,147 119.741,147 122.167,142.798 " style="fill-opacity:0; stroke-opacity:0.8; stroke:#0000FF; stroke-width:0.1"/>
<polygon points="129.883,141 125,141 125,147 128.132,147 130.17,142.629 " style="fill-opacity:0; stroke-opacity:0.8; stroke:#0000FF; stroke-width:0.1"/>
<polygon points="137.369,141 133,141 133,147 136.132,147 138.149,142.673 " style="fill-opacity:0; stroke-opacity:0.8; stroke:#0000FF; stroke-width:0.1"/>
<polygon points="147,142.414 147,141 141,141 141,147 144.677,147 144.677,142.414 " style="fill-opacity:0; stroke-opacity:0.8; stroke:#0000FF; stroke-width:0.1"/>
<polygon points="152.93,147 155,147 155,141.504 152.353,143.725 " style="fill-opacity:0; stroke-opacity:0.8; stroke:#0000FF; stroke-width:0.1"/>
<polygon points="162.17,141 157,141 157,147 159.741,147 161.714,143.583 " style="fill-opacity:0; stroke-opacity:0.8; stroke:#0000FF; stroke-width:0.1"/>
<polygon points="9.35826,161 11,161 11,156.746 7.51689,157.051 " style="fill-opacity:0; stroke-opacity:0.8; stroke:#0000FF; stroke-width:0.1"/>
<polygon points="16.932,161 19,161 19,156.24 16.5533,156.671 " style="fill-opacity:0; stroke-opacity:0.8; stroke:#0000FF; stroke-width:0.1"/>
<polygon points="24.5373,161 27,161 27,155 26.4179,155 24.8223,159.384 " style="fill-opacity:0; stroke-opacity:0.8; stroke:#0000FF; stroke-width:0.1"/>
<polygon points="33.3583,161 35,161 35,156.259 31.8357,157.735 " style="fill-opacity:0; stroke-opacity:0.8; stroke:#0000FF; stroke-width:0.1"/>
<polygon points="40.3702,161 43,161 43,155 42.5522,155 41.4806,156.856 " style="fill-opacity:0; stroke-opacity:0.8; stroke:#0000FF; stroke-width:0.1"/>
<polygon points="51,160.653 51,155 50.8699,155 47.3607,160.012 " style="fill-opacity:0; stroke-opacity:0.8; stroke:#0000FF; stroke-width:0.1"/>
<polygon points="57.6812,155 53,155 53,161 56.1317,161 58.3054,156.339 " style="fill-opacity:0; stroke-opacity:0.8; stroke:#0000FF; stroke-width:0.1"/>
<polygon points="66.8668,161 67,161 67,155.4 63.401,158.999 " style="fill-opacity:0; stroke-opacity:0.8; stroke:#0000FF; stroke-width:0.1"/>
<polygon points="73.2908,161 75,161 75,156.428 72.0213,157.512 " style="fill-opacity:0; stroke-opacity:0.8; stroke:#0000FF; stroke-width:0.1"/>
<polygon points="81.5149,155 77,155 77,161 79.7413,161 82.1685,156.796 " style="fill-opacity:0; stroke-opacity:0.8; stroke:#0000FF; stroke-width:0.1"/>
<polygon points="88.2341,161 91,161 91,155.323 90.1573,155.716 " style="fill-opacity:0; stroke-opacity:0.8; stroke:#0000FF; stroke-width:0.1"/>
<polygon points="99,157.486 99,155 93,155 93,161 97.2431,161 95.9161,156.048 " style="fill-opacity:0; stroke-opacity:0.8; stroke:#0000FF; stroke-width:0.1"/>
<polygon points="104.537,161 107,161 107,155 106.908,155 105.246,156.98 " style="fill-opacity:0; stroke-opacity:0.8; stroke:#0000FF; stroke-width:0.1"/>
<polygon points="115,157.811 115,155 109,155 109,161 113.243,161 111.911,156.027 " style="fill-opacity:0; stroke-opacity:0.8; stroke:#0000FF; stroke-width:0.1"/>
<polygon points="122.17,155 117,155 117,161 119.4,161 121.478,158.922 " style="fill-opacity:0; stroke-opacity:0.8; stroke:#0000FF; stroke-width:0.1"/>
<polygon points="131,156.831 131,155 125,155 125,161 128.734,161 129.19,155.786 " style="fill-opacity:0; stroke-opacity:0.8; stroke:#0000FF; stroke-width:0.1"/>
<polygon points="136.734,161 139,161 139,156.179 137.142,156.341 " style="fill-opacity:0; stroke-opacity:0.8; stroke:#0000FF; stroke-width:0.1"/>
<polygon points="145.061,155 141,155 141,161 144.132,161 146.262,156.431 " style="fill-opacity:0; stroke-opacity:0.8; stroke:#0000FF; stroke-width:0.1"/>
<polygon points="153,155 149,155 149,161 151.741,161 154.398,156.398 " style="fill-opacity:0; stroke-opacity:0.8; stroke:#0000FF; stroke-width:0.1"/>
<polygon points="160.37,161 163,161 163,155.952 161.659,156.189 " style="fill-opacity:0; stroke-opacity:0.8; stroke:#0000FF; stroke-width:0.1"/>
<polygon points="11,174.707 11,169 10.8699,169 7.52555,173.776 " style="fill-opacity:0; stroke-opacity:0.8; stroke:#0000FF; stroke-width:0.1"/>
<polygon points="17.8267,169 13,169 13,175 15.3499,175 18.0682,171.76 " style="fill-opacity:0; stroke-opacity:0.8; stroke:#0000FF; stroke-width:0.1"/>
<polygon points="24.2501,175 27,175 27,169 26.6175,169 24.5119,173.515 " style="fill-opacity:0; stroke-opacity:0.8; stroke:#0000FF; stroke-width:0.1"/>
<polygon points="34.2708,169 29,169 29,175 31.2798,175 32.9825,173.808 " style="fill-opacity:0; stroke-opacity:0.8; stroke:#0000FF; stroke-width:0.1"/>
<polygon points="40.3702,175 43,175 43,169.826 41.6222,170.328 " style="fill-opacity:0; stroke-opacity:0.8; stroke:#0000FF; stroke-width:0.1"/>
<polygon points="48.7339,175 51,175 51,170.028 49.125,170.53 " style="fill-opacity:0; stroke-opacity:0.8; stroke:#0000FF; stroke-width:0.1"/>
<polygon points="56.3702,175 59,175 59,169.128 57.7502,169.85 " style="fill-opacity:0; stroke-opacity:0.8; stroke:#0000FF; stroke-width:0.1"/>
<polygon points="66.2708,169 61,169 61,175 63.53,175 64.9917,173.773 " style="fill-opacity:0; stroke-opacity:0.8; stroke:#0000FF; stroke-width:0.1"/>
<polygon points="74.2708,169 69,169 69,175 71.3499,175 73.2791,172.701 " style="fill-opacity:0; stroke-opacity:0.8; stroke:#0000FF; stroke-width:0.1"/>
<polygon points="81.8083,169 77,169 77,175 80.1317,175 81.8083,171.405 " style="fill-opacity:0; stroke-opacity:0.8; stroke:#0000FF; stroke-width:0.1"/>
<polygon points="88.7339,175 91,175 91,169.633 89.0863,170.973 " style="fill-opacity:0; stroke-opacity:0.8; stroke:#0000FF; stroke-width:0.1"/>
<polygon points="99,170.582 99,169 93,169 93,175 96.5373,175 97.4179,170.006 " style="fill-opacity:0; stroke-opacity:0.8; stroke:#0000FF; stroke-width:0.1"/>
<polygon points="107,170.98 107,169 101,169 101,175 105.291,175 103.828,170.98 " style="fill-opacity:0; stroke-opacity:0.8; stroke:#0000FF; stroke-width:0.1"/>
<polygon points="115,170.377 115,169 109,169 109,175 112.734,175 113.153,170.215 " style="fill-opacity:0; stroke-opacity:0.8; stroke:#0000FF; stroke-width:0.1"/>
<polygon points="120.734,175 123,175 123,169.504 121.073,171.12 " style="fill-opacity:0; stroke-opacity:0.8; stroke:#0000FF; stroke-width:0.1"/>
<polygon points="128.677,175 131,175 131,169 130.418,169 128.677,173.783 " style="fill-opacity:0; stroke-opacity:0.8; stroke:#0000FF; stroke-width:0.1"/>
<polygon points="139,170.345 139,169 133,169 133,175 136.734,175 137.169,170.022 " style="fill-opacity:0; stroke-opacity:0.8; stroke:#0000FF; stroke-width:0.1"/>
<polygon points="145.243,175 147,175 147,169 146.87,169 144.531,172.341 " style="fill-opacity:0; stroke-opacity:0.8; stroke:#0000FF; stroke-width:0.1"/>
<polygon points="152.734,175 155,175 155,169 154.87,169 153.029,171.629 " style="fill-opacity:0; stroke-opacity:0.8; stroke:#0000FF; stroke-width:0.1"/>
<polygon points="161.246,169 157,169 157,175 160.132,175 162.177,170.613 " style="fill-opacity:0; stroke-opacity:0.8; stroke:#0000FF; stroke-width:0.1"/>
<polygon points="11,184.582 11,183 5,183 5,189 8.73391,189 9.17846,183.919 " style="fill-opacity:0; stroke-opacity:0.8; stroke:#0000FF; stroke-width:0.1"/>
<polygon points="17.2908,189 19,189 19,184.321 15.8908,185.154 " style="fill-opacity:0; stroke-opacity:0.8; stroke:#0000FF; stroke-width:0.1"/>
<polygon points="24.93,189 27,189 27,184.127 24.2475,185.129 " style="fill-opacity:0; stroke-opacity:0.8; stroke:#0000FF; stroke-width:0.1"/>
<polygon points="33.5724,183 29,183 29,189 32.2341,189 34.091,183.898 " style="fill-opacity:0; stroke-opacity:0.8; stroke:#0000FF; stroke-width:0.1"/>
<polygon points="41.4,183 37,183 37,189 40.2341,189 42.1463,183.746 " style="fill-opacity:0; stroke-opacity:0.8; stroke:#0000FF; stroke-width:0.1"/>
<polygon points="50.1106,183 45,183 45,189 47.7413,189 49.9151,185.235 " style="fill-opacity:0; stroke-opacity:0.8; stroke:#0000FF; stroke-width:0.1"/>
<polygon points="57.1434,183 53,183 53,189 56.1317,189 58.2156,184.531 " style="fill-opacity:0; stroke-opacity:0.8; stroke:#0000FF; stroke-width:0.1"/>
<polygon points="65.3583,189 67,189 67,184.108 63.9093,185.893 " style="fill-opacity:0; stroke-opacity:0.8; stroke:#0000FF; stroke-width:0.1"/>
<polygon points="72.2341,189 75,189 75,183.442 74.1767,183.663 " style="fill-opacity:0; stroke-opacity:0.8; stroke:#0000FF; stroke-width:0.1"/>
<polygon points="82.5051,189 83,189 83,183 82.8699,183 79.613,187.651 " style="fill-opacity:0; stroke-opacity:0.8; stroke:#0000FF; stroke-width:0.1"/>
<polygon points="89.3583,189 91,189 91,183.33 88.2452,186.613 " style="fill-opacity:0; stroke-opacity:0.8; stroke:#0000FF; stroke-width:0.1"/>
<polygon points="96.7339,189 99,189 99,183.826 97.1269,184.508 " style="fill-opacity:0; stroke-opacity:0.8; stroke:#0000FF; stroke-width:0.1"/>
<polygon points="106.418,183 101,183 101,189 103.741,189 105.075,186.69 " style="fill-opacity:0; stroke-opacity:0.8; stroke:#0000FF; stroke-width:0.1"/>
<polygon points="114.271,183 109,183 109,189 112.068,189 113.179,187.076 " style="fill-opacity:0; stroke-opacity:0.8; stroke:#0000FF; stroke-width:0.1"/>
<polygon points="121.827,183 117,183 117,189 120.234,189 121.941,184.31 " style="fill-opacity:0; stroke-opacity:0.8; stroke:#0000FF; stroke-width:0.1"/>
<polygon points="129.358,189 131,189 131,184.428 127.774,185.602 " style="fill-opacity:0; stroke-opacity:0.8; stroke:#0000FF; stroke-width:0.1"/>
<polygon points="136.37,189 139,189 139,183.504 137.507,184.756 " style="fill-opacity:0; stroke-opacity:0.8; stroke:#0000FF; stroke-width:0.1"/>
<polygon points="145.243,189 147,189 147,183.504 144.363,185.716 " style="fill-opacity:0; stroke-opacity:0.8; stroke:#0000FF; stroke-width:0.1"/>
<polygon points="154.035,189 155,189 155,184.259 151.447,185.916 " style="fill-opacity:0; stroke-opacity:0.8; stroke:#0000FF; stroke-width:0.1"/>
<polygon points="161.392,183 157,183 157,189 159.35,189 162.117,185.703 " style="fill-opacity:0; stroke-opacity:0.8; stroke:#0000FF; stroke-width:0.1"/>
<polygon points="8.73391,203 11,203 11,197.782 9.09419,198.882 " style="fill-opacity:0; stroke-opacity:0.8; stroke:#0000FF; stroke-width:0.1"/>
<polygon points="19,199.081 19,197 13,197 13,203 16.3702,203 17.7104,197.999 " style="fill-opacity:0; stroke-opacity:0.8; stroke:#0000FF; stroke-width:0.1"/>
<polygon points="24.93,203 27,203 27,198.746 24.2228,198.989 " style="fill-opacity:0; stroke-opacity:0.8; stroke:#0000FF; stroke-width:0.1"/>
<polygon points="32.5373,203 35,203 35,197.287 33.3396,198.45 " style="fill-opacity:0; stroke-opacity:0.8; stroke:#0000FF; stroke-width:0.1"/>
<polygon points="41.3692,197 37,197 37,203 39.7413,203 42.1896,198.759 " style="fill-opacity:0; stroke-opacity:0.8; stroke:#0000FF; stroke-width:0.1"/>
<polygon points="49.3583,203 51,203 51,197.504 47.9778,200.04 " style="fill-opacity:0; stroke-opacity:0.8; stroke:#0000FF; stroke-width:0.1"/>
<polygon points="59,197.849 59,197 53,197 53,203 56.5373,203 57.4457,197.849 " style="fill-opacity:0; stroke-opacity:0.8; stroke:#0000FF; stroke-width:0.1"/>
<polygon points="67,198.377 67,197 61,197 61,203 64.5373,203 65.3776,198.235 " style="fill-opacity:0; stroke-opacity:0.8; stroke:#0000FF; stroke-width:0.1"/>
<polygon points="72.9503,203 75,203 75,197 74.8699,197 72.3188,200.643 " style="fill-opacity:0; stroke-opacity:0.8; stroke:#0000FF; stroke-width:0.1"/>
<polygon points="81.5953,197 77,197 77,203 80.1317,203 81.9614,199.076 " style="fill-opacity:0; stroke-opacity:0.8; stroke:#0000FF; stroke-width:0.1"/>
<polygon points="91,198.697 91,197 85,197 85,203 88.677,203 88.677,198.697 " style="fill-opacity:0; stroke-opacity:0.8; stroke:#0000FF; stroke-width:0.1"/>
<polygon points="97.8918,203 99,203 99,197.4 96.0419,200.358 " style="fill-opacity:0; stroke-opacity:0.8; stroke:#0000FF; stroke-width:0.1"/>
<polygon points="105.444,203 107,203 107,197.33 104.139,200.74 " style="fill-opacity:0; stroke-opacity:0.8; stroke:#0000FF; stroke-width:0.1"/>
<polygon points="113.061,197 109,197 109,203 111.741,203 114.332,198.514 " style="fill-opacity:0; stroke-opacity:0.8; stroke:#0000FF; stroke-width:0.1"/>
<polygon points="121.358,203 123,203 123,198.527 119.556,199.134 " style="fill-opacity:0; stroke-opacity:0.8; stroke:#0000FF; stroke-width:0.1"/>
<polygon points="131,199.31 131,197 125,197 125,203 128.37,203 129.756,197.828 " style="fill-opacity:0; stroke-opacity:0.8; stroke:#0000FF; stroke-width:0.1"/>
<polygon points="138.035,203 139,203 139,197.504 135.727,200.25 " style="fill-opacity:0; stroke-opacity:0.8; stroke:#0000FF; stroke-width:0.1"/>
<polygon points="147,199.184 147,197 141,197 141,203 144.932,203 144.519,198.281 " style="fill-opacity:0; stroke-opacity:0.8; stroke:#0000FF; stroke-width:0.1"/>
<polygon points="155,200.2 155,197 149,197 149,203 152.932,203 152.465,197.665 " style="fill-opacity:0; stroke-opacity:0.8; stroke:#0000FF; stroke-width:0.1"/>
<polygon points="162.2,203 163,203 163,197.504 159.576,200.376 " style="fill-opacity:0; stroke-opacity:0.8; stroke:#0000FF; stroke-width:0.1"/>
</svg>
